<?xml version="1.0" encoding="UTF-8" standalone="no"?>
<!-- Created with Inkscape (http://www.inkscape.org/) -->

<svg
   width="512"
   height="512"
   viewBox="0 0 512 512"
   version="1.1"
   id="svg1"
   inkscape:version="1.3.1 (9b9bdc1480, 2023-11-25, custom)"
   sodipodi:docname="id_icon.svg"
   xmlns:inkscape="http://www.inkscape.org/namespaces/inkscape"
   xmlns:sodipodi="http://sodipodi.sourceforge.net/DTD/sodipodi-0.dtd"
   xmlns="http://www.w3.org/2000/svg"
   xmlns:svg="http://www.w3.org/2000/svg">
  <sodipodi:namedview
     id="namedview1"
     pagecolor="#ffffff"
     bordercolor="#000000"
     borderopacity="0.25"
     inkscape:showpageshadow="2"
     inkscape:pageopacity="0.0"
     inkscape:pagecheckerboard="0"
     inkscape:deskcolor="#d1d1d1"
     inkscape:document-units="px"
     inkscape:zoom="2.34375"
     inkscape:cx="255.78667"
     inkscape:cy="256"
     inkscape:window-width="2560"
     inkscape:window-height="1403"
     inkscape:window-x="0"
     inkscape:window-y="0"
     inkscape:window-maximized="1"
     inkscape:current-layer="layer1" />
  <defs
     id="defs1">
    <clipPath
       id="5f31bc408f">
      <path
         d="M 1020.4258,17.554688 H 1154 V 151.14453 h -133.5742 z m 0,0"
         clip-rule="nonzero"
         id="path6" />
    </clipPath>
  </defs>
  <g
     inkscape:label="Layer 1"
     inkscape:groupmode="layer"
     id="layer1">
    <g
       clip-path="url(#5f31bc408f)"
       id="g88"
       transform="matrix(3.6353454,0,0,3.6828655,-3699.4202,-54.964885)">
      <path
         fill="#e6e3dd"
         d="m 1020.4258,47.472656 c 0,-16.523437 13.3945,-29.917968 29.918,-29.917968 h 73.6484 c 16.5234,0 29.9219,13.394531 29.9219,29.917968 v 73.648434 c 0,16.52344 -13.3985,29.92188 -29.9219,29.92188 h -73.6484 c -16.5235,0 -29.918,-13.39844 -29.918,-29.92188 z m 29.918,-25.316406 c -13.9805,0 -25.3165,11.335938 -25.3165,25.316406 v 73.648434 c 0,13.98438 11.336,25.31641 25.3165,25.31641 h 73.6484 c 13.9844,0 25.3164,-11.33203 25.3164,-25.31641 V 47.472656 c 0,-13.980468 -11.332,-25.316406 -25.3164,-25.316406 z m -2.3008,29.921875 c 0,-5.085937 4.1211,-9.207031 9.207,-9.207031 5.082,0 9.207,4.121094 9.207,9.207031 v 64.441405 c 0,5.08203 -4.125,9.20703 -9.207,9.20703 -5.0859,0 -9.207,-4.125 -9.207,-9.20703 z m 9.207,-4.605469 c -2.543,0 -4.6055,2.0625 -4.6055,4.605469 v 64.441405 c 0,2.54297 2.0625,4.60156 4.6055,4.60156 2.543,0 4.6016,-2.05859 4.6016,-4.60156 V 52.078125 c 0,-2.542969 -2.0586,-4.605469 -4.6016,-4.605469 z m 25.3164,-4.601562 c -5.0859,0 -9.207,4.121094 -9.207,9.207031 v 64.441405 c 0,5.08203 4.1211,9.20703 9.207,9.20703 h 9.207 c 22.8789,0 41.4258,-18.55078 41.4258,-41.429685 0,-22.878906 -18.5469,-41.425781 -41.4258,-41.425781 z m -4.6055,9.207031 c 0,-2.542969 2.0625,-4.605469 4.6055,-4.605469 h 9.207 c 20.336,0 36.8243,16.488282 36.8243,36.824219 0,20.339845 -16.4883,36.824215 -36.8243,36.824215 h -9.207 c -2.543,0 -4.6055,-2.05859 -4.6055,-4.60156 z m 11.5079,4.601563 c -1.2696,0 -2.3008,1.03125 -2.3008,2.300781 v 50.632811 c 0,1.27344 1.0312,2.30078 2.3008,2.30078 h 2.3046 c 15.25,0 27.6172,-12.363279 27.6172,-27.617185 0,-15.25 -12.3672,-27.617187 -27.6172,-27.617187 z m 25.3164,27.617187 c 0,12.710937 -10.3008,23.015625 -23.0118,23.015625 V 61.28125 c 12.711,0 23.0118,10.304688 23.0118,23.015625 z m 0,0"
         fill-opacity="1"
         fill-rule="evenodd"
         id="path88" />
    </g>
  </g>
</svg>
