<?xml version="1.0" encoding="UTF-8" standalone="no"?>
<!-- Created with Inkscape (http://www.inkscape.org/) -->

<svg
   width="512"
   height="512"
   viewBox="0 0 512 512"
   version="1.1"
   id="svg1"
   inkscape:version="1.3.1 (9b9bdc1480, 2023-11-25, custom)"
   sodipodi:docname="about_icon.svg"
   xmlns:inkscape="http://www.inkscape.org/namespaces/inkscape"
   xmlns:sodipodi="http://sodipodi.sourceforge.net/DTD/sodipodi-0.dtd"
   xmlns="http://www.w3.org/2000/svg"
   xmlns:svg="http://www.w3.org/2000/svg">
  <sodipodi:namedview
     id="namedview1"
     pagecolor="#ffffff"
     bordercolor="#000000"
     borderopacity="0.25"
     inkscape:showpageshadow="2"
     inkscape:pageopacity="0.0"
     inkscape:pagecheckerboard="0"
     inkscape:deskcolor="#d1d1d1"
     inkscape:document-units="px"
     inkscape:zoom="2.34375"
     inkscape:cx="255.78667"
     inkscape:cy="256"
     inkscape:window-width="2560"
     inkscape:window-height="1403"
     inkscape:window-x="0"
     inkscape:window-y="0"
     inkscape:window-maximized="1"
     inkscape:current-layer="layer1" />
  <defs
     id="defs1">
    <clipPath
       id="1bf265f7d5">
      <path
         d="M 389,1 H 531 V 146.28125 H 389 Z m 0,0"
         clip-rule="nonzero"
         id="path2" />
    </clipPath>
    <clipPath
       id="5cea4caa01">
      <path
         d="m 526,59 h 8.26562 v 6 H 526 Z m 0,0"
         clip-rule="nonzero"
         id="path3" />
    </clipPath>
    <clipPath
       id="f38f0397c2">
      <path
         d="M 385.75,58 H 394 v 7 h -8.25 z m 0,0"
         clip-rule="nonzero"
         id="path4" />
    </clipPath>
  </defs>
  <g
     inkscape:label="Layer 1"
     inkscape:groupmode="layer"
     id="layer1">
    <g
       clip-path="url(#1bf265f7d5)"
       id="g8"
       transform="matrix(3.3445293,0,0,3.3408614,-1285.0958,7.821897)">
      <path
         fill="#e6e3dd"
         d="m 420.14844,36.328125 c 0.51172,0.234375 0.46484,-0.121094 0.47656,-0.441406 0.11719,-2.699219 0.54687,-5.339844 1.39453,-7.914063 0.60547,-1.84375 1.4375,-3.5625 2.6875,-5.0625 0.0977,-0.117187 0.15625,-0.265625 0.23438,-0.402344 l -0.0312,0.02734 c 1.41406,-1.847656 3.29296,-2.972656 5.51171,-3.59375 4.24219,-1.1875 8.35547,-0.792968 12.36719,0.960938 0.47266,0.207031 0.92578,0.472656 1.52735,0.507812 -0.21485,-0.832031 -0.59766,-1.546875 -0.95704,-2.265625 -1.16015,-2.308593 -2.55859,-4.496093 -3.52343,-6.90625 -0.77735,-1.949219 -1.39453,-3.9375 -1.14453,-6.074219 0.14453,-1.242187 0.55468,-2.371093 1.66015,-3.101562 1.29688,-0.859375 2.39844,-0.4375 2.72656,1.0625 0.10938,0.503906 0.0977,1.035156 0.14454,1.554688 -0.0625,0.00781 -0.12891,0.019531 -0.19141,0.027343 -0.0195,-0.226562 -0.0312,-0.453125 -0.0586,-0.679687 -0.0781,-0.632813 -0.27344,-1.238282 -0.95704,-1.410156 -0.71093,-0.179688 -1.22265,0.242187 -1.57812,0.808593 -0.74609,1.199219 -0.85156,2.53125 -0.72266,3.894531 0.1875,1.988282 0.98047,3.769532 1.9375,5.480469 2.3711,4.234375 5.59766,7.789063 8.95703,11.238281 0.19532,0.199219 0.40625,0.363282 0.69141,0.25 0.28125,-0.113281 0.21875,-0.398437 0.24609,-0.621093 0.20313,-1.753907 0.35547,-3.507813 0.92969,-5.203125 0.73438,-2.171875 1.86328,-4.058594 3.73828,-5.523438 -0.80078,-0.261718 -1.41406,-0.660156 -1.77734,-1.390625 1.17578,1.011719 2.40625,1.171875 3.85547,0.554688 1.6289,-0.695313 3.26953,-0.367188 4.82031,0.390625 1.70313,0.832031 3.00781,2.117187 4.08984,3.652344 1.21875,1.730468 2.00782,3.632812 2.38672,5.714843 0.1211,0.671875 0.28907,1.34375 0.64453,1.941407 0.14454,0.242187 0.27344,0.4375 0.58204,0.101562 1.94921,-2.117188 3.93359,-4.199219 5.875,-6.320312 1.60937,-1.757813 3.05859,-3.640626 4.19531,-5.746094 1.14844,-2.128906 1.87109,-4.359375 1.55078,-6.824219 -0.0898,-0.6875 -0.29297,-1.34375 -0.72266,-1.902344 -0.75,-0.984375 -1.63672,-0.925781 -2.25,0.160157 -0.17968,0.3125 -0.29297,0.660156 -0.4414,1.007812 -0.4961,-0.992188 -0.28516,-2.027344 0.50781,-2.617188 0.75,-0.554687 1.79297,-0.492187 2.54687,0.207032 1.2461,1.164062 1.52344,2.675781 1.37891,4.285156 -0.24609,2.738281 -1.30469,5.207031 -2.67578,7.542969 -1.01563,1.730469 -2.11719,3.410156 -3.16797,5.117187 -0.23047,0.371094 -0.46094,0.75 -0.54687,1.234375 0.83984,0.05859 1.54687,-0.242187 2.25781,-0.496093 3.9375,-1.417969 7.86719,-1.660157 11.82422,-0.05078 1.46875,0.59375 2.69922,1.515625 3.83984,2.582032 0.25391,0.308593 0.50391,0.621093 0.75391,0.929687 0.0273,0.09766 0.0312,0.214844 0.0859,0.296875 2.58594,3.898438 3.23047,8.296875 3.28516,12.839844 0.0273,2.164062 -0.13281,4.320312 -0.53516,6.632812 1.58594,-1.207031 3.19141,-2.097656 4.85157,-2.890625 1.92968,-0.921875 3.86718,-1.828125 5.55859,-3.167969 0.93359,-0.746093 1.78906,-1.558593 2.44922,-2.566406 1.22656,-1.875 1.01953,-3.652344 -0.61719,-5.183594 -0.11328,-0.105468 -0.28125,-0.152343 -0.36328,-0.285156 1.69922,-0.03906 3.00391,1.632813 2.79297,3.410156 -0.21094,1.761719 -1.15625,3.144532 -2.33594,4.390626 -0.43359,0.460937 -0.93359,0.859374 -1.41406,1.265624 -0.25,0.210938 -0.30469,0.359376 -0.043,0.628907 0.72656,0.753906 1.27734,0.902343 2.23438,0.472656 1.01562,-0.453125 1.97656,-0.265625 2.8789,0.257813 2.23047,1.296874 3.21485,3.402343 3.66406,5.828124 0.29297,1.570313 0.1211,3.082032 -0.76953,4.726563 -0.10547,-2.578125 -2.04687,-3.019531 -3.69922,-3.769531 -0.48437,-0.214844 -0.73046,0.140625 -1.0039,0.421875 -0.9961,1.023437 -1.75391,1.011719 -2.67578,-0.09766 -1.1875,-1.433593 -1.25782,-3.074218 -0.80078,-4.789062 0.0976,-0.355469 0.21484,-0.710938 0.375,-1.039062 0.25781,-0.523438 0.0703,-0.859376 -0.31641,-1.234376 -0.54688,-0.535156 -0.99219,-0.628906 -1.69531,-0.179687 -1.86719,1.195313 -3.80469,2.277344 -5.69922,3.421875 -2.42578,1.460938 -4.39063,3.355469 -5.66797,5.921875 -0.58984,1.179687 -1.30469,2.292969 -1.79688,3.523437 -0.34375,0.859376 -0.30859,0.914063 0.57813,0.824219 1.02344,-0.105469 2.04297,-0.242187 3.06641,-0.347656 3.24218,-0.328125 6.14062,0.730469 8.91015,2.253906 2.07422,1.140625 4.23047,2.171875 5.80078,4.011719 0.24219,-0.1875 0.1211,-0.402344 0.21875,-0.566406 0.0274,0.03516 0.0742,0.06641 0.0742,0.09375 -0.0469,0.660156 0.23438,1.148437 0.73828,1.566406 0.71875,0.601562 1.34375,1.320312 2.34375,1.816406 -0.26562,-0.570312 -0.48047,-1.007812 -0.67187,-1.457031 -0.56641,-1.328125 -0.41406,-2.128906 0.59375,-3.160156 1.46484,-1.496094 4.51953,-1.828125 6.39453,-0.652344 -2.10938,0.898437 -2.08984,2.714844 -1.89844,4.511719 0.0937,0.855468 -0.20312,1.066406 -0.92969,1.101562 -0.6289,0.02734 -1.26171,0.09375 -1.89062,0.152344 -0.12109,0.01172 -0.28516,-0.05859 -0.34375,0.105469 -0.0664,0.191406 0.0703,0.308593 0.21484,0.367187 0.31641,0.128906 0.63672,0.269532 0.96875,0.332032 3.28125,0.625 7.41797,-0.515626 9.30469,-3.90625 0.60547,-1.085938 0.96484,-2.234376 0.58594,-3.492188 -0.40235,-1.339844 -1.51563,-1.84375 -2.78125,-1.257812 -0.16797,0.07812 -0.3086,0.234374 -0.47266,0.02734 -0.125,-0.160156 -0.125,-0.351562 -0.0391,-0.523437 0.21484,-0.445313 0.60156,-0.542969 1.05859,-0.53125 1.95313,0.05469 3.44532,2.054687 2.94141,4.03125 -1.17578,4.632812 -7.24219,9 -12.61719,5.667968 -0.10156,-0.0625 -0.21875,-0.109374 -0.47656,-0.230468 0.59766,0.984375 1.125,1.820312 1.61328,2.675781 0.66797,1.175781 1.19922,2.40625 1.46484,3.742187 0.0469,0.230469 0.0898,0.46875 0.0937,0.703126 0.0352,1.140624 -0.19921,1.332031 -1.27734,1.039062 -0.90234,-0.242188 -1.92578,-0.05469 -2.70703,-0.734375 -0.16797,-0.144531 -0.54688,-0.222656 -0.39453,-0.492187 0.14062,-0.246094 0.47656,-0.289063 0.73047,-0.01953 0.14843,0.160156 0.34765,0.332032 0.51953,0.09375 0.14062,-0.191406 -0.13281,-0.308594 -0.23828,-0.429687 -0.11328,-0.136719 -0.28516,-0.230469 -0.45313,-0.304688 -0.28125,-0.128906 -0.73047,-0.214843 -0.61328,-0.5625 C 515,68 515.47266,68.113281 515.75781,68.183594 c 0.58594,0.136718 1.28906,0.148437 1.35938,1.039062 0.0351,0.414063 0.74218,0.214844 0.75781,0.890625 0.4375,-0.761719 0.46484,-1.367187 0.27344,-1.992187 -0.76953,-2.5 -2.19532,-4.605469 -3.98828,-6.476563 -0.19532,-0.207031 -0.44922,-0.367187 -0.70313,-0.5 -0.26562,-0.144531 -0.50781,-0.203125 -0.69141,0.195313 -0.19531,0.421875 -0.60156,0.640625 -1.0664,0.742187 -0.35938,0.07422 -0.60938,-0.03125 -0.60547,-0.402343 0.008,-0.492188 -0.31641,-0.667969 -0.67188,-0.863282 -0.46093,-0.25 -0.93359,-0.496094 -1.36328,-0.796875 -0.28906,-0.203125 -0.69922,-0.449219 -0.58984,-0.855469 0.12109,-0.460937 0.62891,-0.429687 1.00781,-0.453124 0.83594,-0.05469 1.62891,0.109374 2.27344,0.707031 0.15234,0.140625 0.32812,0.257812 0.48437,0.378906 0.13672,-0.08984 0.0586,-0.148437 0.004,-0.195313 -2.65234,-2.375 -5.60156,-4.25 -9.10937,-5.039062 -3.58204,-0.808594 -7.02735,-0.175781 -10.3086,1.375 -4.41015,2.082031 -7.64062,5.378906 -9.78515,9.753906 -0.10547,0.207032 -0.2461,0.40625 -0.19532,0.679688 0.78125,0.164062 1.50391,-0.05859 2.23047,-0.3125 4.33594,-1.515625 8.75391,-2.550782 13.38672,-2.5 3.78516,0.04297 7.35938,0.925781 10.75391,2.582031 0.3125,0.152344 0.60937,0.441406 1.01562,0.214844 -0.50781,-1.28125 -0.6875,-1.425781 -1.57422,-1.277344 0.66407,-0.816406 2.69532,-1.265625 3.59375,-0.757813 0.61719,0.351563 0.82032,0.886719 0.64063,1.613282 -0.16797,0.6875 -0.48047,1.078125 -1.23828,1.011718 -0.39063,-0.03516 -0.77735,-0.05078 -1.17578,-0.148437 0.72656,0.5 1.39453,1.089844 2.24218,1.351563 0.38672,0.117187 0.44532,0.476562 0.71094,0.675781 2.46484,1.847656 4.19141,4.363281 6.06641,6.746093 1.14062,1.457032 2.29297,2.902344 3.78906,4.023438 0.74219,0.554688 1.53125,1.023438 2.4375,1.273438 1.95312,0.535156 3.42969,-0.496094 3.59375,-2.519532 0.0469,-0.601562 0.0156,-1.207031 -0.0977,-1.835937 1.07813,0.847656 1.57422,2.273437 1.23047,3.457031 -0.36719,1.257812 -1.48437,2.179688 -2.82031,2.328125 -1.38672,0.152344 -2.59766,-0.304687 -3.72266,-1.066406 -1.16797,-0.792969 -2.15234,-1.78125 -3.03125,-2.875 -2.16015,-2.679688 -4.45312,-5.222657 -7.16797,-7.363281 -3.17187,-2.496094 -6.66796,-4.230469 -10.72265,-4.699219 -0.31641,-0.03516 -0.63281,-0.03906 -0.94922,-0.04687 -0.12891,-0.0039 -0.25391,0.02344 -0.41016,0.03906 0.19532,0.707032 0.25391,1.445313 1.16016,1.816406 -0.5,0.02734 -0.64063,0.335938 -0.85547,0.550782 -0.5,0.5 -1.09766,0.804687 -1.79687,0.921875 -0.63282,0.109375 -0.89063,-0.175781 -0.6875,-0.738281 0.20703,-0.5625 -0.12891,-0.566407 -0.44141,-0.488282 -0.71094,0.171875 -1.48828,0.328125 -1.58203,1.273438 -0.0312,0.3125 -0.21094,0.304687 -0.42578,0.300781 -0.42188,-0.976563 -0.25,-1.632813 0.60547,-2.324219 0.91406,-0.734375 1.94921,-0.855468 3.0625,-0.628906 0.23437,0.05078 0.46484,0.242188 0.73046,0.07422 -0.0781,-0.445313 -0.14453,-0.8125 -0.74218,-0.832031 -2.63282,-0.08203 -4.80078,1.03125 -6.94532,2.566406 1.17579,0.402344 2.24219,0.765625 3.30469,1.128906 2.55469,1.570312 4.875,3.40625 6.61719,5.886719 0.0898,0.128906 0.20312,0.300781 0.35547,0.105469 0.14453,-0.179688 0.51172,-0.34375 0.2539,-0.644532 -0.80859,-0.957031 -0.59765,-2.078125 -0.60546,-3.269531 0.53125,0.335937 0.88281,0.04687 1.23828,-0.222656 0.76562,-0.585938 1.32422,-1.351563 1.88672,-2.121094 0.16406,-0.230469 0.33984,-0.453125 0.57812,-0.773437 0.94141,1.851562 1.22656,3.65625 0.48047,5.535156 -0.39453,1 -1.01953,1.394531 -2.04688,1.167968 -0.83984,-0.1875 -1.11328,0.433594 -1.53125,0.84375 -0.23828,0.234376 0.0937,0.480469 0.21094,0.6875 0.98828,1.734376 1.75781,3.542969 1.9375,5.558594 0.30469,3.386719 -1.94922,6.03125 -5.33984,6.285156 -1.17188,0.08594 -2.32813,0.0078 -3.44141,-0.371093 -1.34765,-0.457031 -2.66015,-0.644531 -3.89844,0.335937 0.36329,-0.757812 1.06641,-1.023437 1.75391,-1.332031 -0.0312,-0.332031 -0.35156,-0.429687 -0.54297,-0.617187 -1.91797,-1.816407 -3.30469,-3.964844 -4.0039,-6.523438 -0.21875,-0.796875 -0.25782,-1.617188 0.0742,-2.410156 0.25,-0.609375 0.69532,-0.890625 1.3711,-0.820313 1.01562,0.105469 2.91406,1.949219 2.375,3.308594 -0.0352,-0.261719 -0.0586,-0.527344 -0.10156,-0.789063 -0.1875,-1.070312 -1.375,-2.09375 -2.37891,-2.089843 -0.51953,0.0039 -0.79688,0.230469 -0.80469,0.75 -0.004,0.292969 -0.0351,0.59375 0.0352,0.871093 0.79297,3.082032 2.17969,5.808594 5.05469,7.4375 2.22265,1.257813 4.53515,1.148438 6.67968,-0.234374 1.72266,-1.113282 2.32813,-3.121094 1.78907,-5.335938 -0.24219,-0.984375 -0.66797,-1.886719 -1.19532,-2.746094 -4.96875,-8.085937 -13.53515,-9.125 -20.28125,-6.421875 -0.48437,0.195313 -0.94531,0.46875 -1.38281,0.757813 -0.71875,0.46875 -0.69141,1.054687 0.0508,1.527344 0.3125,0.195312 0.64844,0.351562 0.98047,0.515624 1.50391,0.742188 2.85156,1.699219 4.02344,2.902344 0.58203,0.597656 0.67578,0.585938 0.94922,-0.242187 0.33984,-1.035157 0.86718,-1.976563 1.36328,-2.9375 0.26953,-0.527344 0.625,-0.96875 1.11719,-1.308594 0.1875,-0.128906 0.5,-0.21875 0.48046,-0.476563 -0.0234,-0.285156 -0.3789,-0.21875 -0.57031,-0.335937 -0.10156,-0.05859 -0.22265,-0.09375 -0.4414,-0.1875 0.90234,-0.453125 1.73828,-0.535156 2.61718,-0.425781 0.81641,0.101562 1.61328,0.257812 2.37891,0.566406 0.33984,0.140625 0.58203,0.300781 0.39453,0.769531 -0.60547,1.539063 -2.88672,2.890625 -4.49609,2.632813 -0.69922,-0.113282 -1.48828,-0.386719 -1.95703,0.363281 -0.52735,0.84375 -0.99219,1.769531 -0.6211,2.828125 0.13672,0.394531 0.33594,0.78125 0.5586,1.132812 1.89453,2.953126 2.29296,6.066407 1.03906,9.367188 l 0.0234,-0.01953 c -0.69922,1.015625 -1.28516,2.105469 -2.09375,3.046875 -0.3125,0.367187 -0.51563,0.785156 -0.61719,1.257812 l 0.0156,-0.01563 c -0.49609,-0.28125 -0.88672,-0.05859 -1.30859,0.21875 -0.77734,0.5 -1.64844,0.695313 -2.57422,0.59375 -1.20703,-0.136719 -2.07812,-1.261719 -1.79297,-2.332031 0.0742,-0.289062 0.15625,-0.613281 0.54688,-0.691406 -0.54688,1.746094 0.18359,2.621094 2.03125,2.386718 1.46093,-0.183593 2.58203,-1.023437 3.55468,-2.070312 3.10157,-3.335938 2.9961,-9.050781 -0.30468,-12.398438 -0.3125,0.933594 -0.86719,1.699219 -0.23047,2.75 0.67969,1.121094 0.30859,2.25 -0.46094,3.230469 -1.72266,2.195313 -5.52344,2.820313 -7.96094,1.289063 1.40625,-0.847656 2.37891,-2.027344 2.89844,-3.570313 0.17188,-0.503906 0.17969,-0.925781 -0.44141,-1.128906 -0.64843,-0.214844 -0.44531,-0.535156 -0.043,-0.792969 1.42968,-0.910156 2.96875,-1.078125 4.54296,-0.496094 0.57813,0.214844 0.75,0.08594 0.92969,-0.449218 0.44922,-1.347656 0.47266,-1.359375 -0.58203,-2.308594 -1.54297,-1.382812 -3.24609,-2.4375 -5.35937,-2.691406 -1.23047,-0.148438 -2.35547,0.07813 -3.37891,0.800781 -2.85938,2.019531 -4.82813,4.785156 -6.4375,7.8125 -3.60547,6.800781 -4.79297,14.066406 -3.96875,21.691405 0.34375,3.16406 1.04297,6.23828 2.07031,9.24219 0.1836,0.53125 0.0703,0.85547 -0.32422,1.22266 -1.82031,1.70312 -3.33984,3.66406 -4.75781,5.70703 -0.16016,0.22656 -0.28906,0.47265 -0.37109,0.7539 1.17968,-1.65234 2.50781,-3.15625 4.03515,-4.47656 3.6211,-3.13281 7.82032,-4.92578 12.57813,-5.44531 2.97265,-0.32813 5.89844,-0.14063 8.78906,0.625 0.52734,0.14062 0.94531,0.40625 1.34375,0.78125 6.52344,6.12109 12.97266,12.32812 20.00781,17.875 0.4375,0.34765 0.48047,0.68359 0.38282,1.15234 -0.34766,1.63281 -0.41797,3.29297 -0.42969,4.95703 -0.008,0.92969 0.27734,1.66797 1.05469,2.25391 0.85937,0.65234 1.67968,1.36719 2.34765,2.23047 0.14063,0.18359 0.35547,0.39843 0.23438,0.63281 -0.12891,0.25 -0.42969,0.14453 -0.65235,0.12891 -3.5,-0.23047 -7.0039,-0.45313 -10.50781,-0.71485 -4.86719,-0.37109 -9.74609,-0.64062 -14.62109,-0.86719 -5.75,-0.26562 -11.50782,-0.39453 -17.26172,-0.48437 -1.62891,-0.0234 -1.62891,-0.0117 -1.64063,1.64062 0,0.0781 0,0.15625 0,0.23829 -0.0273,2.13671 -0.71093,2.92968 -2.82422,3.13671 -3.53125,0.34766 -7.07031,0.28907 -10.60546,0.0898 -1.26172,-0.0703 -2.53125,-0.0781 -3.77735,-0.36719 -1.53515,-0.35937 -2.03125,-0.91797 -2.16797,-2.48047 -0.0312,-0.34375 -0.0625,-0.68359 -0.0781,-1.02734 -0.0703,-1.22656 -0.0703,-1.25781 -1.33594,-1.23438 -3.14453,0.0508 -6.28516,0.11719 -9.42578,0.20703 -5.30469,0.15235 -10.60547,0.41016 -15.90234,0.7461 -5.53125,0.35156 -11.0625,0.75781 -16.59375,1.13281 -0.37891,0.0234 -0.90235,0.23047 -1.10938,-0.13281 -0.25,-0.44531 0.18359,-0.84766 0.48438,-1.15625 0.66406,-0.67969 1.33203,-1.36328 2.07421,-1.95313 0.79297,-0.63281 1.10157,-1.4375 1.19532,-2.39453 0.14843,-1.53515 0.10937,-3.0625 -0.21485,-4.5664 -0.0781,-0.36329 -0.0351,-0.55079 0.25391,-0.80079 5.19531,-4.48437 10.29297,-9.08203 15.34375,-13.73437 1.49219,-1.375 3.02734,-2.71875 4.4375,-4.17578 0.98828,-1.02344 2.24609,-1.26563 3.49219,-1.5 6.29687,-1.17578 12.18359,-0.14453 17.48828,3.5625 2.44531,1.70703 4.49609,3.82812 6.08984,6.37109 0.125,0.19922 0.26172,0.39063 0.39453,0.58985 0.15625,-0.14063 0.0625,-0.2461 0,-0.35547 -1.46875,-2.59766 -3.26562,-4.9375 -5.64843,-6.76172 -0.6836,-0.52344 -0.72657,-0.94141 -0.46485,-1.6875 1.69531,-4.875 2.61328,-9.89063 2.40235,-15.070314 -0.30079,-7.183594 -2.20704,-13.832031 -6.67579,-19.59375 -1.15234,-1.484375 -2.48437,-2.800781 -4.03906,-3.886718 -1.01953,-0.714844 -2.07422,-0.796876 -3.22656,-0.390626 -2.08984,0.742188 -3.67578,2.136719 -5.0625,3.804688 -0.57031,0.6875 0.0625,1.277344 0.10937,2.058594 1.32813,-0.855469 2.64063,-0.980469 4.00782,-0.535156 0.9414,0.308593 0.97656,0.425781 0.8164,1.414062 -0.0742,0.460938 -0.004,0.949219 0.0117,1.421875 0.0156,0.386719 0.26563,0.695313 0.10547,1.175781 -0.12891,0.386719 0.46094,0.691406 0.89844,0.84375 0.77344,0.269532 1.59375,0.308594 2.48437,0.480469 -0.46484,0.621094 -1.09375,0.832031 -1.69922,0.957031 -2.36328,0.476563 -4.46093,-0.05078 -6.14062,-1.851562 -0.75391,-0.804688 -1.21484,-1.769532 -0.89453,-2.890625 0.23828,-0.824219 -0.0274,-1.488281 -0.39453,-2.292969 -0.91016,1.230469 -1.47266,2.53125 -1.64453,3.941406 -0.46094,3.789063 0.94531,6.8125 3.96875,9.101563 0.41796,0.320312 0.89843,0.546875 1.40625,0.707031 0.97656,0.300781 1.64062,0.121094 2.00781,-0.5625 0.42969,-0.800781 0.24219,-2.015625 -0.39844,-2.542969 -0.13672,-0.113281 -0.29297,-0.207031 -0.47656,-0.335937 0.50781,-0.199219 0.72656,0.07031 0.91797,0.40625 0.26953,0.46875 0.36718,0.992187 0.41015,1.515625 0.14453,1.828125 -1.3164,2.878906 -3.00781,2.167969 C 435.01172,94 434.04687,93.09375 433.23437,92.042969 c -1.45703,-1.890625 -2.46093,-3.992188 -2.66406,-6.414063 -0.0195,-0.234375 -0.0742,-0.46875 -0.12109,-0.703125 -0.0117,-0.07031 -0.0508,-0.132812 -0.0781,-0.1875 -0.19531,-0.04297 -0.24609,0.101563 -0.32422,0.199219 -1.89453,2.457031 -4.40625,3.84375 -7.47265,4.085938 -2.41797,0.191406 -4.28516,-0.886719 -5.60156,-2.914063 -0.23829,-0.367187 -0.44141,-0.761719 -0.69922,-1.203125 -0.40625,1.09375 -0.4336,2.160156 -0.53516,3.226562 -0.42187,-0.828124 -0.57812,-1.691406 -0.66016,-2.570312 -0.34765,-3.742188 0.72657,-7.089844 2.83204,-10.148438 0.22656,-0.328124 0.44531,-0.652343 0.67187,-0.980468 0.27734,-0.402344 0.32813,-0.773438 -0.29687,-1.140625 1.60546,-0.214844 2.71484,-1.035157 3.74609,-2.054688 0.83594,-0.824219 1.97266,-1.195312 3.04297,-1.652343 0.32422,-0.136719 0.73437,-0.207032 0.74609,-0.699219 0.0117,-0.453125 -0.30469,-0.65625 -0.62109,-0.84375 -2.00781,-1.183594 -4.22266,-1.640625 -6.50781,-1.746094 -4.52344,-0.210937 -8.4336,1.441406 -11.89454,4.207031 -2.85156,2.277344 -5.46093,4.792969 -7.63671,7.769532 -1.46485,2.003906 -3.33985,3.621093 -5.92579,4.074218 -2.53906,0.449219 -4.67187,-1.917968 -3.83203,-4.226562 0.26953,-0.746094 0.71875,-1.195313 1.64844,-1.550782 -0.53906,0.617188 -0.89062,1.171876 -0.86719,1.890626 0.0234,0.730468 0.30469,1.332031 0.78907,1.847656 0.91406,0.988281 2.02343,1.023437 3.20312,0.601562 1.47656,-0.53125 2.63672,-1.53125 3.72656,-2.617187 1.96485,-1.964844 3.53516,-4.265625 5.35547,-6.355469 0.48047,-0.550781 1,-1.066406 1.66016,-1.761719 -1.09375,0.238281 -1.96875,0.476563 -2.86328,0.625 -0.7461,0.121094 -1.07032,0.01172 -1.25,-0.722656 -0.21094,-0.855469 0,-1.675781 0.26172,-2.484375 0.57421,-1.753906 1.58593,-3.265625 2.73046,-4.773438 -0.32031,-0.05078 -0.51562,0.128907 -0.71484,0.242188 -2.60547,1.46875 -5.20703,1.21875 -7.6875,-0.210938 -2.14844,-1.238281 -3.82422,-2.996093 -4.62891,-5.421874 -0.64062,-1.945313 0.29688,-3.722657 2.1875,-4.222657 0.55469,-0.144531 1.10938,-0.171875 1.5586,0.273438 0.22656,0.226562 0.3125,0.539062 0.0937,0.785156 -0.23438,0.265625 -0.33985,-0.117187 -0.48828,-0.199219 -1.19141,-0.679687 -2.77735,0.273438 -2.90235,1.789063 -0.0742,0.910156 0.14453,1.785156 0.55078,2.601562 1.60157,3.210938 6.21485,5.269531 9.65625,4.300781 0.51563,-0.144531 1.0586,-0.285156 1.51954,-0.878906 -1.12891,0.207032 -2.10157,0.05469 -3.07813,-0.07031 -0.53125,-0.07031 -0.76953,-0.253906 -0.64453,-0.863282 0.21875,-1.054687 0.12891,-2.101562 -0.35156,-3.089843 -0.33203,-0.683594 -0.90625,-1.136719 -1.5586,-1.539063 1.92578,-1.335937 5.29688,-0.933594 6.75782,0.738282 0.7539,0.863281 0.95312,1.800781 0.43359,2.851562 -0.23047,0.46875 -0.48047,0.929688 -0.8125,1.5625 1.19531,-0.609375 2.10937,-1.339844 2.96094,-2.136719 0.23437,-0.222656 0.0547,-0.613281 0.0976,-0.921875 0.043,-0.332031 0.0703,-0.667968 0.11719,-1.09375 0.66016,1.480469 0.67969,1.5 1.84375,0.355469 1.34766,-1.320313 2.85156,-2.433594 4.46094,-3.398437 3.21094,-1.925782 6.66015,-2.382813 10.29687,-1.542969 0.74219,0.171875 1.48438,0.375 2.25391,0.410156 0.51172,0.02344 0.66406,-0.191406 0.49219,-0.679687 -0.16016,-0.457032 -0.39453,-0.867188 -0.67969,-1.246094 -0.99219,-1.335938 -1.98828,-2.667969 -2.98828,-3.992188 -2.32422,-3.074218 -5.26563,-5.386718 -8.73828,-7.019531 -0.96875,-0.453125 -2.01953,-0.574219 -3.09375,-0.445313 -0.56641,0.07031 -0.82422,0.308594 -0.8711,0.898438 -0.16406,1.980469 -0.99609,3.695312 -2.16015,5.277344 -0.28907,0.398437 -0.58985,0.523437 -1.07032,0.339844 -1.14843,-0.429688 -2.17968,-0.453126 -3.3125,0.339843 -1.42187,1 -3.05468,1.082031 -4.62109,0.117188 -0.125,-0.07813 -0.29297,-0.136719 -0.32422,-0.386719 1.94141,0.04297 2.40625,-1.445312 2.9336,-2.859375 0.21093,-0.566406 -0.20704,-0.800781 -0.58594,-1.058594 -0.8711,-0.578125 -0.87891,-0.59375 -0.10938,-1.324219 1.44141,-1.363281 3.02344,-2.457031 5.04688,-2.785156 1.08594,-0.171875 2.10547,0.05469 3.09765,0.421875 0.625,0.234375 0.73829,0.03125 0.61719,-0.542969 -0.19531,-0.914062 -0.55078,-1.75 -1.11328,-2.507812 -0.80859,-1.082031 -1.53906,-2.214844 -1.80469,-3.570312 -0.32422,-1.632813 0.55078,-3.070313 2.08985,-3.464844 0.008,0.04687 0.0391,0.117187 0.0234,0.128906 -1.6289,1.285156 -1.53906,3.308594 -0.64453,4.871094 1.03907,1.816406 2.60157,3.097656 4.32032,4.21875 2.03515,1.328125 4.26562,2.304687 6.35546,3.539062 0.85938,0.507813 1.6211,1.15625 2.5,1.855469 -0.27343,-2.164063 -0.5,-4.203125 -0.46484,-6.257813 0.008,-0.363281 -0.36719,-0.421874 -0.45312,-0.691406 l -0.0156,0.01563 z m 36.83203,-2.945313 -0.0117,-0.01172 c 0.71875,1.398437 1.70312,2.59375 2.78906,3.847656 0.14844,-0.421875 0.19922,-0.71875 0.34766,-0.953125 0.39062,-0.609375 0.62109,-1.21875 0.51562,-1.984375 -0.0859,-0.632812 0.27735,-1.121094 0.92969,-1.285156 0.57031,-0.140625 0.66797,-0.535156 0.625,-1.023438 -0.0195,-0.230468 -0.0859,-0.460937 -0.13672,-0.738281 1.00391,0.5625 1.62891,1.585937 1.6836,2.679687 0.0781,1.445313 -0.4961,1.964844 -2.14844,1.898438 -0.5,-0.01953 -0.92969,-0.0039 -1.17969,0.542969 -0.25,0.535156 -0.53906,1.042969 -0.10547,1.617187 0.25,0.339844 0.48047,0.695313 0.72656,1.035156 0.35547,0.488282 0.73829,0.46875 1.09375,0.01172 0.44922,-0.585937 0.89844,-1.175781 1.3125,-1.785156 2.70313,-3.941406 4.38672,-8.238281 4.23047,-13.085937 -0.11718,-3.554688 -1.48828,-6.613282 -4.10156,-9.050782 -2.29297,-2.136718 -5.07422,-2 -7.20312,0.289063 -0.5625,0.601562 -1.02735,1.277343 -1.3711,2.023437 -2.64844,5.738282 -1.26953,10.976563 2.00391,15.972656 z M 449.47266,62.125 c 0.9414,0.03906 1.22265,0.871094 1.70703,1.480469 0.33984,-0.339844 0.39453,-0.742188 0.47265,-1.117188 1.05469,-5.164062 2.92969,-10.007812 5.55469,-14.574219 0.67969,-1.1875 1.33984,-2.390624 1.98438,-3.601562 0.34375,-0.644531 0.55468,-1.332031 0.1875,-2.042969 -1.62891,-3.132812 -3.51172,-6.085937 -6.25782,-8.382812 -2.05468,-1.722657 -4.39062,-2.417969 -7.07422,-1.914063 -4.11718,0.769532 -6.65234,3.53125 -8.77343,6.839844 -0.1836,0.285156 -0.32813,0.605469 -0.4375,0.925781 -0.23047,0.660157 0.13672,1.1875 0.89453,1.3125 0,-0.07813 0.008,-0.152343 0,-0.226562 -0.29297,-2.835938 0.71875,-4.035157 3.55078,-4.179688 0.57812,-0.03125 1.01953,-0.253906 1.27344,-0.78125 0.13672,-0.277343 0.22265,-0.578125 0.35547,-0.929687 0.74218,1.929687 -0.12891,4.808594 -1.83204,6.242187 -1.24218,1.050781 -2.82031,1.085938 -4.01562,0.08203 -0.23047,-0.195312 -0.41016,-0.445312 -0.62891,-0.683593 -1.72265,3.460937 -1.65625,7.800781 -0.10156,10.859375 0.14453,-0.230469 0.25,-0.484375 0.42969,-0.664063 0.5664,-0.585937 0.60547,-1.160156 0.33594,-1.957031 -0.53125,-1.585938 0.0781,-2.964844 1.46484,-3.804688 0.37109,-0.226562 0.70703,-0.308593 1.08594,-0.0078 0.79297,0.625 1.60937,0.496094 2.4414,0.05859 0.6875,-0.363282 1.21485,-0.910156 1.78907,-1.488282 0.33984,0.628907 0.3789,1.246094 0.27734,1.875 -0.33984,2.0625 -1.625,3.429688 -3.3125,4.507813 -0.81641,0.519531 -1.67188,0.660156 -2.55078,0.242187 -0.41406,-0.199218 -0.60938,-0.03516 -0.875,0.234376 -0.88672,0.914062 -0.89063,1.953124 -0.53516,3.085937 1.59766,5.082031 4.58203,9.105469 9.10156,11.957031 1.27344,0.804688 2.63672,1.445313 4.09766,1.84375 0.98047,0.265625 1.16016,0.09375 1.13672,-0.921875 -0.0391,-1.648437 -0.45313,-3.140625 -1.72656,-4.289062 l -0.0195,0.02344 z m 8.91406,77.46094 c -0.16016,-0.23438 -0.32422,-0.46875 -0.48047,-0.70313 -2.80078,-4.22656 -6.58203,-7.24219 -11.29688,-9.0625 -4.35156,-1.67969 -8.875,-2.47265 -13.52734,-2.60547 -5.11719,-0.14843 -10.17969,0.23047 -15.15234,1.49219 -2.58203,0.65625 -5.11328,1.46875 -7.44532,2.8125 -0.6875,0.39844 -1.01953,0.84375 -0.96484,1.6875 0.11719,1.89844 0.13281,3.80078 0.17969,5.69922 0.0312,1.21094 0.0312,1.23828 1.25781,0.98047 2.42578,-0.51563 4.84766,-1.04297 7.26172,-1.59766 6.96484,-1.61328 13.98437,-2.73828 21.17187,-2.28906 3.64844,0.22656 7.23047,0.8125 10.64844,2.17578 2.17578,0.86719 2.50781,1.37891 2.4336,3.71875 -0.0117,0.42969 -0.0937,0.84375 -0.25391,1.23438 -0.17578,0.4414 -0.16406,0.64062 0.41406,0.63671 4.4375,-0.0195 8.875,-0.0195 13.3125,0 0.53516,0 0.67578,-0.18359 0.64453,-0.6875 -0.0742,-1.29296 -0.0703,-2.58593 -0.17187,-3.875 -0.0391,-0.5039 0.125,-0.6875 0.55469,-0.85546 3.14453,-1.22266 6.40234,-1.96875 9.74609,-2.33204 6.74219,-0.73046 13.4375,-0.24609 20.10547,0.84766 3.91015,0.64063 7.74219,1.61719 11.55859,2.65234 0.4961,0.13282 0.69922,0.0859 0.73047,-0.48437 0.10547,-1.82031 0.36328,-3.62891 0.78516,-5.39453 0.21484,-0.90625 -0.0899,-1.28906 -0.84766,-1.63281 -2.94531,-1.33985 -6.00781,-2.29297 -9.19531,-2.81641 -5.76953,-0.95313 -11.51953,-0.71484 -17.22656,0.49219 -5.50391,1.16015 -10.63282,3.21875 -15.22266,6.52734 -1.15234,0.82813 -2.21875,1.76563 -3.32031,2.65625 1.55859,-1.89453 3.4375,-3.41797 5.53906,-4.65625 5.32812,-3.14062 11.09766,-4.94141 17.21875,-5.72266 6.89844,-0.88281 13.63281,-0.32421 20.17969,2.11719 0.15234,0.0547 0.3164,0.26953 0.55078,0.0273 -0.34766,-0.16797 -0.67188,-0.33985 -1.00781,-0.48438 -3.53907,-1.54297 -7.27735,-2.28515 -11.08204,-2.74609 -6.37109,-0.76563 -12.69921,-0.65625 -18.9375,0.98437 -5.99609,1.57422 -10.98437,4.67578 -14.63671,9.77344 -0.69141,0.96094 -1.24219,2 -1.8711,3.13281 -0.85937,-1.82031 -1.75781,-3.48437 -2.64844,-5.15234 -1.6914,-3.16016 -4.14062,-5.58594 -7.14062,-7.46875 -4.68359,-2.93359 -9.84375,-4.39453 -15.33594,-4.70313 -2.82422,-0.16015 -5.6289,0.0508 -8.39453,0.71485 10.01953,-0.89063 19.33594,0.71094 27.19922,7.5 -0.16406,0.0469 -0.28125,-0.0508 -0.41406,-0.0977 -0.13672,-0.0508 -0.23438,-0.30859 -0.45313,-0.10547 2.51953,2.05078 4.53125,4.46485 5.53516,7.60938 z M 431.92969,33.367188 c -2.22266,0.652343 -3.27735,2.109374 -3.65625,4.136718 -0.043,0.238282 -0.0625,0.421875 -0.41407,0.441406 -1.89453,0.105469 -3.89453,-1.148437 -4.58203,-2.929687 -0.20703,-0.535156 -0.375,-1.085937 -0.62109,-1.796875 -0.55469,1.984375 -0.57813,3.800781 -0.34766,5.617188 0.41407,3.226562 1.21485,6.296874 2.91407,9.164062 2.26171,3.808594 5.12109,6.882812 9.1875,8.734375 0.71093,0.320313 1.4375,0.640625 2.3125,0.648437 -0.8086,-1.746093 -1.48438,-3.476562 -1.92188,-5.300781 -1.60156,-6.730469 -0.0859,-12.617187 4.85547,-17.5 2.09375,-2.070312 4.54297,-3.621093 7.60937,-3.855469 1.44532,-0.109374 2.80079,0.296876 4.15235,0.789063 -0.16016,-0.222656 -0.33985,-0.394531 -0.53125,-0.5625 -0.21875,-0.199219 -0.36719,-0.441406 -0.48047,-0.714844 -2.13672,-5.171875 -5.94531,-8.464843 -11.29688,-10.011719 -0.2539,-0.07422 -0.51562,-0.117187 -0.77734,-0.15625 -0.22266,-0.03516 -0.45312,-0.05078 -0.67969,-0.07422 1.7461,0.542968 2.57813,1.753906 2.73828,3.464844 0.16407,1.71875 -0.25781,3.347656 -0.90625,4.929687 -0.19921,0.488281 -0.36328,0.347656 -0.63281,0.03906 -1.0039,-1.144532 -2.21875,-1.917969 -3.76953,-2.132813 -0.52344,-0.07031 -1.20312,0.332031 -1.53906,-0.210937 -0.26953,-0.441407 -0.26563,-1.0625 -0.35547,-1.605469 -0.0469,-0.3125 -0.0156,-0.636719 -0.0508,-0.949219 -0.13281,-1.160156 0.34375,-2.046875 1.21875,-2.765625 0.29297,-0.242187 0.5625,-0.515625 0.99219,-0.910156 -1.83594,-0.04297 -3.40235,0.203125 -4.91016,0.777343 -2.39453,0.914063 -4.45703,2.285157 -5.875,4.480469 -0.52344,0.8125 -0.83984,1.699219 -0.95313,2.859375 0.73438,-0.855468 1.33594,-1.546875 2.16016,-2.003906 0.89453,-0.492188 1.80078,-0.542969 2.73828,-0.15625 0.64453,0.269531 0.86719,0.757812 0.69141,1.40625 -0.1875,0.6875 -0.70313,0.785156 -1.3125,0.640625 -0.4375,-0.101563 -0.8711,-0.226563 -1.3086,-0.320313 -0.25,-0.05078 -0.61718,-0.292968 -0.67968,0.199219 -0.0469,0.378907 -0.11719,0.816407 0.51562,0.84375 0.41797,0.01563 0.85156,0.05859 1.21875,0.296875 0.56641,0.363282 0.55469,0.84375 -0.043,1.140625 -0.55078,0.273438 -1.13672,0.410157 -1.76172,0.3125 -1.23437,-0.199219 -1.72265,-1.136719 -1.17968,-2.269531 0.53515,-1.128906 1.57422,-1.394531 2.66797,-1.5625 0.34375,-0.05078 0.69531,-0.05078 0.9375,-0.367188 -1.26172,-0.199218 -2.36719,0.136719 -3.28907,1.023438 -1.23437,1.1875 -2.20312,4.023438 -1.84375,5.414062 0.71485,-0.640624 1.38282,-1.351562 2.37891,-1.492187 2.46484,-0.355469 4.44141,0.679687 6.43359,2.285156 z m 55.13281,-13.1875 c -0.0937,-0.214844 -0.24219,-0.171876 -0.35938,-0.183594 -2.97656,-0.296875 -5.78515,0.253906 -8.36718,1.773437 -3.59375,2.117188 -6.03516,5.296875 -8.0625,8.847657 -0.31641,0.554687 -0.16016,0.777343 0.44531,0.742187 0.23828,-0.01172 0.47266,-0.03516 0.71094,-0.06641 3.34765,-0.4375 6.28906,0.488281 8.74218,2.789062 2.42579,2.277344 4.20313,5.019531 5.23047,8.1875 1.02344,3.152344 0.75,6.359375 0.10157,9.546875 -0.38672,1.902344 -1,3.738282 -1.79297,5.542969 0.40234,0.07422 0.68359,-0.08594 0.96484,-0.207031 3.51563,-1.5 6.33594,-3.855469 8.55078,-6.949219 0.46094,-0.648437 0.75391,-1.386719 0.9961,-2.144531 0.14453,-0.464844 0.13671,-0.765625 -0.375,-1.015625 -0.49219,-0.242188 -0.75391,-0.164063 -1.01172,0.292969 -0.1836,0.316406 -0.44141,0.589843 -0.77344,0.78125 -1.13281,0.652343 -1.75781,0.378906 -2.01563,-0.882813 -0.18359,-0.914063 -0.71093,-1.421875 -1.64843,-1.550781 -0.6836,-0.09375 -1.36719,-0.101563 -2.03907,0.4375 0.44532,-2.117188 3.94532,-2.984375 5.6211,-2.308594 0.96484,0.390625 1.4414,1.105469 1.66015,2.050781 0.14063,0.601563 0.6836,0.691407 1.11329,0.90625 0.3164,0.15625 0.40234,-0.1875 0.48437,-0.378906 1.59766,-3.617187 2.57813,-7.363281 2.39063,-11.351563 -0.043,-0.890624 -0.58594,-2.1875 -1.07422,-2.714843 0.26562,1.359375 0.0508,2.609375 -0.66407,3.753906 -0.48046,0.769531 -1.14843,1.332031 -2.09765,1.382813 -1.64453,0.08984 -3.05078,-0.585938 -4.51172,-1.441407 1.58984,-0.253906 1.74609,-0.589843 1.03516,-1.933593 -0.34766,-0.65625 -0.83204,-1.214844 -1.29688,-1.789063 -0.24219,-0.292969 -0.58594,-0.542969 -0.72656,-1.128906 2.08203,1.609375 3.71875,3.410156 5.39453,5.191406 -0.0625,-0.917969 -0.92578,-1.292969 -1.37891,-1.9375 -0.5,-0.707031 -1.14062,-1.3125 -1.73437,-1.949219 -0.5586,-0.601562 -1.20313,-1.113281 -1.85938,-1.617187 1.50782,-0.136719 2.97266,-0.230469 4.40235,-0.01953 1.41797,0.207031 3.04687,-0.07422 4.13281,1.574218 0.12891,-1.597656 -0.16016,-2.914062 -0.67969,-4.1875 -0.12109,-0.300781 -0.42969,-0.480468 -0.77344,-0.457031 -0.34375,0.01953 -0.33984,0.363281 -0.43359,0.589844 -0.24219,0.570312 -0.5,1.117187 -1.14844,1.328125 -0.47656,0.15625 -0.82422,0.257812 -0.82422,-0.519532 0.008,-1.402343 -1.05859,-2.101562 -2.3164,-1.617187 -0.0625,-0.304687 0.0508,-0.5625 0.21094,-0.808594 0.87109,-1.308593 3.04687,-1.386719 4.0664,-0.144531 0.25781,0.308594 0.41406,0.738281 0.98828,0.820312 -0.19922,-0.425781 -0.35156,-0.808593 -0.54687,-1.167968 -1.5586,-2.917969 -3.78516,-5.050782 -7.08203,-5.871094 -0.53516,-0.132812 -1.08985,-0.320312 -1.60547,0.242188 -0.50781,0.554687 -0.45313,1.105468 -0.17578,1.667968 0.47265,0.96875 0.18359,1.722656 -0.53516,2.40625 -0.34766,0.328125 -0.67578,0.671875 -1.02344,0.996094 -0.33203,0.308594 -0.5664,0.375 -0.9414,-0.07031 -0.76953,-0.914063 -1.30469,-0.890626 -2.17188,-0.03906 -0.94531,0.925781 -1.35547,2.050781 -1.18359,3.375 0.0391,0.289063 0.14062,0.582031 0.0391,0.929687 -1.59375,-1.785156 -1.65234,-4.875 -0.11328,-6.96875 1.10937,-1.511718 2.45312,-2.652343 4.54687,-2.140624 0.64454,0.160156 1.03907,-0.324219 1.51563,-0.589844 z m -2.98438,31.800781 c 2.11329,-4.347657 0.98047,-10.578125 -1.3789,-13.164063 -0.23047,0.324219 -0.0312,0.792969 -0.36328,1.085938 -0.008,-0.882813 0.0469,-1.78125 -0.53516,-2.511719 -1.54687,-1.941406 -3.34766,-3.558594 -5.68359,-4.546875 -3.4375,-1.453125 -6.24219,-0.316406 -8.1211,2.65625 -1.28515,2.03125 -2.38281,4.21875 -3.40234,6.417969 -0.19922,0.425781 -0.30078,0.898437 -0.46484,1.339843 -0.23047,0.621094 -0.0586,1.097657 0.5039,1.410157 0.36328,0.199219 0.49219,0.46875 0.54297,0.871093 0.0391,0.355469 0.22656,0.699219 0.37891,1.03125 0.79687,1.722657 1.54687,3.464844 2.18359,5.257813 1.59766,4.476563 2.66406,9.046875 2.48047,13.84375 -0.0195,0.527344 -0.11719,1.050781 -0.12109,1.574219 0,0.5625 0.30859,0.8125 0.88281,0.691406 0.71094,-0.144531 1.33203,-0.503906 1.92969,-0.882812 5.02343,-3.164063 8.25781,-7.730469 10.40625,-13.183594 0.44531,-1.136719 0.37109,-1.984375 -0.58985,-2.761719 -0.28906,-0.230469 -0.49609,-0.371094 -0.89844,-0.289063 -1.10546,0.21875 -2.07421,-0.08203 -2.89062,-0.894531 -0.78516,-0.78125 -1.37109,-1.683593 -1.69922,-2.730469 -0.43359,-1.371093 -0.57422,-2.753906 0.19141,-4.199218 0.50781,1.746094 1.48047,2.820312 3.24609,3.074218 0.84766,0.121094 1.48438,-0.05859 1.95313,-0.824218 0.42187,-0.695313 0.59765,-0.667969 0.92968,0.09375 0.69922,1.589844 0.56641,3.128906 -0.35547,4.601562 -0.125,0.203125 -0.41796,0.378906 -0.19921,0.691406 0.32812,0.46875 0.57812,1 1.07421,1.34375 z m -64.0039,2.296875 c -4.875,-0.382813 -10.47266,3.292968 -12.27735,5.554687 0.37891,-0.253906 0.62891,-0.433593 0.89063,-0.59375 0.72656,-0.445312 1.50781,-0.601562 2.35156,-0.453125 0.26953,0.04687 0.54688,0.121094 0.60547,0.421875 0.0469,0.261719 -0.17969,0.421875 -0.35937,0.578125 -0.52735,0.453125 -1.15235,0.738282 -1.77344,1.027344 -0.3125,0.144531 -0.58985,0.273438 -0.57422,0.734375 0.0195,0.441406 -0.31641,0.585937 -0.71484,0.445313 -0.32032,-0.113282 -0.6875,-0.214844 -0.91407,-0.445313 -0.49609,-0.511719 -0.86328,-0.300781 -1.2539,0.09375 -2.09375,2.121094 -3.64063,4.570313 -4.45313,7.453125 -0.0937,0.332031 -0.16015,0.65625 0.23047,0.882812 0.11328,-0.183593 0.17969,-0.367187 0.30859,-0.488281 0.63672,-0.613281 1.13282,-1.433593 2.15235,-1.476562 0.22656,-0.01172 0.53515,-0.08984 0.65625,0.148437 0.14453,0.277344 -0.16797,0.453125 -0.29297,0.667969 -0.15625,0.277344 -0.49609,0.273437 -0.73047,0.441406 -0.125,0.08984 -0.30469,0.160157 -0.23437,0.351563 0.0703,0.191406 0.26953,0.167968 0.40625,0.117187 0.35546,-0.140625 0.68359,-0.214843 1.03125,0.04297 0.13671,0.101562 0.29296,-0.05469 0.41015,-0.160156 1.08203,-0.960938 2.25391,-1.8125 3.44922,-2.648438 -0.25,-0.234375 -0.52734,-0.257812 -0.77734,-0.230468 -0.71875,0.07422 -0.83985,-0.433594 -0.91797,-0.933594 -0.0703,-0.464844 0.64844,-1.476563 1.10937,-1.554688 1.07032,-0.179687 2.07032,0.01172 3.01172,0.722656 -1.46094,-0.425781 -1.23437,1.121094 -1.96484,1.597657 7.38281,-4.097657 14.98047,-3.710938 22.75781,-1.214844 -0.0312,-0.886719 -0.44141,-1.640625 -1.05078,-2.125 -0.66406,-0.527344 -1.58984,-0.171875 -2.44531,-0.148437 0.71093,-1.191407 1.04687,-1.296876 2.27734,-0.785157 0.16016,0.06641 0.34375,0.355469 0.49609,-0.0078 0.10547,-0.253907 0.0742,-0.464844 -0.23046,-0.558594 -0.0899,-0.02734 -0.17188,-0.07422 -0.46875,-0.195313 1.38671,0.101563 2.42578,0.398438 2.92968,1.582032 0.39453,0.933594 0.23438,1.753906 -0.8164,2.324218 0.95703,0.40625 1.78125,0.808594 2.64453,1.105469 0.89453,0.308594 1.23828,-0.02734 1.07812,-0.964843 -0.0937,-0.527344 -0.36328,-0.984376 -0.60547,-1.453126 -2.58203,-4.96875 -6.86718,-7.722656 -12.07031,-9.269531 -0.95703,-0.285156 -1.9375,-0.496093 -2.95312,-0.519531 -0.6836,-0.01172 -1.03907,0.492188 -1.36719,0.941406 -0.31641,0.4375 0.24219,0.613282 0.43359,0.882813 0.29297,0.417969 0.50782,0.851562 0.61328,1.355469 0.36329,1.789062 -0.21093,2.46875 -1.99609,2.171874 -0.83203,-0.140624 -1.36328,0.171876 -1.875,0.71875 -0.76172,0.820313 -1.10937,1.824219 -1.27734,2.921876 -0.34375,-0.121094 -0.4961,-0.367188 -0.61328,-0.628907 -0.97266,-2.160156 -0.88282,-4.265625 0.45312,-6.238281 0.63281,-0.933594 1.58984,-1.476562 2.71875,-1.273438 0.91406,0.164063 1.40625,-0.269531 1.99219,-0.917968 z m 12.32422,25.46875 c 1.58984,-2.191406 3.41797,-3.945313 5.64453,-5.285156 0.64844,-0.386719 0.64453,-0.769532 0.0625,-1.230469 -0.35156,-0.277344 -0.71875,-0.550781 -1.11719,-0.746094 -3.78125,-1.886719 -7.69531,-2.1875 -11.64062,-0.679687 -4.46485,1.707031 -6.92579,5.328124 -8.65235,9.558593 -0.11719,0.285157 -0.14844,0.621094 -0.14844,0.933594 -0.0234,3.8125 3.07032,6.460937 6.85938,5.910156 2.72266,-0.394531 4.63672,-2.015625 6.27344,-4.0625 0.94531,-1.179687 1.52734,-2.535156 1.69531,-4.03125 0.16406,-1.507812 0.008,-2.960937 -1.20313,-4.199219 1.32422,0.3125 1.38672,0.425782 2.22657,3.832032 z m 33,-18.71875 c -0.0469,-4.820313 -0.67188,-8.574219 -2.01953,-12.191406 -0.20313,-0.546876 -0.34766,-1.269532 -1.08985,-1.308594 -0.76953,-0.04297 -0.91797,0.710937 -1.15625,1.230468 -1.14844,2.488282 -2.13672,5.039063 -2.88281,7.683594 -1.41797,5.046875 -1.42188,9.972656 1.09375,14.742188 0.89453,1.691406 1.56641,1.820312 2.66797,0.242187 0.77734,-1.121093 1.34375,-2.347656 1.90625,-3.605469 1.125,-2.503906 1.42578,-5.09375 1.48047,-6.792968 z m 26.74609,63.191406 c -5.40234,-0.63281 -10.70703,-0.28906 -15.89062,1.36719 -5.33594,1.70312 -12.44141,6.35547 -13.17579,8.50781 8.09375,-7.80469 18.1836,-9.99609 29.06641,-9.875 z m -11.92969,-75 c -0.69922,-0.695312 -1.24218,-1.398438 -1.74609,-2.132812 -0.51563,-0.753907 -0.9375,-1.554688 -1.25391,-2.414063 -0.0469,1.78125 0.59766,3.261719 1.95313,4.417969 0.26172,0.222656 0.59375,0.324218 1.04687,0.128906 z m -44.88281,34.410156 c 0.76953,2.457032 2.60547,3.207032 5.6875,2.667969 -2.20312,-0.230469 -4.27344,-0.738281 -5.6875,-2.667969 z m -20.4375,-22.332031 c 0.0156,-0.105469 0.0234,-0.207031 0.0469,-0.308594 0.32812,-1.410156 0.30078,-2.964843 1.59375,-3.988281 0.10937,-0.08594 0.14062,-0.242188 0.0547,-0.359375 -0.082,-0.117187 -0.22656,-0.08984 -0.35937,-0.07031 -0.25781,0.03516 -0.44531,0.175782 -0.58594,0.371094 -0.97656,1.324219 -1.24219,2.785156 -0.75,4.355469 z M 438.11328,21.875 c 1.04297,1.71875 1.19922,3.546875 1.28906,5.382812 0.82422,-1.605468 0.0625,-5.082031 -1.28906,-5.382812 z m 47.70703,61.617188 c -1.0625,1.691406 -2.69531,2.457031 -4.54687,2.875 2.26953,0.191406 4.28125,-0.757813 4.54687,-2.875 z M 484.42187,22.9375 c -1.53906,-0.449219 -3.01171,0.652344 -3.13281,2.296875 0.82031,-1.085937 1.90625,-1.675781 3.13281,-2.296875 z m 21.21875,51.238281 c 1.26172,-0.09766 1.98438,-2.140625 1.60938,-4.171875 -0.1875,0.742188 -0.36328,1.445313 -0.55078,2.144532 -0.1875,0.710937 -0.46094,1.386718 -1.0586,2.027343 z M 426.76953,35.539062 c 1.37891,-0.140624 1.63672,-1.308593 2.38672,-1.90625 -1.09766,0.199219 -1.63281,1.042969 -2.38672,1.90625 z m 92.13281,24.207032 c 0.97266,-0.375 1.01953,-1.265625 1.25,-2.230469 -0.7539,0.660156 -0.95703,1.46875 -1.25,2.230469 z m -117.6289,-0.0039 c -0.44922,-0.707032 -0.66407,-1.558594 -1.35157,-2.105469 0.3086,0.792969 0.26172,1.820312 1.35157,2.105469 z m 93.51562,12.804687 c -0.58203,0.625 -1.05469,1.128906 -1.49609,1.605469 0.89062,-0.0625 1.36328,-0.496094 1.49609,-1.605469 z m -84.48047,-12.84375 c -0.53125,-0.28125 -0.94922,-0.363281 -1.33984,-0.03125 -0.26953,0.226563 -0.14453,0.5 0.0156,0.804687 0.41016,-0.242187 0.8086,-0.472656 1.32422,-0.773437 z m 100.96875,5.488281 c -0.1875,-0.148437 -0.0117,-0.671875 -0.54297,-0.632812 -0.15625,0.01172 -0.45703,0.04297 -0.39453,0.265625 0.0977,0.34375 0.28125,0.707031 0.65235,0.824219 0.21484,0.06641 0.28906,-0.164063 0.28515,-0.457032 z m -1.41406,-5.617187 c 0.0352,0.07422 0.0625,0.179687 0.125,0.253906 0.29297,0.335937 0.66406,0.484375 1.10938,0.390625 0.0391,-0.0078 0.10546,-0.136719 0.0859,-0.167969 -0.20312,-0.375 -0.55468,-0.523437 -0.94922,-0.585937 -0.12109,-0.01953 -0.25781,-0.03906 -0.37109,0.109375 z m -69.65234,-20.5 c 0.49218,0.347656 0.97656,0.253906 1.4375,0.25 0.19531,-0.0039 0.36328,-0.1875 0.28125,-0.382813 -0.0547,-0.125 -0.26953,-0.40625 -0.39844,-0.238281 -0.34766,0.453125 -0.83984,0.203125 -1.32031,0.371094 z m 51.03125,6.480469 c 0.0351,-0.789063 -0.32813,-1.023438 -1.34766,-0.890626 0.45703,0.300782 0.85547,0.566407 1.34766,0.890626 z M 408.75391,65.125 c 0.0156,0.183594 -0.0664,0.484375 0.22265,0.472656 0.27735,-0.0078 0.40625,-0.273437 0.4336,-0.554687 0.0234,-0.21875 -0.0742,-0.363281 -0.28125,-0.386719 -0.33985,-0.04297 -0.33985,0.226562 -0.375,0.46875 z m 0,0"
         fill-opacity="1"
         fill-rule="nonzero"
         id="path8" />
    </g>
    <path
       fill="#e6e3dd"
       d="m 267.54963,45.732845 c -2.73047,0 -5.4871,0.195691 -8.20454,-0.02606 -8.08697,-0.665575 -13.66555,-6.05532 -14.61924,-14.107313 -0.40501,-3.419154 -0.35273,-6.851388 0.28731,-10.270543 1.28034,-6.916635 5.04293,-11.314544 10.62148,-12.3455167 6.25795,-1.1614672 13.28668,1.9705907 16.43524,7.6865947 1.2542,2.283771 2.8742,3.758468 5.13437,4.972128 6.49311,3.484427 9.60247,9.409227 8.32213,15.294889 -1.07129,4.906882 -5.02984,8.378253 -10.04663,8.639242 -2.63904,0.143573 -5.29116,0.02606 -7.93022,0.02606 V 45.7459 Z m 0,0"
       fill-opacity="1"
       fill-rule="nonzero"
       id="path9"
       style="stroke-width:3.34269" />
    <path
       fill="#e6e3dd"
       d="m 85.599389,280.25869 c -0.261199,5.25925 -0.587893,10.17919 -1.698385,15.00779 -0.705487,3.05376 -0.731599,3.05376 -3.200815,1.26586 -4.690201,-3.39305 -9.798426,-5.87261 -15.507637,-7.08627 -2.808903,-0.6003 -5.617781,-0.75693 -8.387452,-0.0391 -1.85516,0.46981 -2.508397,-0.19569 -2.88729,-1.87923 -1.03208,-4.65893 -1.763705,-9.33093 -1.763705,-14.12035 0,-2.40126 0.614031,-4.5154 1.946617,-6.45988 2.364691,-3.43221 5.173593,-6.47291 8.021652,-9.48753 0.731624,-0.76996 1.476317,-0.82215 2.37776,-0.70471 3.762595,0.48286 7.499028,1.13538 11.039555,2.5187 6.571473,2.57089 8.583408,8.18251 9.497919,14.44663 0.339687,2.25769 0.391962,4.56757 0.561781,6.53816 z m -4.441919,12.04537 c 0.470299,-6.38156 0.444186,-12.68483 -0.810012,-18.92284 -0.561781,-2.76666 -1.672273,-5.18095 -4.154557,-6.74698 -0.614006,-0.39151 -1.29338,-0.69166 -1.90741,-0.0521 -0.718581,0.75693 -0.07826,1.39638 0.40498,1.80094 2.521491,2.04889 3.161634,4.9069 3.658096,7.90844 0.888399,5.35061 1.868254,10.67511 2.808903,16.02571 z m 0,0"
       fill-opacity="1"
       fill-rule="nonzero"
       id="path10"
       style="stroke-width:3.34269" />
    <path
       fill="#e6e3dd"
       d="m 421.73767,297.52417 c 5.51323,-5.91177 5.18664,-12.8023 4.86002,-19.73196 -0.16982,-3.34088 -0.45728,-6.69479 0.28729,-10.00953 1.50243,-6.64259 8.25681,-10.19224 14.55392,-7.66051 10.96119,4.41099 15.63827,16.49552 10.19039,26.34844 -0.37887,0.69166 -0.83615,1.35724 -1.35873,1.94448 -0.82308,0.95268 -1.50243,2.21855 -2.74358,0.11752 -1.04518,-1.78788 -2.57372,-0.46981 -3.63194,0.27404 -3.10935,2.17939 -6.28406,4.25439 -9.74617,5.83347 -3.77564,1.70958 -7.62972,3.06681 -12.41132,2.8841 z m 8.23066,-11.36676 c 3.22697,-6.68173 0.86228,-14.64237 5.21279,-21.03698 -5.08211,2.61003 -6.03585,6.53816 -5.21279,21.03698 z m 0,0"
       fill-opacity="1"
       fill-rule="nonzero"
       id="path11"
       style="stroke-width:3.34269" />
    <path
       fill="#e6e3dd"
       d="m 136.13315,83.017383 c -2.54758,2.375127 -5.12129,4.345717 -9.02762,3.784553 -4.57261,-0.66555 -8.40052,-2.466483 -11.52297,-5.846499 -4.78161,-5.167895 -9.02757,-15.229617 -9.19744,-22.028812 1.60693,0.587273 3.09631,1.174546 4.62488,1.683493 5.89213,1.918373 11.47065,1.148413 16.73567,-2.048892 1.65923,-1.004864 1.80294,-1.31807 2.09035,-3.536619 2.6521,1.331125 4.41583,3.497481 6.08811,5.716005 0.90146,1.187576 1.55468,2.557864 2.35162,3.823716 3.42291,5.572456 3.39679,10.923063 -0.88838,16.077903 -0.58794,0.704713 -1.39792,1.383342 -1.35872,2.466508 0.0125,0 0.10435,-0.09146 0.10435,-0.09146 z m -9.38035,-2.531755 c -6.41472,-1.74874 -10.60846,-6.459856 -15.29861,-11.679968 2.99176,8.143349 9.32807,12.906707 15.29861,11.679968 z m 0,0"
       fill-opacity="1"
       fill-rule="nonzero"
       id="path12"
       style="stroke-width:3.34269" />
    <path
       fill="#e6e3dd"
       d="m 372.9415,84.713906 c -0.84917,-1.044028 -1.68531,-2.074976 -2.52144,-3.119003 -0.84922,-2.166332 -2.71742,-3.654059 -3.86712,-5.624649 -0.60096,-1.030973 -1.07131,-1.996699 -0.95372,-3.197305 0.65322,-6.851388 3.2923,-12.697887 8.59648,-17.252424 3.89326,6.290223 11.6144,8.378253 20.05413,5.559402 2.09032,-0.704713 3.94548,-1.840097 5.95744,-2.871045 -0.53566,10.100886 -7.7473,24.7302 -17.42814,27.288038 -3.37065,0.887425 -6.72824,1.566029 -9.83763,-0.783014 z m 8.36132,-5.011292 c 5.46103,2.818852 14.34492,-7.060184 15.99103,-13.898492 -4.82079,5.624649 -9.07985,11.236243 -15.99103,13.898492 z m 0,0"
       fill-opacity="1"
       fill-rule="nonzero"
       id="path13"
       style="stroke-width:3.34269" />
    <path
       fill="#e6e3dd"
       d="m 164.03909,33.596123 c 0,1.657384 -0.0125,2.610056 0,3.562703 0.0913,8.260814 7.18548,12.423844 14.25342,8.195567 2.05116,-1.213685 2.6913,-0.887425 3.2792,1.239768 1.33258,4.698086 1.73759,9.357009 -0.41808,13.911547 -3.10933,6.57732 -10.17729,8.469609 -16.13473,4.280495 -4.7555,-3.366962 -7.42067,-7.960663 -7.26389,-13.898517 0.16981,-6.198868 1.68534,-11.940957 6.28408,-17.291563 z m -1.48938,8.299952 c -0.24808,0.01253 -0.50951,0.02606 -0.77083,0.03909 0,2.662224 -0.0268,5.311443 0.0125,7.973692 0.0391,2.009729 0.20895,4.032512 0.86223,5.963939 0.92761,2.714466 2.53456,3.71933 4.93844,3.17122 -4.87312,-4.750279 -2.70438,-11.627775 -5.04294,-17.148014 z m 0,0"
       fill-opacity="1"
       fill-rule="nonzero"
       id="path14"
       style="stroke-width:3.34269" />
    <path
       fill="#e6e3dd"
       d="m 346.83852,39.259935 c 0.15678,4.319608 -0.0522,7.921474 -0.64017,11.497257 -0.58791,3.61492 -3.09631,6.198867 -5.35648,9.200406 4.2721,-0.717768 7.27696,-4.384881 7.65583,-9.082967 0.43114,-5.37669 -0.0913,-10.714242 -0.95372,-16.14315 8.15229,8.430471 6.5715,24.182114 -2.92647,30.028613 -7.68194,4.73725 -15.66438,0.926563 -16.74876,-8.038939 -0.4703,-4.019482 0.1959,-7.895415 1.77679,-11.64083 0.53565,-1.226714 0.91451,-1.86618 2.36467,-0.76996 1.62002,1.226714 3.65809,1.683494 5.6831,2.022783 4.10226,0.704713 6.7805,-1.21366 9.14521,-7.073213 z m 0,0"
       fill-opacity="1"
       fill-rule="nonzero"
       id="path15"
       style="stroke-width:3.34269" />
    <path
       fill="#e6e3dd"
       d="m 120.14212,129.13693 c -4.42887,-1.97059 -8.92309,-1.89229 -13.67861,-1.16147 -8.309043,1.25282 -12.620375,-2.72749 -12.424394,-11.13186 0.169818,-7.12543 3.017902,-12.82838 9.667764,-16.913107 0,1.396367 -0.0391,2.335987 0.0125,3.262547 0.20895,3.98032 2.07725,7.008 5.35648,9.22652 1.30648,0.88742 2.6521,1.77485 3.82792,2.81885 2.75662,2.42735 3.30531,4.68506 1.67224,7.9998 -0.78385,1.61825 -0.44418,2.19244 1.05825,2.91021 1.60695,0.76996 3.43597,1.34418 4.4681,3.0407 z M 102.518,121.61999 c -1.21499,-2.46651 -2.18178,-4.77639 -3.854027,-6.91663 -0.770831,4.71114 0.287286,6.62951 3.854027,6.91663 z m 0,0"
       fill-opacity="1"
       fill-rule="nonzero"
       id="path16"
       style="stroke-width:3.34269" />
    <path
       fill="#e6e3dd"
       d="m 231.7266,13.355189 c -1.98582,4.567592 -0.41807,7.738788 2.2471,10.622912 1.50243,1.618221 2.97872,3.249497 4.48115,4.854689 0.6271,0.652495 1.00597,1.435509 2.2863,0.469808 1.12356,-0.848261 1.58082,0.522002 1.75066,1.487728 1.0582,5.729059 -3.12245,11.418955 -9.17135,12.528229 -5.57857,1.004865 -10.59537,-2.40126 -11.81036,-8.051993 -1.60695,-7.438636 2.2471,-16.91311 8.59648,-21.102249 0.28728,-0.182662 0.61405,-0.313206 1.62002,-0.809124 z m -2.23405,10.66205 c 1.71148,2.427344 3.39677,4.880798 5.16052,7.268979 0.36578,0.482863 0.86224,1.42248 1.64611,0.822178 0.75776,-0.574219 0.45726,-1.474673 -0.0783,-2.114139 -1.93357,-2.322934 -4.08924,-4.397935 -6.72827,-5.977018 z m 0,0"
       fill-opacity="1"
       fill-rule="nonzero"
       id="path17"
       style="stroke-width:3.34269" />
    <path
       fill="#e6e3dd"
       d="m 210.26152,23.403882 c -3.31841,4.763333 -3.3315,5.872608 0.0268,10.910008 1.48936,2.231579 3.60585,4.215223 2.86115,7.308118 -0.99292,4.228277 -3.25309,7.751842 -6.04887,10.975255 -0.5226,0.613357 -1.18888,0.561164 -1.93357,0.456754 -7.48601,-1.004864 -15.14184,-8.417392 -9.62861,-18.00933 2.78279,-4.841635 6.38859,-8.835008 11.69282,-11.001339 0.94065,-0.391507 1.89434,-0.952672 3.03097,-0.639466 z m -7.45987,10.688158 c -3.89323,3.197305 -4.10228,7.229816 -0.6271,10.635941 -0.14373,-3.549673 -0.22199,-6.916635 0.6271,-10.635941 z m 0,0"
       fill-opacity="1"
       fill-rule="nonzero"
       id="path18"
       style="stroke-width:3.34269" />
    <path
       fill="#e6e3dd"
       d="m 402.10162,99.8783 c 2.57371,1.26585 4.2068,3.07984 5.48714,5.18092 2.3516,3.82375 3.55354,8.01286 3.67111,12.51518 0.10435,4.05865 -1.67227,6.92969 -5.18663,8.79587 -1.00597,0.53505 -2.06416,1.04403 -3.14854,1.35723 -3.84099,1.08317 -7.22471,2.81885 -9.94214,5.89872 1.69839,-2.04889 3.3968,-4.11084 5.48712,-6.62954 -2.59985,0.39151 -4.50729,-0.0391 -6.02278,-1.76177 -2.74356,-3.119 -2.78274,-6.68173 0.13068,-9.67024 1.41098,-1.44856 3.01791,-2.70139 4.46806,-4.12387 3.7626,-3.66711 4.78166,-5.97701 5.056,-11.5625 z m 4.0631,12.12367 c -0.60099,3.31474 -2.22101,6.1597 -4.25906,8.97855 4.10226,-0.10448 5.87906,-3.90201 4.25906,-8.97855 z m 0,0"
       fill-opacity="1"
       fill-rule="nonzero"
       id="path19"
       style="stroke-width:3.34269" />
    <path
       fill="#e6e3dd"
       d="m 304.32641,23.508292 c 7.48599,1.135358 15.92571,10.844736 15.80812,18.33559 -0.10435,6.459856 -5.83985,10.727297 -12.20232,10.596778 -0.70546,-0.01253 -1.12351,-0.378453 -1.47627,-0.926563 -2.12953,-3.262551 -3.98471,-6.655622 -4.88616,-10.479338 -0.44418,-1.86618 -0.10434,-3.39307 1.64614,-4.60673 1.12354,-0.783014 2.05114,-1.957536 2.82195,-3.119003 2.2863,-3.432234 1.95966,-5.807361 -1.08436,-8.600129 -0.31337,-0.287096 -0.82308,-0.378452 -1.22808,-0.54811 0.1959,-0.221749 0.405,-0.443699 0.60098,-0.652495 z m 7.21164,21.532895 c 3.54048,-3.497481 3.61889,-7.9215 0.3658,-10.087831 -0.0652,3.28866 0.37887,6.525103 -0.3658,10.087831 z m 0,0"
       fill-opacity="1"
       fill-rule="nonzero"
       id="path20"
       style="stroke-width:3.34269" />
    <path
       fill="#e6e3dd"
       d="m 385.41817,190.34254 c 1.43711,-0.56114 1.84209,-0.13054 2.20791,0.16963 2.06421,1.67044 4.2852,2.3621 7.02873,2.27075 3.84101,-0.14358 6.75439,1.86618 8.49198,5.2723 2.93954,5.72903 3.33148,11.7713 1.72452,17.95711 -0.35273,1.37029 -1.01903,2.59701 -2.50839,3.43221 -0.70549,-2.59697 -1.62003,-5.01129 -3.25309,-7.09932 -2.57372,-3.30171 -6.7805,-4.84163 -10.76519,-3.54967 -1.54164,0.50897 -1.68532,-0.37846 -2.01194,-1.22672 -1.42404,-3.83677 -0.86226,-7.63437 1.3587,-10.84473 1.78987,-2.58395 1.28034,-4.2022 -0.86223,-5.88567 -0.27427,-0.20872 -0.66631,-0.24805 -1.411,-0.49591 z m 18.49942,20.76294 c 1.18888,-7.08627 -2.29937,-14.1334 -7.30307,-13.8985 4.82079,3.65406 5.76144,8.90026 7.30307,13.8985 z m 0,0"
       fill-opacity="1"
       fill-rule="nonzero"
       id="path21"
       style="stroke-width:3.34269" />
    <path
       fill="#e6e3dd"
       d="m 461.33638,263.07154 c -5.06904,-5.79431 -5.53939,-17.17412 -1.2934,-22.90318 1.52854,-2.07498 3.6842,-3.0407 6.07503,-3.36696 1.89434,-0.24806 2.73047,-1.23977 3.26613,-2.91021 0.5879,-1.82701 1.13661,-3.69322 2.61293,-5.85955 -0.4834,2.47954 -0.75774,4.38488 -1.2542,6.21192 -0.5226,1.93143 -0.18286,3.47134 1.50243,4.61978 3.57968,2.42735 3.46211,5.7682 2.43001,9.40923 -0.5226,1.84007 -1.51548,2.81885 -3.43598,2.10108 -1.39793,-0.53505 -2.19485,0.16963 -2.96568,1.044 -3.00486,3.38002 -6.00972,6.74698 -6.93727,11.64083 z m 0,0"
       fill-opacity="1"
       fill-rule="nonzero"
       id="path22"
       style="stroke-width:3.34269" />
    <path
       fill="#e6e3dd"
       d="m 116.71921,313.66732 c -1.34568,-0.20872 -2.36469,-2.55786 -3.55357,-1.38334 -1.24115,1.21368 0.53562,2.66225 1.11049,3.92812 1.50243,3.36697 2.87418,6.86442 7.27696,7.58219 2.29935,0.37845 4.33745,-0.24806 7.08101,-1.13536 -1.31952,2.08803 -2.74356,2.98851 -4.50729,3.45832 -4.1676,1.13536 -8.06083,-0.0652 -11.75811,-1.7618 -5.64389,-2.58394 -9.98134,-6.57732 -11.90184,-12.68483 -0.914488,-2.91021 -0.32642,-5.62465 1.98582,-7.72573 2.28633,-2.08806 4.97759,-1.40943 7.47294,-0.53506 4.15456,1.46162 7.081,6.04224 6.79359,10.25749 z m 0,0"
       fill-opacity="1"
       fill-rule="nonzero"
       id="path23"
       style="stroke-width:3.34269" />
    <path
       fill="#e6e3dd"
       d="m 34.647602,229.24533 c 0.195906,0.37845 0.496437,0.73079 0.574825,1.13535 0.679374,3.51051 2.220959,6.10752 6.166467,6.76004 1.48936,0.24806 2.469216,1.61821 3.396821,2.80579 5.0037,6.38155 5.134337,15.9996 0.156775,22.86402 -1.110493,-4.30658 -3.25309,-7.85626 -6.427742,-10.76646 -1.306474,-1.20061 -2.612922,-2.36208 -4.664088,-1.68347 -0.731625,0.23478 -1.476267,0.10448 -2.051142,-0.73082 -1.920479,-2.7275 -2.142572,-7.30812 0.02684,-10.11394 2.351597,-3.05375 3.592727,-6.22495 2.821947,-10.27051 z m 10.621481,26.08742 c 0.692418,-1.74874 0.783874,-3.19733 0.117393,-4.63284 -0.431093,-0.93962 -1.397905,-1.38334 -2.181754,-1.03097 -1.280336,0.58725 0.01254,1.30501 0.248081,1.89229 0.470299,1.2006 1.123561,2.34904 1.815979,3.77152 z m 0,0"
       fill-opacity="1"
       fill-rule="nonzero"
       id="path24"
       style="stroke-width:3.34269" />
    <path
       fill="#e6e3dd"
       d="m 386.01915,322.94603 c 1.29338,0.24806 2.22096,0.45675 3.16161,0.58727 5.36955,0.76996 8.296,-0.99183 10.25571,-6.02921 0.4703,-1.20063 1.03208,-2.45345 1.8682,-3.40612 0.6271,-0.69166 1.1497,-1.17453 0.39197,-1.89229 -0.71856,-0.67861 -1.47632,-0.27405 -2.11646,0.30015 -0.56179,0.522 -1.1105,1.07011 -1.65923,1.57908 -0.88838,-0.43067 -0.60094,-1.12233 -0.53562,-1.65738 0.53562,-4.29353 4.72935,-8.86112 8.94923,-9.80074 3.56659,-0.79607 6.48002,1.27893 6.83277,4.91994 0.18287,1.95753 -0.0391,3.86288 -0.94065,5.65076 -3.72341,7.46474 -9.6286,12.03231 -17.93764,13.18075 -3.1355,0.43064 -6.06197,-0.31321 -8.26989,-3.43221 z m 0,0"
       fill-opacity="1"
       fill-rule="nonzero"
       id="path25"
       style="stroke-width:3.34269" />
    <g
       clip-path="url(#5cea4caa01)"
       id="g26"
       transform="matrix(3.3445293,0,0,3.3408614,-1285.0958,7.821897)">
      <path
         fill="#e6e3dd"
         d="m 534.22266,59.023438 c -0.14063,1.136718 -0.75391,2.066406 -1.54688,2.898437 -0.83594,0.875 -1.89844,1.523437 -2.53125,2.59375 -0.13281,0.226563 -0.28125,0.160156 -0.46484,0.08594 -0.51172,-0.203124 -1.05078,-0.351562 -1.54297,-0.597656 -0.57813,-0.289062 -1.10156,-0.441406 -1.63672,0.152344 0.49609,-0.550781 0.46875,-1.160156 0.41797,-1.789062 -0.0469,-0.621094 0.19922,-1.140626 0.67187,-1.535157 0.83594,-0.695312 1.78125,-1.21875 2.78125,-1.640625 0.3086,-0.128906 0.6211,-0.222656 0.85157,0.234375 0.54296,1.074219 1.0664,1.175781 2.02734,0.4375 0.32812,-0.253906 0.63281,-0.542969 0.97266,-0.839843 z m -3.48829,2.328124 c -0.6914,-0.01172 -1.17187,0.160157 -1.60546,0.457032 -0.12891,0.08594 -0.25782,0.210937 -0.14844,0.382812 0.0859,0.128906 0.22656,0.09375 0.35547,0.05078 0.49218,-0.167969 0.91406,-0.449219 1.39843,-0.890626 z m 0,0"
         fill-opacity="1"
         fill-rule="nonzero"
         id="path26" />
    </g>
    <g
       clip-path="url(#f38f0397c2)"
       id="g27"
       transform="matrix(3.3445293,0,0,3.3408614,-1285.0958,7.821897)">
      <path
         fill="#e6e3dd"
         d="m 393.46484,64.484375 c -0.73828,-1.125 -1.57812,-0.636719 -2.35937,-0.222656 -0.74219,0.390625 -1.2461,0.441406 -1.75,-0.421875 -0.50391,-0.859375 -1.45703,-1.355469 -2.16016,-2.070313 -0.8789,-0.890625 -1.32422,-1.699219 -1.42578,-2.8125 0.52734,0.664063 1.04297,1.140625 1.75781,1.34375 0.81641,0.226563 1.14844,0.101563 1.33594,-0.726562 0.13281,-0.605469 0.375,-0.65625 0.85156,-0.402344 0.57813,0.3125 1.17578,0.585937 1.74219,0.917969 1.05859,0.613281 1.69531,1.492187 1.57422,2.777344 -0.0547,0.570312 0.15625,1.0625 0.43359,1.617187 z m -4.40234,-3.144531 c 0.58203,0.339844 0.97656,0.582031 1.38281,0.800781 0.15625,0.08203 0.38281,0.210937 0.4961,0.01172 0.14453,-0.25 -0.1211,-0.367188 -0.28907,-0.46875 -0.41015,-0.25 -0.85547,-0.382813 -1.58984,-0.343751 z m 0,0"
         fill-opacity="1"
         fill-rule="nonzero"
         id="path27" />
    </g>
    <path
       fill="#e6e3dd"
       d="m 94.77074,238.15863 c -0.914536,3.1973 0.30033,5.4811 2.325485,7.54302 1.763704,1.7879 3.422905,3.09292 5.604685,0.50897 0.75774,-0.91351 1.93357,-1.08316 2.82195,-0.19569 4.62485,4.61978 6.06197,8.46961 0.60098,12.99804 -1.43711,1.20063 -3.0179,1.21368 -4.72938,1.00486 -8.818567,-1.13536 -14.344917,-12.85449 -9.328123,-19.86245 0.587943,-0.83521 1.123561,-1.82704 2.704403,-1.9967 z m 0.992874,11.26235 c -1.267242,-2.33599 -2.247072,-4.77639 -3.475158,-7.54305 -0.391937,4.00643 0.823055,6.68173 3.475158,7.54305 z m 0,0"
       fill-opacity="1"
       fill-rule="nonzero"
       id="path28"
       style="stroke-width:3.34269" />
    <path
       fill="#e6e3dd"
       d="m 353.76273,306.51578 c 2.05114,0.13054 3.72341,-0.96573 5.47407,-1.72263 1.82902,-0.78302 3.54048,-1.05708 5.1605,0.37845 1.51547,1.34418 1.99887,2.98851 1.54159,4.98518 -1.50243,6.69479 -4.83389,11.88879 -11.75809,13.98988 -3.81487,1.16147 -7.27696,-0.16963 -9.35424,-3.36696 0,0 -0.0391,0.0521 -0.0391,0.0521 5.35648,0.0521 8.08697,-2.00975 8.98841,-7.04713 0.41808,-2.41429 0.30069,-4.88079 0.0783,-7.33425 z m 1.6592,12.55434 c 1.62002,0.3132 2.83502,0.48284 3.57968,-0.82218 0.24808,-0.4437 0.15678,-1.20063 -0.44418,-1.27893 -1.39793,-0.18266 -2.03808,0.93962 -3.1355,2.10111 z m 0,0"
       fill-opacity="1"
       fill-rule="nonzero"
       id="path29"
       style="stroke-width:3.34269" />
    <path
       fill="#e6e3dd"
       d="m 393.93628,287.80174 c -4.74245,-0.80913 -8.70102,0.8352 -12.45055,3.4061 -0.14373,0.50897 0.44419,0.58727 0.70551,0.87437 0.74464,0.82218 2.19485,1.37029 1.75066,2.68836 -0.43114,1.30501 -1.89439,1.52686 -3.10938,1.56602 -3.22698,0.13055 -6.33631,-0.33931 -8.91003,-2.57089 -3.33148,-2.87107 -3.26616,-6.59037 0.37887,-9.05688 4.37663,-2.9624 9.21051,-3.1712 14.17505,-1.63128 2.86115,0.87437 5.40873,2.27074 7.47292,4.7242 z m -13.33892,4.76333 c 0.53564,-1.84007 0.24808,-3.52356 -0.83613,-4.97213 -0.40503,-0.53508 -2.11648,-0.0784 -3.65807,0.87435 2.36467,0.52202 3.97162,1.72263 4.4942,4.09778 z m 0,0"
       fill-opacity="1"
       fill-rule="nonzero"
       id="path30"
       style="stroke-width:3.34269" />
    <path
       fill="#e6e3dd"
       d="m 77.355668,195.96722 c 1.175811,-1.7618 0.953692,-3.49748 0.666305,-5.53332 -0.444237,-3.0929 1.646111,-5.45499 4.33742,-6.94272 3.435952,-1.90534 7.211641,-3.28866 9.563263,-6.74698 0.718556,-1.07011 1.097424,-0.16963 1.489361,0.39151 4.520332,6.61646 0.30033,15.67334 -7.773422,16.66515 -0.705486,0.0784 -1.410998,0.0915 -2.11646,0.0915 -2.403872,0 -4.468082,0.69165 -6.166467,2.07497 z m 0,0"
       fill-opacity="1"
       fill-rule="nonzero"
       id="path31"
       style="stroke-width:3.34269" />
    <path
       fill="#e6e3dd"
       d="m 413.95118,176.60065 c 2.54761,3.05376 5.65696,4.94605 9.02762,6.53816 4.46808,2.10111 5.5263,4.22828 4.99068,9.10908 -0.13068,1.30501 0.87533,2.25768 1.20193,4.20216 -1.75064,-2.42734 -3.6581,-2.94934 -5.90517,-2.57089 -7.52519,1.26588 -15.71669,-8.37825 -10.15118,-15.50368 0.35273,-0.4437 0.50953,-1.04403 0.83612,-1.77483 z m 0,0"
       fill-opacity="1"
       fill-rule="nonzero"
       id="path32"
       style="stroke-width:3.34269" />
    <path
       fill="#e6e3dd"
       d="m 295.9128,47.024807 c 2.41696,2.19244 3.24002,4.580646 3.44904,7.295087 0.45728,5.768223 -1.65918,10.505447 -5.70921,14.459682 -1.61997,1.579058 -3.42291,2.074976 -5.44789,0.652495 -1.31956,-0.926562 -2.67826,-1.748715 -3.71037,0.783015 0.49647,-1.996674 0.10435,-3.588812 -0.0522,-5.220088 -0.33969,-3.797632 1.67227,-6.720869 3.95855,-9.474473 0.27427,-0.339315 0.49646,-0.495918 1.04517,-0.469809 6.20568,0.339315 7.96938,-1.683493 6.48002,-8.025909 z m 2.06421,8.808924 c -1.67225,2.975454 -3.25309,6.068348 -6.29711,8.051993 -0.31337,0.20872 -0.49646,0.600328 -0.27424,0.900479 0.40498,0.54811 0.88837,0.261013 1.37174,0 3.50132,-1.879234 4.93843,-4.998237 5.19971,-8.952472 z m 0,0"
       fill-opacity="1"
       fill-rule="nonzero"
       id="path33"
       style="stroke-width:3.34269" />
    <path
       fill="#e6e3dd"
       d="m 121.68373,238.69368 c 3.16164,4.77639 3.08325,7.62135 -0.26122,10.127 -3.01793,2.25768 -8.57034,1.84007 -11.27475,-0.80913 -1.09739,-1.05708 -1.16271,-2.2316 -0.83612,-3.61492 1.2542,-5.46804 7.79959,-10.55763 14.08362,-10.51849 -2.27326,1.30504 -1.90743,3.11903 -1.63307,4.9069 -3.29227,-0.66558 -5.64389,0.3654 -6.46694,2.8058 -0.23504,0.69165 -0.41808,1.37026 0.22199,1.91837 0.23504,0.20872 0.67937,0.43067 0.87533,0.33931 0.7708,-0.33931 0.82308,-1.12233 0.71858,-1.78787 -0.28731,-1.95754 0.91449,-2.3621 2.45612,-2.59701 0.7316,-0.11751 1.85516,0.66558 2.11644,-0.76996 z m 0,0"
       fill-opacity="1"
       fill-rule="nonzero"
       id="path34"
       style="stroke-width:3.34269" />
    <path
       fill="#e6e3dd"
       d="m 93.699454,153.24072 c 4.729357,-2.41429 8.073876,-1.61823 10.948076,2.47953 5.27809,7.50391 1.94661,18.42695 -7.276962,22.52473 2.273235,-2.3099 3.527432,-4.63284 3.827912,-7.42558 0.35276,-3.23647 -0.31337,-4.37183 -3.357562,-5.716 -0.731625,-0.32629 -2.142623,-0.28713 -1.228086,-1.86621 3.514368,-6.01616 3.383727,-6.4468 -2.926472,-9.99647 z m 0,0"
       fill-opacity="1"
       fill-rule="nonzero"
       id="path35"
       style="stroke-width:3.34269" />
    <path
       fill="#e6e3dd"
       d="m 216.98977,48.238491 c 0.23504,1.017919 0.37887,1.931427 0.64014,2.818852 1.05824,3.562703 4.0239,4.789442 7.13328,2.818852 0.56176,-0.352369 0.61403,-0.482863 1.0974,0.02606 4.58565,4.893828 3.97164,11.340654 -0.24808,14.146451 -1.42404,0.952672 -2.43001,0.704713 -3.59275,0.234779 -6.75439,-2.688357 -9.68086,-14.120367 -5.02984,-20.045167 z m -0.90144,4.750279 c -0.9015,5.376715 1.8682,10.192241 6.00966,10.126994 -3.80177,-2.531755 -5.06901,-6.211922 -6.00966,-10.126994 z m 0,0"
       fill-opacity="1"
       fill-rule="nonzero"
       id="path36"
       style="stroke-width:3.34269" />
    <path
       fill="#e6e3dd"
       d="m 168.37651,322.22826 c -3.84101,3.09292 -7.6036,2.8841 -11.31392,0.67863 -4.86002,-2.89715 -6.79357,-7.64746 -7.77342,-12.90671 -0.15678,-0.79604 -0.0783,-1.74871 0.70551,-2.12717 2.10336,-1.01791 1.03208,-2.06194 0.18286,-3.21035 -0.71853,-0.96573 -1.31952,-2.02281 -2.11646,-3.23647 1.30647,0.1566 1.52857,1.08316 1.9205,1.70957 1.55468,2.4926 3.57969,4.35878 6.51923,4.9591 2.16873,0.4437 2.01193,2.23158 2.26016,3.69323 0.71853,4.2413 2.52147,7.67354 6.68907,9.43531 0.86224,0.35237 1.77677,0.61335 2.92645,0.99181 z m -12.4636,-6.18581 c -0.30068,3.14511 0.2612,3.71933 3.05711,3.2756 -0.67935,-1.30501 -1.75066,-2.11414 -3.05711,-3.2756 z m 0,0"
       fill-opacity="1"
       fill-rule="nonzero"
       id="path37"
       style="stroke-width:3.34269" />
    <path
       fill="#e6e3dd"
       d="m 408.28118,177.54027 c -7.82567,-4.04557 -10.97424,-13.4026 -7.43376,-20.46278 2.63906,-5.28534 7.2378,-6.72087 12.21539,-3.57576 -1.28036,0.69166 -2.58679,1.07011 -3.60585,1.99667 -2.46919,2.21855 -2.78274,3.73239 -0.67932,6.31634 1.29338,1.59211 1.65918,2.33598 -0.71858,3.1973 -3.07018,1.09622 -3.73643,2.81885 -3.0179,6.0814 0.48339,2.17939 1.43711,4.14998 3.24002,6.44683 z m 0,0"
       fill-opacity="1"
       fill-rule="nonzero"
       id="path38"
       style="stroke-width:3.34269" />
    <path
       fill="#e6e3dd"
       d="m 351.45029,213.48063 c -2.71743,0.70471 -4.66404,1.46162 -5.70922,3.51051 -0.45725,0.88742 -0.81001,2.00973 0.5226,2.40123 1.37179,0.40457 0.96676,-0.9135 1.08436,-1.53992 0.31337,-1.90534 1.60695,-2.63614 3.2792,-2.9102 3.10938,-0.522 5.80067,0.70471 7.53823,3.62797 -1.52854,-0.20872 -2.83499,-0.39151 -4.1545,-0.56116 -2.1426,-0.27405 -3.69728,0.23478 -4.48115,2.58394 -0.70547,2.0489 -2.12953,3.60187 -4.48115,4.03254 -1.48934,0.27404 -2.84806,0.18266 -3.90631,-0.93962 -1.17581,-1.26587 -0.87533,-2.81885 -0.3658,-4.22827 1.31952,-3.68017 5.10825,-5.89872 10.67374,-5.97702 z m 0,0"
       fill-opacity="1"
       fill-rule="nonzero"
       id="path39"
       style="stroke-width:3.34269" />
    <path
       fill="#e6e3dd"
       d="m 378.67688,253.02285 c 2.44307,-0.40457 4.20678,1.07011 6.06194,2.17938 2.80888,1.6835 2.88726,2.53176 0.71855,4.8025 -0.30035,0.32626 -0.61403,0.66555 -0.79694,1.04403 -0.87533,1.78787 -1.95968,1.77482 -3.2792,0.48283 -1.63307,-1.60516 -3.34455,-3.14511 -4.52033,-5.14178 -0.5226,-0.87437 -1.69839,-1.74874 -1.09745,-2.77972 0.56178,-0.97875 1.94661,-0.35234 2.91343,-0.58724 z m 0,0"
       fill-opacity="1"
       fill-rule="nonzero"
       id="path40"
       style="stroke-width:3.34269" />
    <path
       fill="#e6e3dd"
       d="m 427.94335,245.96266 c -0.49647,1.95754 4.66406,2.74055 0.84919,5.22009 -0.66631,-1.01792 -1.51547,-1.85313 -2.67824,-2.41429 -0.52258,0.70471 0.75774,0.73082 0.30033,1.39637 -3.99773,-1.044 -5.65694,-4.34572 -7.29,-7.85623 1.45015,-0.84826 3.03099,-0.16963 4.59874,0.0125 2.75663,0.31321 5.25193,1.38332 7.68194,2.597 0.52257,0.24806 1.24116,0.66555 0.75774,1.39638 -0.43112,0.62641 -1.01901,1.2789 -1.68532,1.60516 -0.57485,0.27407 -0.82308,-0.4437 -0.90144,-0.9657 -0.15678,-1.09622 -0.82308,-1.10927 -1.63307,-0.97878 z m 0,0"
       fill-opacity="1"
       fill-rule="nonzero"
       id="path41"
       style="stroke-width:3.34269" />
    <path
       fill="#e6e3dd"
       d="m 87.245549,241.76049 c -1.019061,4.67198 -5.748417,5.65076 -8.191496,8.8872 -0.287286,0.36543 -0.692418,0.65252 -1.123561,0.39151 -0.418074,-0.24806 -0.40498,-0.7308 -0.24808,-1.18757 0.600961,-1.73567 1.633066,-3.15815 3.25309,-4.17606 -2.416966,-0.0784 -2.717447,2.08803 -3.788733,3.39307 -1.815979,-2.4404 -1.13663,-5.3245 1.685316,-6.47294 2.795834,-1.13536 5.748418,-0.99181 8.41359,-0.83521 z m 0,0"
       fill-opacity="1"
       fill-rule="nonzero"
       id="path42"
       style="stroke-width:3.34269" />
    <path
       fill="#e6e3dd"
       d="m 384.92171,164.93374 c -1.78982,-7.00799 4.5726,-7.9215 7.44682,-11.18405 0.41808,0.86131 -0.36582,2.15327 0.91449,2.89715 1.94667,1.1223 1.05824,2.47954 0.0916,3.73236 -1.04518,1.37029 -2.27326,1.55298 -3.61889,0.39151 -0.39194,-0.32626 -0.7839,-0.65252 -1.2542,-1.03097 0.2612,2.72749 -2.10342,3.28866 -3.57971,5.194 z m 0,0"
       fill-opacity="1"
       fill-rule="nonzero"
       id="path43"
       style="stroke-width:3.34269" />
    <path
       fill="#e6e3dd"
       d="m 113.47919,153.08411 c 0.78385,1.44859 1.93355,2.30991 3.42294,3.05376 4.07614,2.02278 5.53936,4.93299 4.52033,8.96553 -0.70551,-2.15331 -4.05004,-2.21855 -3.07018,-5.1679 -0.73162,-0.43067 -1.16277,0.0391 -1.50243,0.53506 -1.21502,1.81398 -2.83504,0.97875 -3.81485,0.1566 -1.07131,-0.92656 -1.88129,-2.58395 -0.20894,-3.83677 1.47626,-1.09622 0.56173,-2.3621 0.65321,-3.70628 z m 0,0"
       fill-opacity="1"
       fill-rule="nonzero"
       id="path44"
       style="stroke-width:3.34269" />
    <path
       fill="#e6e3dd"
       d="m 417.32184,458.64244 c -46.07872,-15.81691 -91.28212,-15.07304 -135.49261,6.09443 36.63303,-16.32581 74.37657,-15.68637 112.59045,-6.62951 7.35534,1.74874 14.68455,3.73238 21.47812,7.38644 -23.64686,-7.7127 -47.72486,-12.24113 -72.69124,-12.08453 -25.12317,0.15661 -48.61328,6.76004 -71.43708,16.7304 0.88842,-2.17936 2.57371,-3.28863 4.12842,-4.51537 14.60619,-11.60167 31.6424,-17.53952 49.69761,-20.89343 30.51884,-5.66381 60.08396,-1.72263 88.95666,8.96553 1.08435,0.40453 2.3908,0.58724 3.0179,2.06192 -1.2542,0.3915 -2.18178,-0.0521 -3.14854,-0.3654 -10.03359,-3.34085 -19.94963,-7.00799 -30.4274,-8.87417 -31.95593,-5.72904 -62.89284,-2.92324 -92.48407,11.05355 -0.67937,0.32639 -1.34566,0.69166 -1.9858,1.10925 38.13546,-14.70759 76.80659,-16.74342 116.06561,-5.11567 4.07614,1.20063 8.10004,2.597 11.73197,5.07656 z m 0,0"
       fill-opacity="1"
       fill-rule="nonzero"
       id="path45"
       style="stroke-width:3.34269" />
    <path
       fill="#e6e3dd"
       d="m 233.03305,469.95696 c -1.46325,-1.03095 -2.93952,-2.0619 -4.97761,-3.49743 0.57487,1.07011 0.7839,1.47467 1.07128,2.00973 -0.39191,-0.0912 -0.66628,-0.0782 -0.86223,-0.20872 -17.02314,-10.60983 -35.74466,-16.02566 -55.51138,-18.32251 -11.95404,-1.38335 -23.9212,-2.00976 -35.94061,-1.08317 -15.91264,1.22672 -31.51171,3.8498 -46.353067,9.97037 -0.24808,0.10423 -0.496462,0.20872 -0.744693,0.27394 -0.770805,0.19569 -1.842091,1.12233 -2.247122,0.0125 -0.352706,-0.97876 0.979855,-1.27891 1.737617,-1.6182 9.981312,-4.52845 20.589745,-6.76003 31.315755,-8.48269 26.28592,-4.24133 52.25828,-2.50564 77.93015,4.24133 6.87198,1.80096 13.41731,4.58065 19.87119,7.56916 -7.62972,-4.63284 -15.80812,-7.9215 -24.36539,-10.30971 -30.58415,-8.48263 -61.06378,-7.36031 -91.42587,1.13539 -4.481128,1.26585 -8.79246,3.15816 -13.182154,4.75028 -0.653212,0.22175 -1.515474,1.16149 -1.985823,0.10423 -0.365774,-0.86131 0.679374,-1.34415 1.371792,-1.64433 5.905218,-2.61006 12.045525,-4.56757 18.303475,-6.09448 26.89994,-6.57732 53.90439,-7.62132 81.02646,-1.46162 13.54795,3.07986 26.25975,8.09116 37.62595,16.20842 2.63904,1.87924 5.09518,4.01946 7.64279,6.04224 -0.10435,0.13055 -0.20895,0.27397 -0.30069,0.40456 z m 0,0"
       fill-opacity="1"
       fill-rule="nonzero"
       id="path46"
       style="stroke-width:3.34269" />
    <path
       fill="#e6e3dd"
       d="m 231.83113,467.05983 c -20.77269,-15.88214 -44.11907,-24.99121 -69.90852,-27.61432 -25.63268,-2.59698 -50.72975,-0.80912 -74.546423,10.70121 0.587893,-1.76179 0.587893,-1.74874 2.482259,-2.76666 7.551328,-4.04559 15.716684,-6.27714 24.064934,-7.81709 31.08062,-5.716 61.33813,-3.00156 90.51134,9.44837 9.45876,4.03251 18.22505,9.30484 26.03768,16.03874 0.4703,0.40459 0.90145,0.84828 1.31952,1.30504 0.0783,0.0782 0.0268,0.28697 0.0391,0.70471 z m 0,0"
       fill-opacity="1"
       fill-rule="nonzero"
       id="path47"
       style="stroke-width:3.34269" />
    <path
       fill="#e6e3dd"
       d="m 207.09989,461.12195 c -8.08697,-3.09289 -16.56588,-4.61976 -25.08397,-5.82036 -26.73011,-3.75847 -52.93764,-1.05708 -78.71402,6.65559 -4.651021,1.39638 -9.014553,3.54965 -13.521841,5.28534 -0.718531,0.27394 -1.672273,1.46162 -2.260166,0.31303 -0.653212,-1.27891 0.404981,-1.97057 1.59386,-2.49257 6.153449,-2.6753 12.476667,-4.86774 18.995887,-6.45985 18.66927,-4.55454 37.58677,-7.25595 56.85701,-6.40769 19.34864,0.84826 38.17466,4.17608 55.77265,12.73705 2.75662,1.34415 5.34341,2.98848 7.72114,4.99821 -4.72938,-2.45343 -9.58937,-4.55451 -14.55392,-6.48594 -1.7637,-0.67863 -3.90632,0.27394 -5.30423,-1.46162 -0.49643,-0.28699 -0.9929,-0.57424 -1.5024,-0.86134 z m 0,0"
       fill-opacity="1"
       fill-rule="nonzero"
       id="path48"
       style="stroke-width:3.34269" />
    <path
       fill="#e6e3dd"
       d="m 207.09989,461.12195 c 0.5095,0.287 1.00597,0.57425 1.5024,0.86134 -4.75549,-0.71776 -9.52405,-1.44859 -14.29262,-2.17941 -35.78383,-5.4028 -70.73157,-2.94934 -104.451224,11.04053 -0.313374,0.13054 -0.627099,0.3 -0.836124,0.84826 3.736483,-0.90048 7.472916,-1.81399 11.222468,-2.67533 3.85403,-0.8874 7.72115,-1.70955 11.69277,-2.12714 -6.19258,1.57906 -12.385188,3.15814 -18.577818,4.72417 -1.358724,0.33929 -2.743559,0.65249 -4.128395,0.8874 -0.653212,0.10423 -1.620023,0.99183 -1.90741,-0.33929 -0.182862,-0.8874 -0.378893,-1.98365 0.679349,-2.62311 0.444187,-0.26094 0.953718,-0.43065 1.437111,-0.62641 29.761073,-12.01926 60.606503,-15.67332 92.418743,-12.20197 7.73422,0.84828 15.27248,2.6753 22.90219,4.07167 0.77081,0.13055 1.56775,0.23478 2.33856,0.33929 z m 0,0"
       fill-opacity="1"
       fill-rule="nonzero"
       id="path49"
       style="stroke-width:3.34269" />
    <path
       fill="#e6e3dd"
       d="m 306.93933,459.07309 c 37.10336,-7.58219 73.31834,-4.16303 108.67108,8.97855 -0.0391,0.48286 -0.0783,0.9657 -0.11764,1.43554 -35.37886,-12.55432 -71.55463,-15.86909 -108.55349,-10.41409 z m 0,0"
       fill-opacity="1"
       fill-rule="nonzero"
       id="path50"
       style="stroke-width:3.34269" />
    <path
       fill="#e6e3dd"
       d="m 316.13677,438.07527 c -9.66779,3.23644 -18.89136,7.32115 -27.48784,12.82836 -8.49198,5.45499 -16.16087,11.86268 -23.26799,19.56233 3.9063,-10.76646 35.8622,-31.03348 50.75583,-32.39069 z m 0,0"
       fill-opacity="1"
       fill-rule="nonzero"
       id="path51"
       style="stroke-width:3.34269" />
    <path
       fill="#e6e3dd"
       d="M 237.12226,467.64711 C 222.65977,453.52674 205.67582,443.726 186.34027,437.9317 c 20.04106,4.58062 37.15565,14.17253 50.78199,29.71541 z m 0,0"
       fill-opacity="1"
       fill-rule="nonzero"
       id="path52"
       style="stroke-width:3.34269" />
    <path
       fill="#e6e3dd"
       d="m 380.97622,441.14203 c 13.10377,2.15333 26.12915,4.65897 37.7958,11.57558 -12.41135,-4.46318 -24.91413,-8.63926 -37.7958,-11.57558 z m 0,0"
       fill-opacity="1"
       fill-rule="nonzero"
       id="path53"
       style="stroke-width:3.34269" />
    <path
       fill="#e6e3dd"
       d="m 122.20631,442.82553 c -5.94438,1.46164 -11.36615,2.44039 -16.60506,4.15 -5.61776,1.82701 -11.183266,3.74539 -16.539722,6.22495 -0.56178,0.26091 -1.267292,1.14841 -1.75066,0.1566 -0.378868,-0.79604 0.221993,-1.50073 1.03208,-1.86615 1.515498,-0.69166 3.030971,-1.40943 4.585676,-2.02281 8.975346,-3.56268 18.355716,-5.48108 27.866736,-6.82528 0.24808,-0.0268 0.5095,0.0652 1.41095,0.18266 z m 0,0"
       fill-opacity="1"
       fill-rule="nonzero"
       id="path54"
       style="stroke-width:3.34269" />
    <path
       fill="#e6e3dd"
       d="m 259.71089,473.02377 c 5.9836,-11.14486 15.01122,-19.20994 25.89398,-25.4088 -9.57634,7.51693 -18.2512,15.93435 -25.89398,25.4088 z m 0,0"
       fill-opacity="1"
       fill-rule="nonzero"
       id="path55"
       style="stroke-width:3.34269" />
    <path
       fill="#e6e3dd"
       d="m 219.1193,448.18919 c 11.15712,5.46804 19.36169,14.09425 25.76332,24.61276 -7.65583,-9.17435 -15.72973,-17.87887 -25.76332,-24.61276 z m 0,0"
       fill-opacity="1"
       fill-rule="nonzero"
       id="path56"
       style="stroke-width:3.34269" />
    <path
       fill="#e6e3dd"
       d="m 116.13129,453.89214 c -9.79842,2.45345 -19.400865,5.45499 -28.63751,9.72243 -0.418074,-1.37029 -0.07826,-2.23158 1.123511,-2.70141 8.883914,-3.43221 18.094449,-5.58549 27.513999,-7.02102 z m 0,0"
       fill-opacity="1"
       fill-rule="nonzero"
       id="path57"
       style="stroke-width:3.34269" />
    <path
       fill="#e6e3dd"
       d="m 387.05123,453.18742 c 10.08587,1.82705 20.15866,3.69323 29.40835,8.43045 -9.69393,-3.21036 -19.51846,-5.91175 -29.40835,-8.43045 z m 0,0"
       fill-opacity="1"
       fill-rule="nonzero"
       id="path58"
       style="stroke-width:3.34269" />
    <path
       fill="#e6e3dd"
       d="m 404.12662,468.33876 c 3.9586,0.24781 7.74731,1.14842 11.26167,3.0929 -3.76259,-1.03095 -7.51212,-2.06195 -11.26167,-3.0929 z m 0,0"
       fill-opacity="1"
       fill-rule="nonzero"
       id="path59"
       style="stroke-width:3.34269" />
    <path
       fill="#e6e3dd"
       d="m 206.52504,191.34743 c 0.48339,-1.31809 1.56775,-1.65738 2.37776,-2.24466 1.81598,-1.30501 3.39677,-2.80579 4.61176,-4.68503 1.46325,-2.29685 2.27326,-4.47623 0.70551,-7.28203 -2.12953,-3.82372 -2.02503,-7.81709 0.82308,-11.39287 1.77678,-2.24464 3.07016,-2.36208 5.33035,-0.66555 1.37176,1.03097 2.8611,0.74387 4.32435,0.43067 4.05,-0.86134 8.11311,-1.69655 12.11086,-2.74058 1.85519,-0.48284 2.37776,0.0391 2.3516,1.80096 -0.0522,4.56757 -0.83612,8.9655 -2.92645,13.03718 -3.22695,6.22497 -10.64761,8.63926 -17.02313,5.41585 -1.50243,-0.75691 -2.05112,-0.45675 -2.87422,0.74385 -1.75061,2.55787 -3.85403,4.81555 -6.48002,6.52513 -0.91449,0.6003 -1.77677,1.51384 -3.33145,1.04403 z m 20.61589,-12.14978 c 3.64502,1.40943 7.73421,-3.69322 8.29599,-10.25748 -1.94661,4.37182 -4.61176,7.66048 -8.29599,10.25748 z m 0,0"
       fill-opacity="1"
       fill-rule="nonzero"
       id="path60"
       style="stroke-width:3.34269" />
    <path
       fill="#e6e3dd"
       d="m 220.71316,147.94233 c 2.61292,-8.40437 -1.12356,-14.45968 -6.84584,-19.83637 -1.28031,-1.21366 -2.28628,-1.63128 -3.73644,-0.0915 -1.86825,1.97059 -3.24002,1.50078 -4.01082,-1.16147 -1.37179,-4.76336 2.3908,-9.44839 7.95628,-9.89209 7.94327,-0.63946 15.35089,5.91175 15.69058,13.85936 0.2612,6.38155 -3.81487,14.22475 -9.05376,17.10885 z m 5.04293,-12.17589 c 1.75066,-3.62795 0.19591,-9.86598 -2.92647,-11.95401 -0.48339,-0.32626 -1.0974,-0.54811 -1.68534,-0.62641 -0.49644,-0.0782 -1.14968,0.0391 -1.28031,0.63947 -0.16982,0.82215 0.57485,1.23976 1.11046,1.09622 2.46922,-0.60033 2.6652,1.23976 3.22698,2.76663 0.94065,2.57092 1.31952,5.2462 1.55468,8.0781 z m 0,0"
       fill-opacity="1"
       fill-rule="nonzero"
       id="path61"
       style="stroke-width:3.34269" />
    <path
       fill="#e6e3dd"
       d="m 218.24397,215.30767 c -4.88616,2.29683 -8.87087,1.63128 -12.37214,-2.38821 -4.21988,-4.84163 -5.55246,-10.50544 -4.03697,-16.7565 0.32645,-1.34418 0.78388,-2.71444 2.27321,-3.66712 -0.79691,4.65893 2.54761,7.16457 4.9123,10.14003 0.58791,0.73082 1.38486,0.66557 2.12953,0.10448 0.35273,-0.26101 0.75776,-0.45675 1.07131,-0.76996 3.69725,-3.61492 5.68305,-2.3882 7.64276,2.37515 1.60693,3.90202 0.1959,7.55608 -1.68532,11.04051 z m -8.64875,-7.81711 c -1.03208,-0.75691 -0.73163,-4.50232 -3.46212,-1.57906 -0.20895,0.22175 -0.65323,-0.60033 -1.17581,-0.10449 0.86226,2.19244 2.61292,2.23158 4.63793,1.68347 z m 0,0"
       fill-opacity="1"
       fill-rule="nonzero"
       id="path62"
       style="stroke-width:3.34269" />
    <path
       fill="#e6e3dd"
       d="m 172.96216,132.24288 c 1.37179,-2.02279 -0.41807,-1.86618 -1.29338,-2.23158 -4.07614,-1.73569 -6.06194,-4.24133 -5.97051,-7.80406 0.0125,-0.70471 -0.56178,-2.40124 1.35872,-1.22672 0.65322,0.39151 0.91452,-0.33931 1.20193,-0.70471 3.01793,-3.69322 5.9313,-7.45169 5.60471,-12.65872 3.68421,1.2006 7.09405,7.00796 7.29,12.21502 0.18286,5.12873 -3.13549,10.30968 -8.19147,12.41077 z m 2.39083,-8.91331 c 1.03208,-1.97059 0.64014,-3.56273 -0.28729,-5.35061 -1.64616,1.98365 -1.30645,3.58884 0.28729,5.35061 z m 0,0"
       fill-opacity="1"
       fill-rule="nonzero"
       id="path63"
       style="stroke-width:3.34269" />
    <path
       fill="#e6e3dd"
       d="m 151.65386,135.21833 c 0.94065,1.90534 1.73759,3.64103 3.6842,4.54148 3.64503,1.67044 5.60469,1.27894 8.89699,-2.11413 0.54868,-0.56117 0.91451,-1.40943 1.8813,-1.09622 0.95371,0.28712 0.37886,1.21368 0.58789,1.81398 0.60099,1.74874 1.22808,3.47138 1.84209,5.20706 0.40503,1.13536 0.45728,2.17939 -0.23504,3.27561 -3.65807,5.72906 -11.77118,6.01615 -15.92571,0.57419 -2.10341,-2.75358 -3.71032,-9.23957 -0.73162,-12.20197 z m 0,0"
       fill-opacity="1"
       fill-rule="nonzero"
       id="path64"
       style="stroke-width:3.34269" />
    <path
       fill="#e6e3dd"
       d="m 138.15815,166.53891 c 0.7316,-1.08317 2.6129,-5.55941 2.74359,-6.99492 0.28729,-3.17122 2.22096,-5.31146 5.31725,-6.12056 3.84101,-0.99184 7.23778,0.26101 10.67378,1.89229 -3.56664,0.4437 -7.40765,0.0125 -9.83763,3.81066 1.48933,0.46981 2.23403,-0.56117 3.13549,-1.08317 4.70325,-2.7536 9.49792,-1.90534 12.88165,2.45346 -1.7245,-0.20872 -3.33145,-0.49592 -4.95147,-0.56117 -2.07726,-0.0784 -3.7626,0.71777 -4.86,2.61003 -0.56178,0.96573 -1.35872,1.87924 0.61401,2.04889 0.43114,0.0391 0.96681,0.10449 0.96681,0.67861 -0.0125,0.58727 -0.52258,0.88742 -0.99293,1.12233 -3.1747,1.53992 -6.38858,1.25282 -9.45873,-0.16964 -2.16871,-1.00488 -4.15454,-1.68349 -6.23182,0.31321 z m 0,0"
       fill-opacity="1"
       fill-rule="nonzero"
       id="path65"
       style="stroke-width:3.34269" />
    <path
       fill="#e6e3dd"
       d="m 345.67575,143.00934 c -0.20894,-2.45346 0.60099,-3.09292 3.08323,-2.79277 3.14859,0.39151 4.92536,-1.84007 5.9836,-6.31631 3.0179,2.55784 3.2792,8.71757 0.35276,12.90668 -3.52746,5.06351 -7.62972,5.02435 -12.35913,2.42735 -1.1366,-0.62641 -0.70546,-2.06192 -1.00596,-2.9624 -1.08436,-0.75691 -1.0974,1.73568 -2.09033,0.522 -0.62709,-0.76996 -0.32641,-1.67041 0.20895,-2.45343 1.42405,-2.12719 2.90036,-4.24133 2.27326,-7.19068 3.59276,0.63944 2.82195,3.57576 3.55355,5.85956 z m 0,0"
       fill-opacity="1"
       fill-rule="nonzero"
       id="path66"
       style="stroke-width:3.34269" />
    <path
       fill="#e6e3dd"
       d="m 333.04234,107.99554 c -0.0783,4.90688 2.73046,8.09116 5.57855,11.27541 2.23403,2.47953 2.2863,4.24133 -0.0522,6.65562 -1.16276,1.20063 -2.09034,2.2838 -1.72454,4.08473 0.39193,1.90532 -0.54872,2.77969 -2.40388,2.79274 -0.43111,-0.26101 -0.32644,-0.63946 -0.15677,-0.91351 1.30645,-2.16635 1.22809,-3.54967 -1.62002,-4.43709 -2.46919,-0.78302 -3.35757,-3.2495 -4.07615,-5.54635 -1.48933,-4.77639 0.5226,-11.79741 4.45506,-13.91155 z m -1.09745,8.32604 c 0.87533,3.60189 2.3908,4.73725 5.26503,4.18914 -1.69839,-1.35724 -3.30532,-2.63614 -5.26503,-4.18914 z m 0,0"
       fill-opacity="1"
       fill-rule="nonzero"
       id="path67"
       style="stroke-width:3.34269" />
    <path
       fill="#e6e3dd"
       d="m 320.98375,185.98377 c -6.34941,5.61159 -11.41848,12.50212 -18.78687,17.86578 3.20082,0.41762 4.93841,-1.09622 6.55843,-2.61005 3.94546,-3.69323 7.05484,-8.10419 10.56921,-12.16284 0.74469,-0.86129 1.47632,-1.73566 2.67824,-2.40123 -0.49644,1.18757 -0.9929,2.37515 -1.52857,3.54967 -2.33855,5.20704 -5.59162,9.76157 -9.85067,13.59834 -5.25193,4.7242 -11.30086,5.58551 -17.33666,2.53176 -6.42779,-3.26255 -9.707,-13.97682 -6.17956,-20.21483 2.23405,-3.95423 5.22581,-7.28203 8.67486,-10.21835 0.74469,-0.63944 1.31952,-1.30501 2.36469,-0.18266 5.59167,5.97702 12.94702,8.22165 20.72041,9.51364 0.65324,0.10448 1.42407,-0.10449 2.11649,0.73082 z m 0,0"
       fill-opacity="1"
       fill-rule="nonzero"
       id="path68"
       style="stroke-width:3.34269" />
    <path
       fill="#e6e3dd"
       d="m 290.80457,140.66029 c -5.44793,0.0125 -7.94326,-2.3882 -7.53826,-7.41255 0.67938,-8.14335 5.80067,-14.6554 16.23926,-13.66359 0.27425,0.0261 0.54869,0.0261 0.78388,0.11752 3.21386,1.38332 2.75663,4.46318 3.0179,7.03407 0.19591,2.06195 0.0522,4.34575 -2.69131,5.07654 -2.90031,0.76996 -5.81371,1.46165 -8.58338,2.66225 -4.3897,1.87923 -4.52038,2.41429 -1.22809,6.18581 z m 10.2165,-13.76799 c -4.32437,-0.52203 -8.30909,0.73079 -12.2415,2.24463 4.36356,0.88742 8.26988,-0.90048 12.2415,-2.24463 z m -15.72975,3.00153 c -1.18888,2.98851 -1.17581,3.09292 0.44418,5.1679 1.05825,-2.4404 1.01904,-2.89715 -0.44418,-5.1679 z m 0,0"
       fill-opacity="1"
       fill-rule="nonzero"
       id="path69"
       style="stroke-width:3.34269" />
    <path
       fill="#e6e3dd"
       d="m 310.2969,124.20394 c -1.21499,4.55454 -0.13069,6.22495 4.37665,7.13848 1.63307,0.32626 3.33145,0.48287 4.88616,1.01792 4.54644,1.57908 7.43371,7.55608 5.99659,12.12367 -0.80996,2.58395 -3.0048,3.90202 -6.02276,3.54967 -1.59386,-0.19569 -3.05708,-0.78301 -4.38969,-1.68349 -5.06902,-3.4061 -7.76033,-8.29995 -8.59648,-14.2117 -0.45725,-3.27563 0.74469,-5.59856 3.74953,-7.93455 z m -1.78982,4.80249 c -0.69242,5.6899 2.91338,10.21833 8.63566,10.89693 -4.08921,-2.83188 -7.06791,-6.05529 -8.63566,-10.89693 z m 9.19744,4.47622 c -0.43114,0.0651 -1.01904,0.20872 -0.95372,0.84828 0.10435,1.14841 0.96676,1.59211 2.01194,1.65736 0.52257,0.0391 1.20195,-0.13054 1.13663,-0.76996 -0.10435,-1.16147 -1.16274,-1.37026 -2.19485,-1.73568 z m 0,0"
       fill-opacity="1"
       fill-rule="nonzero"
       id="path70"
       style="stroke-width:3.34269" />
    <path
       fill="#e6e3dd"
       d="m 272.63176,156.69903 c 3.35759,-2.42734 3.60582,-6.12056 4.7947,-9.35703 1.22807,-3.3278 3.01791,-4.29352 5.77453,-3.37999 0.50954,0.16963 1.17579,0.27404 1.28032,0.8091 0.56178,2.9102 2.40387,1.81398 4.02389,1.31807 3.0179,-0.93962 5.86601,-0.79605 8.75328,1.30504 -1.34568,0.37845 -2.49536,0.6003 -3.56664,1.03097 -2.28628,0.90045 -3.05711,2.46648 -2.11646,4.67198 0.56178,1.31807 -0.41805,1.61822 -1.03211,2.02278 -2.70435,1.7618 -5.78757,2.49259 -8.83164,1.52689 -3.03097,-0.96573 -5.87905,-2.2838 -9.06682,0.0521 z m 0,0"
       fill-opacity="1"
       fill-rule="nonzero"
       id="path71"
       style="stroke-width:3.34269" />
    <path
       fill="#e6e3dd"
       d="m 246.09762,84.531219 c -0.10435,-3.693222 1.56774,-6.029235 4.07614,-7.686595 4.5334,-3.014618 9.53713,-4.006428 14.89363,-2.753605 5.1605,1.200606 7.81258,4.815526 9.18437,9.604968 0.44419,1.566029 0.24808,3.158166 -0.74469,4.554538 -2.37774,3.314769 -4.69018,6.681731 -9.21051,7.360335 -1.43711,0.221749 -2.8089,0.104485 -4.14146,-0.430646 -0.56178,-0.234779 -1.01904,-0.495917 -0.70549,-1.383342 1.18888,-3.419154 -0.60098,-6.02921 -2.87422,-8.11724 -2.59983,-2.388206 -5.76146,-3.432209 -9.27583,-1.840096 -0.31337,0.130544 -0.60096,0.339314 -1.20194,0.691683 z m 11.74504,-2.662274 c 1.16276,1.944507 2.18178,3.236468 3.40986,4.345742 0.37887,0.339315 0.84919,0.783015 1.3587,0.365399 0.50956,-0.404562 0.20895,-0.952672 -0.0783,-1.383317 -1.04515,-1.526891 -2.41692,-2.597002 -4.69015,-3.327824 z m 0,0"
       fill-opacity="1"
       fill-rule="nonzero"
       id="path72"
       style="stroke-width:3.34269" />
    <path
       fill="#e6e3dd"
       d="m 243.28874,119.34925 c 0.95369,-0.13055 1.45015,-0.95267 2.11646,-1.48773 2.58678,-2.14025 2.57371,-2.1533 0.24808,-4.59367 -2.65211,-2.77972 -2.58679,-4.45016 0.28731,-6.91664 2.025,-1.73569 3.57968,-3.86288 5.17354,-5.97702 0.4834,-0.639463 0.82308,-1.265875 1.86826,-0.678601 3.76259,2.101081 5.73532,10.270541 3.40984,14.015961 -1.17584,1.87923 -2.7697,2.79274 -4.87307,2.15327 -1.69843,-0.53505 -2.67826,0.15661 -3.88018,1.20063 -1.21502,1.07011 -2.20795,2.89716 -4.37663,2.24464 -0.0125,0 0.0268,0.0391 0.0268,0.0391 z m 10.28182,-12.21502 c -0.43115,1.33112 -0.87533,2.66224 -1.42402,4.30657 2.53451,-0.9135 1.97273,-2.64919 1.42402,-4.30657 z m 0,0"
       fill-opacity="1"
       fill-rule="nonzero"
       id="path73"
       style="stroke-width:3.34269" />
    <path
       fill="#e6e3dd"
       d="m 236.06402,89.646896 c 0.24808,2.166357 -1.47627,4.658948 1.52854,6.368525 0.0125,-3.053756 -1.14967,-6.055319 1.38489,-9.174322 -0.40503,3.849825 1.22803,6.25106 3.20081,8.508748 0.87533,0.991834 1.5416,2.048891 0.31338,3.197329 -1.76373,1.657364 -1.76373,3.458294 -0.28729,5.611594 -1.60695,-0.96573 -1.62002,-0.95267 -2.20794,-1.89229 -0.32642,-0.50895 -0.53562,-1.05706 -1.16272,-1.37026 -4.75552,-2.4404 -5.80069,-6.538183 -2.76969,-11.249324 z m 0,0"
       fill-opacity="1"
       fill-rule="nonzero"
       id="path74"
       style="stroke-width:3.34269" />
    <path
       fill="#e6e3dd"
       d="m 148.20481,274.69929 c -3.08322,0.35237 -5.43487,-2.17939 -5.1997,-5.2462 0.0391,-0.69166 0.27424,-1.39637 0.27424,-2.08803 0.0125,-3.43221 -0.67933,-4.24133 -4.06305,-4.93299 -3.43598,-0.70471 -6.85891,-0.84826 -10.09893,0.70472 -1.2542,0.61335 -1.76371,0.19569 -2.12953,-0.92657 -0.81001,-2.47956 -0.0652,-4.68503 1.18888,-6.79919 2.37776,-4.00641 7.48601,-6.22495 12.33296,-5.37669 5.35648,0.93961 8.60957,3.86288 9.49794,8.58705 0.56178,2.98851 -0.30035,5.59856 -2.32548,7.80406 -3.88019,4.21522 -3.90633,4.20216 0.52257,8.27384 z m -14.17505,-15.67334 c 3.6058,2.47956 7.74731,2.53175 11.8365,2.85801 -3.86712,-1.31807 -7.66892,-2.87104 -11.8365,-2.85801 z m -4.03696,-3.81066 c -1.58082,1.21366 -2.06421,2.63614 -2.29935,4.17608 -0.0783,0.522 0.0391,1.16147 0.54869,1.35721 0.6271,0.22175 0.86226,-0.4437 1.09744,-0.86132 0.75774,-1.30501 1.07129,-2.71444 0.65322,-4.68503 z m 0,0"
       fill-opacity="1"
       fill-rule="nonzero"
       id="path75"
       style="stroke-width:3.34269" />
    <path
       fill="#e6e3dd"
       d="m 121.60537,288.08883 c 1.56775,-1.93142 3.17465,-2.80579 4.79467,-3.58881 5.09519,-2.46648 10.36024,-2.58394 15.65137,-0.6786 1.13661,0.40456 2.22096,1.1223 3.14854,1.90532 3.26616,2.77971 3.18777,6.64259 -0.28728,9.18737 -3.44905,2.5187 -7.35538,2.70142 -11.35316,1.50079 -0.88837,-0.27405 -1.98582,-0.61336 -1.78982,-1.90535 0.18287,-1.14841 0.99288,-1.85312 2.07726,-2.16633 0.405,-0.11751 0.87533,0.0125 1.30647,-0.0521 0.87533,-0.11751 2.02501,-0.27404 1.75064,-1.42248 -0.27427,-1.18757 -1.30645,-0.37845 -1.98583,-0.23478 -0.54871,0.11752 -0.94064,0.6525 -1.6592,0.13055 -1.63307,-1.18758 -3.34452,-2.41432 -5.40873,-2.63617 -1.86823,-0.20872 -3.78871,-0.0391 -6.24483,-0.0391 z m 0,0"
       fill-opacity="1"
       fill-rule="nonzero"
       id="path76"
       style="stroke-width:3.34269" />
    <path
       fill="#e6e3dd"
       d="m 252.83896,201.85285 c -0.6402,3.53662 -0.26123,6.35547 2.37771,8.48267 1.20197,0.96572 2.45617,1.68349 3.98471,1.91839 5.09518,0.78302 9.35424,8.83501 7.12021,13.62445 -0.71858,1.52687 -1.50243,2.97546 -1.12356,4.91994 -0.77083,-1.44859 -1.75066,-1.48773 -3.12243,-1.18758 -2.73051,0.61336 -5.1605,-0.45675 -6.92425,-2.45345 -5.27807,-6.01616 -7.13323,-12.99804 -5.34339,-20.85426 0.3658,-1.61825 1.17581,-3.05376 3.031,-4.45016 z m -1.89439,10.50545 c 0.92758,4.76333 3.34454,6.32936 6.48004,4.68503 -2.36469,-1.00486 -4.61181,-1.97056 -6.48004,-4.68503 z m 0,0"
       fill-opacity="1"
       fill-rule="nonzero"
       id="path77"
       style="stroke-width:3.34269" />
    <path
       fill="#e6e3dd"
       d="m 263.59108,193.4746 c -1.46323,-1.74872 -3.00486,-2.49259 -5.26503,-2.28377 -2.3516,0.19569 -4.25906,-1.9184 -4.29821,-4.42405 -0.0391,-3.4061 1.08433,-6.56426 2.62594,-9.55277 0.54871,-1.05706 1.26729,-1.86618 2.01193,0.11751 0.97986,2.59701 3.37069,4.39794 5.22585,6.09446 2.36471,2.16636 1.21501,3.78458 0.18286,4.98521 -1.51547,1.72261 -2.23406,3.0407 -0.48339,5.06348 z m 0,0"
       fill-opacity="1"
       fill-rule="nonzero"
       id="path78"
       style="stroke-width:3.34269" />
  </g>
</svg>
