<?xml version="1.0" encoding="UTF-8" standalone="no"?>
<!-- Created with Inkscape (http://www.inkscape.org/) -->

<svg
   width="512"
   height="512"
   viewBox="0 0 512 512"
   version="1.1"
   id="svg1"
   inkscape:version="1.3.1 (9b9bdc1480, 2023-11-25, custom)"
   sodipodi:docname="neuralnet.svg"
   xmlns:inkscape="http://www.inkscape.org/namespaces/inkscape"
   xmlns:sodipodi="http://sodipodi.sourceforge.net/DTD/sodipodi-0.dtd"
   xmlns="http://www.w3.org/2000/svg"
   xmlns:svg="http://www.w3.org/2000/svg">
  <sodipodi:namedview
     id="namedview1"
     pagecolor="#ffffff"
     bordercolor="#000000"
     borderopacity="0.25"
     inkscape:showpageshadow="2"
     inkscape:pageopacity="0.0"
     inkscape:pagecheckerboard="0"
     inkscape:deskcolor="#d1d1d1"
     inkscape:document-units="px"
     inkscape:zoom="2.34375"
     inkscape:cx="255.78667"
     inkscape:cy="256"
     inkscape:window-width="2560"
     inkscape:window-height="1403"
     inkscape:window-x="0"
     inkscape:window-y="0"
     inkscape:window-maximized="1"
     inkscape:current-layer="layer1" />
  <defs
     id="defs1" />
  <g
     inkscape:label="Layer 1"
     inkscape:groupmode="layer"
     id="layer1">
    <path
       fill="#e6e3dd"
       d="m 270.98715,8.6886537 c -3.54117,0.9999779 -6.14192,3.1284593 -8.15052,6.6854443 -1.57902,2.799905 -1.93897,4.314121 -1.92733,8.213977 0,2.714167 0.46441,5.871177 1.07976,7.328262 l 1.07976,2.557035 -28.0044,20.542045 c -36.24788,26.598908 -32.11455,23.870452 -33.64713,22.156235 -1.72995,-1.91419 -2.82135,-1.771348 -4.87639,0.628555 -1.41646,1.671347 -3.54119,2.442745 -11.59886,4.256962 -5.42206,1.214241 -12.4464,2.942747 -15.60446,3.842698 -5.97936,1.699954 -7.52357,1.614242 -7.52357,-0.428555 0,-1.728478 -3.20447,-6.199731 -5.48013,-7.642526 -2.44979,-1.557084 -7.63968,-1.585663 -10.01982,-0.05705 -4.16815,2.685588 -6.94305,8.242502 -6.94305,13.942286 0,1.185661 0.69663,3.842697 1.5442,5.914046 l 1.54419,3.756982 -14.16477,14.98511 c -18.06588,19.09925 -17.10221,18.22786 -18.71607,16.99932 -1.66029,-1.27137 -4.69061,-0.34284 -5.18986,1.59992 -0.41798,1.57138 -3.95917,2.02852 -43.237363,5.64266 -6.919818,0.64282 -14.629177,1.41421 -17.125422,1.69993 l -4.528078,0.54282 -1.404869,-3.35699 c -3.77338,-9.09964 -12.24903,-12.59949 -19.586846,-8.09968 -5.189864,3.17129 -8.371122,9.55676 -8.371122,16.77074 0,6.94257 3.134824,13.04233 8.440784,16.38505 3.912728,2.48561 10.867389,1.89994 14.153152,-1.17137 l 2.380148,-2.22848 2.391762,1.99993 c 5.038946,4.19983 47.219728,36.56994 66.667244,51.16936 l 12.7599,9.55675 v 3.85698 c 0,4.82839 2.05504,10.1853 5.22471,13.61373 1.3352,1.44282 2.14793,2.91417 1.82284,3.2856 -0.3251,0.37141 -6.68762,6.54259 -14.14153,13.69944 l -13.54942,13.02804 -2.565907,-2.84275 c -6.211599,-6.91399 -15.116816,-3.18556 -16.672625,6.95687 -1.416461,9.22822 6.037453,16.7279 13.061776,13.11376 l 2.612342,-1.3428 12.783124,15.69938 c 7.02432,8.6425 12.7831,16.28505 12.7831,16.98503 0,2.21419 1.95056,4.85693 3.99401,5.39978 2.39176,0.64282 2.56591,1.65706 3.22771,19.04206 0.31348,8.38541 0.23222,12.34237 -0.24383,12.34237 -0.39474,0 -0.90561,0.94284 -1.13781,2.08566 -0.23224,1.15706 -0.73147,2.09987 -1.10299,2.09987 -0.69662,0 -21.95538,4.65696 -25.229525,5.52837 -1.544195,0.41426 -1.950557,0.0428 -3.065161,-2.68559 -2.705233,-6.71403 -9.218711,-7.8854 -13.630693,-2.44278 -1.962171,2.39991 -2.264028,3.32847 -2.264028,6.97116 0,5.11407 2.194366,8.85676 5.956154,10.12814 4.516464,1.54283 8.487241,-0.82853 10.356543,-6.18547 l 1.184267,-3.41414 14.118313,-3.09999 c 9.95016,-2.17135 14.47823,-2.85704 15.34903,-2.28561 0.6734,0.45711 1.70673,0.58569 2.29887,0.31412 0.59212,-0.27125 1.06815,-0.14289 1.06815,0.29987 0,0.42858 4.36554,11.67098 9.69473,24.95614 5.32921,13.29946 9.78763,24.39903 9.89211,24.68471 0.10455,0.28564 -1.3352,0.70001 -3.20448,0.92856 -12.09809,1.4285 -15.03554,22.42766 -4.08688,29.28452 6.62958,4.15699 15.3026,-0.2856 17.64791,-9.0425 0.42956,-1.58563 0.88236,-2.8713 1.02171,-2.8713 0.13932,0 8.60334,4.27128 18.82056,9.49962 32.59055,16.68502 52.94368,27.02748 64.83278,32.92724 l 11.56402,5.74263 0.41798,4.19982 c 1.21911,12.1281 9.27676,19.41349 18.79735,16.99932 3.29735,-0.84282 4.45841,-1.65708 7.39584,-5.28548 2.90261,-3.57131 3.64569,-5.11407 4.35391,-9.08536 l 0.8708,-4.78551 4.48162,-2.07135 c 2.47306,-1.14282 12.91084,-5.81405 23.19772,-10.39958 10.28688,-4.57126 26.15835,-11.74239 35.27257,-15.92793 9.11423,-4.18557 16.80032,-7.59969 17.09061,-7.59969 0.27849,0 1.30036,1.45706 2.26402,3.24273 3.45991,6.44257 11.55243,8.75679 17.1022,4.88549 6.29287,-4.37125 8.82396,-14.07084 5.65432,-21.642 l -1.63707,-3.91412 10.58874,-10.29956 c 5.82842,-5.65691 12.73665,-12.5852 15.36063,-15.38511 l 4.77188,-5.09981 4.24943,0.37146 4.24943,0.38565 3.05354,-3.75696 c 2.79813,-3.44274 3.05357,-4.09983 3.05357,-7.92826 0,-6.35689 -3.19287,-11.0567 -8.89362,-13.07091 -0.71986,-0.24274 -3.48314,-8.88533 -8.35953,-25.99891 -4.00562,-14.09945 -8.03445,-27.72746 -8.95165,-30.29879 -1.997,-5.52837 -1.97379,-5.27123 -0.54569,-5.27123 0.62694,0 1.63706,-0.5714 2.25241,-1.2428 0.99851,-1.11423 3.6689,-0.19994 25.21792,8.62822 13.25915,5.42836 26.1816,10.58527 28.71266,11.47099 4.43521,1.54277 4.59777,1.69993 4.47003,4.12838 -0.27849,5.34265 0.1857,7.79968 2.17116,11.48528 7.15206,13.28515 23.75498,6.71397 23.75498,-9.38535 0,-9.22822 -5.28274,-15.61366 -14.01381,-16.9279 -0.84756,-0.12864 -10.08948,-10.3853 -21.89733,-24.31329 l -20.42278,-24.11333 1.64868,-3.81414 c 2.80974,-6.49974 2.05504,-15.29938 -1.72997,-20.15631 -1.50936,-1.9428 -1.50936,-1.9428 -0.17411,-3.77127 0.74307,-0.99998 5.86329,-10.09962 11.37826,-20.2135 5.51495,-10.11387 10.10108,-18.49925 10.18238,-18.61353 0.0927,-0.12864 1.05655,0.34284 2.13631,1.04281 6.07228,3.88557 13.80484,-2.98559 12.95725,-11.5138 -0.61535,-6.21405 -4.29586,-9.99962 -9.88049,-10.14246 l -2.9955,-0.0713 -2.64716,-10.02817 c -5.24794,-19.89921 -11.44795,-44.4125 -11.44795,-45.29819 0,-0.49998 0.88241,-1.11424 1.95056,-1.38564 2.61236,-0.64284 6.18837,-4.45695 7.32623,-7.81397 1.96214,-5.7712 0.23212,-13.44231 -3.84307,-17.01361 -2.64721,-2.3142 -7.9764,-3.142724 -10.8558,-1.67135 -3.32056,1.69992 -6.65278,6.87116 -7.17526,11.1567 -0.25531,2.05706 -0.25531,4.4998 -0.0238,5.44263 0.54566,2.07134 1.28875,1.9285 -24.03367,4.41411 -14.25761,1.39993 -18.93663,1.59993 -19.88868,0.85712 -2.00865,-1.52854 -3.87791,-1.11425 -5.07381,1.14278 -1.04492,1.95706 -1.4629,2.08564 -7.1172,2.08564 -3.29735,0 -6.15355,-0.29998 -6.33931,-0.68569 -0.19728,-0.37141 3.5528,-8.7425 8.3131,-18.59924 4.76029,-9.856749 10.11271,-20.970577 11.88912,-24.670431 2.92582,-6.114049 3.40186,-6.728314 5.07377,-6.456892 2.36851,0.385712 5.88649,-2.285613 7.62804,-5.814046 2.6588,-5.356941 1.02173,-12.885204 -3.44828,-15.82795 -6.38576,-4.214094 -13.54943,1.028529 -13.56103,9.928193 v 3.1713 l -14.36211,2.699877 c -7.90676,1.485663 -14.64084,2.499904 -14.9659,2.257062 -0.32511,-0.256996 -0.59215,-1.171373 -0.59215,-2.057061 0,-0.885687 -0.894,-2.842746 -1.9854,-4.3427 -1.83446,-2.514166 -2.31046,-2.728456 -6.10709,-2.728456 -3.75015,0 -4.3307,0.242732 -6.3509,2.728456 -1.95056,2.385641 -2.22921,3.285591 -2.22921,7.099736 0,2.414193 0.24372,5.185492 0.53405,6.17118 0.47605,1.599926 -0.30185,2.357034 -7.82543,7.599684 -4.58613,3.18559 -9.92693,6.956866 -11.84265,8.371081 l -3.49477,2.571325 -15.88311,-23.970451 c -8.73107,-13.170889 -17.84527,-26.727488 -20.23704,-30.127369 -3.69212,-5.214071 -4.19138,-6.285443 -3.26253,-6.928287 2.26403,-1.557085 4.53969,-7.728264 4.53969,-12.31378 0,-4.899806 -1.03333,-7.856815 -3.85468,-11.070985 -3.3322,-3.7855665 -6.96627,-5.1712294 -10.7745,-4.0855406 z m -4.87637,28.5702843 c 0.476,0.928529 -2.62396,12.328069 -11.42469,42.026883 -6.64122,22.427659 -12.24906,41.584039 -12.44643,42.583989 -0.20888,0.99995 -0.94046,2.6999 -1.62547,3.79985 -0.68501,1.09996 -1.25391,3.0713 -1.25391,4.38555 0,2.84274 -0.54571,2.94272 -4.0753,0.72852 -3.85466,-2.41418 -9.33479,-2.24276 -13.60744,0.41427 -1.84606,1.15711 -3.47153,2.09993 -3.61083,2.09993 -0.2904,0 -5.67753,-13.99945 -9.97339,-25.92754 -1.57903,-4.37125 -4.21461,-11.456669 -5.86331,-15.7565 -1.64867,-4.285541 -2.99547,-7.956817 -2.99547,-8.142528 0,-0.199947 0.52246,-0.342844 1.16102,-0.342844 0.6386,0 1.78804,-0.914239 2.55431,-2.01419 1.02174,-1.485663 48.71747,-37.069946 59.87514,-44.669629 1.61386,-1.099951 2.39177,-0.914268 3.28577,0.814239 z m 31.60366,29.455971 c 17.5318,26.141801 20.864,31.355872 20.4112,31.89869 -0.1741,0.22847 -8.54531,6.199761 -18.59995,13.270911 -17.42732,12.25665 -18.35617,12.79947 -19.84231,11.59952 -1.38162,-1.12851 -1.72996,-1.11424 -3.25092,0.11437 -1.77639,1.4285 -2.26401,4.48554 -0.96365,6.08547 0.52246,0.64284 0.0927,1.94276 -1.5326,4.57125 -1.24231,2.02848 -2.75167,4.58552 -3.34381,5.69976 l -1.07976,2.02851 -10.82096,-6.11405 c -13.93257,-7.85685 -15.41869,-9.02822 -14.98908,-11.84238 0.2785,-1.75707 18.07747,-62.583198 23.51117,-80.325339 l 1.43971,-4.728384 2.53106,0.414264 c 1.39326,0.228471 3.59926,0.05705 4.91122,-0.371395 2.21761,-0.742846 2.50785,-0.599976 4.41198,2.15706 1.12619,1.628478 8.87037,13.113756 17.2067,25.541826 z m 93.9054,4.556936 c 0.99851,1.314242 2.26403,2.557062 2.80972,2.785616 0.7779,0.314291 0.13932,2.199902 -2.78651,8.29966 -2.07827,4.328411 -7.05917,14.68513 -11.05315,23.013369 -5.08536,10.59956 -8.0809,15.94222 -9.97341,17.81356 -2.69362,2.65704 -2.70521,2.67133 -6.76888,1.68564 -2.24082,-0.54281 -4.49326,-1.41422 -5.01572,-1.92848 -0.62696,-0.61426 -1.57901,-6.6426 -2.77489,-17.65643 -1.01012,-9.199638 -1.98538,-17.87072 -2.17116,-19.256383 -0.30186,-2.242771 -0.0695,-2.699878 2.0086,-3.928408 1.5674,-0.91424 2.76331,-2.471324 3.5296,-4.614095 l 1.16101,-3.228432 8.59177,-1.542795 c 4.73707,-0.857108 10.75129,-2.014218 13.36364,-2.585615 6.85017,-1.499952 7.09398,-1.457083 9.07938,1.142793 z M 196.64538,83.471362 c 0.6386,1.071399 4.23784,10.285299 7.99963,20.484888 3.76178,10.1853 8.05765,21.51342 9.55538,25.15614 l 2.71687,6.65687 -1.35841,2.72845 c -0.7547,1.51421 -1.35846,3.55701 -1.35846,4.54268 -0.0111,1.67137 -0.1741,1.74279 -2.39174,0.89997 -1.53258,-0.57142 -2.38012,-1.41424 -2.38012,-2.37135 0,-1.95706 -1.92735,-4.24267 -3.30902,-3.91412 -0.67339,0.15716 -2.89099,-2.1999 -5.66591,-6.02834 -4.56287,-6.27115 -4.57451,-6.28543 -3.09996,-7.65681 1.26555,-1.19995 1.35842,-1.68566 0.69661,-3.4856 -0.49925,-1.35708 -1.5674,-2.2856 -3.03032,-2.67131 -1.24231,-0.32853 -5.61947,-3.14272 -9.72958,-6.2569 -4.12171,-3.09984 -10.92543,-8.18537 -15.14002,-11.27096 -7.30297,-5.356909 -7.65131,-5.742622 -7.65131,-8.399658 v -2.785588 l 6.29288,-1.742796 c 10.83256,-2.999879 22.52431,-5.756915 24.66063,-5.799784 1.38164,-0.04279 2.40335,0.571424 3.19285,1.914218 z m 152.44534,-0.542845 c 2.19439,0.457134 2.78651,1.928508 3.4483,8.55682 0.24372,2.528456 1.07976,10.171013 1.85766,16.970753 1.30039,11.49953 1.32362,12.5709 0.3135,15.19936 -0.99851,2.58562 -1.4281,2.88562 -4.91122,3.41417 -2.10149,0.32853 -4.95766,0.62853 -6.33931,0.6714 -2.80973,0.0856 -3.23932,-0.4 -11.93555,-13.6566 -2.61237,-3.99983 -5.97939,-9.07106 -7.47712,-11.28525 -2.22921,-3.328464 -2.53111,-4.171282 -1.69516,-4.78552 12.85279,-9.49964 23.00032,-16.299346 23.80148,-15.942241 0.5573,0.242734 1.88087,0.628556 2.93742,0.857108 z M 170.4406,103.12772 c 22.35012,16.9993 21.99022,16.68504 21.99022,19.55636 0,2.17132 0.95205,3.81412 5.52656,9.47103 4.59774,5.6712 5.46852,7.15687 5.12022,8.79967 -0.22046,1.07137 -2.92585,4.5855 -6.00261,7.81394 -3.08841,3.21417 -9.62509,10.17103 -14.5363,15.45653 -32.50928,35.02714 -40.70628,43.51255 -42.01826,43.45538 -0.45279,-0.0137 -1.57901,-0.57139 -2.50785,-1.22853 -0.94044,-0.6571 -2.5543,-1.19995 -3.58762,-1.21421 -1.67191,-0.0285 -1.83446,-0.27153 -1.45131,-2.12848 0.23222,-1.15711 4.16815,-23.64192 8.74267,-49.96944 l 8.31309,-47.85519 3.07678,-0.9571 c 3.80822,-1.17138 6.16516,-3.01417 7.3494,-5.742634 0.49926,-1.14282 0.98688,-2.085639 1.09138,-2.085639 0.0927,0 4.09851,2.98559 8.89363,6.628313 z m 149.9723,-2.51419 c 0.22047,0.72855 10.73965,16.71361 16.35913,24.87043 1.5442,2.22847 2.36853,4.15699 2.1247,4.94264 -0.23212,0.75714 0.3135,2.22848 1.30039,3.54272 2.24082,2.94276 3.23931,5.41408 3.23931,7.99969 0,1.74277 -1.40485,3.31414 -7.99961,8.99964 -14.91942,12.85662 -14.47826,12.55662 -16.71905,11.94236 -4.19138,-1.12851 -43.5044,-16.31361 -45.45496,-17.57072 -1.30036,-0.81424 -1.90412,-1.72848 -1.66031,-2.49988 0.96368,-3.09988 6.11873,-11.41382 7.59326,-12.2281 0.894,-0.49997 1.81123,-1.59992 2.02022,-2.44274 0.23213,-0.89998 7.14042,-6.21405 16.85836,-12.9852 9.04457,-6.29973 17.52022,-12.32807 18.8206,-13.39944 2.60073,-2.128512 3.18126,-2.328486 3.51796,-1.1714 z m -172.36889,3.79986 c 0.0814,0.0856 -2.14793,13.48518 -4.96926,29.78449 -2.83297,16.28506 -6.73408,38.92701 -8.67302,50.29799 -1.93895,11.37097 -3.87789,20.84202 -4.29586,21.042 -0.80114,0.38571 -3.8663,-9.4139 -14.12993,-45.19819 -5.15504,-17.99927 -5.70075,-20.44201 -4.96928,-22.39907 0.4528,-1.19995 7.5584,-9.28536 15.79021,-17.94215 8.24344,-8.65679 15.38388,-16.35648 15.88311,-17.09932 0.83595,-1.2285 1.0914,-1.2285 3.05355,0 1.17267,0.74284 2.21761,1.41424 2.31048,1.51425 z m 288.55474,18.32782 c -1.18425,1.35708 -24.18459,19.45636 -28.41079,22.35623 l -2.91422,1.98565 -2.1015,-2.91418 c -1.14944,-1.61421 -4.24942,-5.89976 -6.89661,-9.5139 -6.68762,-9.18534 -7.70934,-8.58536 18.91345,-11.07098 7.86027,-0.72853 14.42016,-1.47137 14.5711,-1.65706 0.15092,-0.18568 1.9854,-0.34285 4.05206,-0.34285 3.23933,0 3.63408,0.17143 2.78651,1.15709 z m -0.42959,4.07128 c -0.75466,1.02852 -5.30596,7.51397 -10.11269,14.38512 -5.14345,7.35684 -9.71797,13.12805 -11.13445,13.99942 l -2.40335,1.51424 -2.91425,-3.52843 c -1.60222,-1.9285 -2.91422,-3.71414 -2.91422,-3.97127 0,-0.24274 1.30036,-1.29996 2.89102,-2.34277 1.59065,-1.0428 8.40596,-6.37116 15.14004,-11.84237 6.73404,-5.47119 12.36515,-9.98532 12.52766,-10.02816 0.16251,-0.0285 -0.32506,0.78569 -1.07976,1.81422 z m 5.89812,-0.19995 c 0.70825,0.4571 2.0202,0.91424 2.92582,0.99995 1.50935,0.15716 1.95055,1.38567 5.56143,15.68508 2.14793,8.52821 5.43369,21.51341 7.29136,28.87026 1.9854,7.85684 3.14641,13.77086 2.80971,14.31371 -2.60073,4.2427 -3.06516,5.61407 -3.06516,9.11392 0,2.09991 0.46443,4.69981 1.03335,5.77121 0.96366,1.79992 0.8708,2.17132 -1.38164,6.01402 -1.32361,2.25706 -6.35092,11.34241 -11.18086,20.18491 -4.82996,8.8568 -8.92847,16.09935 -9.11423,16.09935 -0.18569,0 -1.47451,-0.74282 -2.86776,-1.67135 -3.37866,-2.22848 -9.50898,-2.25706 -13.01534,-0.057 l -2.57753,1.61422 -12.82953,-15.78508 c -12.71349,-15.64224 -12.81795,-15.79938 -11.9704,-18.12786 0.47602,-1.28566 5.35241,-12.21378 10.84416,-24.28471 9.23032,-20.28491 10.12432,-21.92771 11.84269,-21.94197 2.58911,-0.0138 4.41195,-3.45702 3.34381,-6.32834 -0.62697,-1.69993 -0.54571,-2.35704 0.41795,-3.59986 0.65019,-0.84282 5.27116,-7.42826 10.26368,-14.62797 5.00408,-7.19971 9.38124,-13.08517 9.74114,-13.08517 0.35993,0 1.23071,0.37139 1.92735,0.84282 z m -73.05301,1.8999 c 0.40636,0.48572 -5.36406,29.6274 -5.991,30.25595 -0.11614,0.11437 -1.50937,0.42852 -3.11162,0.67139 -2.72846,0.42856 -2.97226,0.29998 -3.99398,-2.18563 -0.59214,-1.45708 -2.26405,-4.59981 -3.72694,-6.98542 -1.67191,-2.77133 -2.63557,-5.27123 -2.63557,-6.8426 0,-1.92849 -0.5341,-2.87131 -2.39177,-4.28555 -2.62395,-1.9999 -3.72696,-3.97124 -3.72696,-6.65687 0,-2.24276 0.40636,-2.3999 9.26514,-3.77127 7.48874,-1.17137 15.45352,-1.25708 16.3127,-0.19995 z m 20.75952,1.22853 c 1.62545,1.32853 13.51455,17.92785 13.51455,18.87068 0,0.5571 -26.52989,21.77054 -26.73888,21.38483 -2.48465,-4.52838 -4.59776,-7.02829 -7.47714,-8.79963 -1.95056,-1.19996 -3.62247,-2.28562 -3.73856,-2.39991 -0.11614,-0.12863 1.07976,-6.19976 2.65877,-13.48518 3.66892,-16.985 3.69215,-17.02787 13.18949,-17.02787 5.32921,0 7.18688,0.31429 8.59177,1.45708 z m -132.545,7.77111 9.31158,5.15694 -0.1741,3.12845 c -0.13933,2.57133 -1.03333,4.3141 -5.01572,9.71388 l -4.85319,6.57118 -6.35092,-1.97135 c -3.50635,-1.08569 -6.57151,-2.1999 -6.82695,-2.48561 -0.25531,-0.27153 -0.0348,-2.52848 0.49925,-4.99981 1.11461,-5.2712 0.42959,-10.78528 -1.83446,-14.62797 l -1.42807,-2.3999 1.95055,-1.99993 c 2.54268,-2.5999 3.40186,-2.37132 14.72207,3.91412 z m -153.01426,1.09998 c 0.18569,0.62852 1.21911,1.35707 2.27566,1.6285 1.85767,0.4714 2.19437,1.4285 8.30149,22.89905 3.50634,12.3281 7.75577,26.9132 9.46251,32.39872 l 3.08837,9.9853 -1.61383,1.29995 c -3.66892,2.98559 -5.67753,5.64263 -7.09401,9.39961 l -1.49774,3.97122 -5.72396,-4.27125 C 97.863605,205.78071 43.398951,163.95382 39.555885,160.72539 l -2.890992,-2.42848 1.393255,-3.35701 c 0.76629,-1.84277 1.451303,-5.01407 1.53258,-7.04258 0.162509,-4.42838 -3.018726,-3.67128 28.364352,-6.65687 20.863982,-1.97134 34.35535,-3.37127 35.45834,-3.65698 0.24381,-0.0571 0.60374,0.39998 0.80111,1.02854 z m 106.61885,7.24255 c 2.35691,0.77139 2.53106,1.05711 2.94906,4.94265 0.29038,2.67132 1.26552,5.5712 2.80972,8.32824 l 2.36855,4.2284 -1.5326,1.18567 c -0.84755,0.64284 -15.43029,11.39954 -32.40477,23.89903 -16.98612,12.49952 -32.42802,24.01331 -34.33214,25.58469 -3.12321,2.59991 -3.51796,2.72846 -4.07526,1.41422 -0.34832,-0.79995 -1.4281,-2.51416 -2.40338,-3.81412 -1.64868,-2.18564 -1.69511,-2.4142 -0.56892,-3.18559 1.18427,-0.81424 13.35205,-13.64232 39.26659,-41.35549 6.91984,-7.41397 14.5711,-15.58508 16.99771,-18.17069 4.72543,-5.04265 4.85316,-5.07121 10.92544,-3.05701 z m 140.81164,8.01397 3.85468,6.77115 -3.07678,2.84273 c -2.3453,2.17134 -5.51497,7.34258 -5.96777,9.7139 -0.0238,0.12864 -14.48985,-5.14265 -23.05837,-8.41395 -0.34831,-0.12863 4.0869,-4.25696 9.86889,-9.15676 13.17787,-11.19955 13.03854,-11.18525 18.37935,-1.75707 z m -64.05491,-0.0138 c 8.08088,3.02843 18.43744,6.89971 23.02355,8.61392 l 8.3363,3.11417 -6.32767,5.14265 c -4.72548,3.84269 -6.72247,5.01407 -7.87189,4.64267 -0.84759,-0.27152 -2.28726,0 -3.1929,0.59998 -1.47451,0.97137 -3.78502,0.3714 -20.87562,-5.45694 -10.56551,-3.58556 -19.93513,-6.85686 -20.82914,-7.25684 -1.59065,-0.72856 -1.59065,-0.7571 1.41646,-4.69981 1.66032,-2.18563 3.57603,-4.99981 4.23782,-6.25688 0.69665,-1.29996 1.84607,-2.28565 2.67041,-2.29991 0.80111,0 1.91572,-0.37142 2.47302,-0.81426 0.5573,-0.44285 1.30038,-0.81424 1.63708,-0.82854 0.3367,0 7.2217,2.47133 15.30258,5.49979 z m 122.01431,2.12848 c 2.17116,2.81417 3.8547,5.38549 3.7502,5.68549 -0.11614,0.31427 -5.097,11.18525 -11.06479,24.14188 l -10.86738,23.58476 -6.36252,-7.74255 c -3.49475,-4.25696 -6.96628,-8.77108 -7.72097,-10.04246 -1.32357,-2.24277 -1.32357,-2.44274 -0.19729,-6.07118 0.83595,-2.6999 1.05656,-5.07123 0.77791,-8.42824 l -0.39477,-4.65693 13.39847,-10.79956 c 7.36102,-5.94263 13.68872,-10.79957 14.06024,-10.79957 0.37154,0 2.44981,2.2999 4.62097,5.12836 z m -161.4434,5.82834 c 2.83292,0.9571 5.37562,2.01419 5.65427,2.34274 0.5341,0.60001 -6.74567,10.94243 -7.69772,10.94243 -0.3019,0 -2.07827,-2.71419 -3.95919,-6.02834 -3.18125,-5.62833 -3.34381,-6.14259 -2.3221,-7.52826 1.39326,-1.88563 2.06668,-1.87135 8.32474,0.27154 z m -25.49659,4.22838 c 0.95205,0.52855 1.72995,1.18569 1.72995,1.45711 0,0.27153 -0.90561,8.21395 -2.0086,17.64214 -2.25242,19.37064 -3.54121,26.27036 -5.35242,28.78455 -0.69665,0.9571 -3.12321,4.92836 -5.39887,8.84251 -2.27565,3.91411 -4.55131,7.77109 -5.05056,8.59963 -0.87076,1.42853 -1.85767,1.38566 -22.6636,-1.08567 -11.97038,-1.41421 -24.57934,-2.89987 -28.02763,-3.29987 -3.44832,-0.41427 -6.59476,-0.98567 -6.97789,-1.27138 -0.38316,-0.29997 -0.69663,-1.98561 -0.69663,-3.75699 v -3.22842 l 10.03144,-7.59969 c 18.59995,-14.08515 61.72119,-45.98387 62.20881,-46.01245 0.25533,-0.0285 1.25395,0.40001 2.206,0.92853 z m 17.74077,4.55696 c 1.7648,3.04275 3.25094,5.98547 3.2974,6.52832 0.10433,1.35707 -19.28501,26.41322 -20.43441,26.41322 -1.16106,0 -1.24232,1.34279 1.12619,-18.81354 1.12622,-9.54245 2.04345,-17.41356 2.04345,-17.48501 0,-0.0713 1.55581,-0.21421 3.47152,-0.31426 1.90413,-0.11438 3.97078,-0.55713 4.58613,-0.99998 2.00861,-1.4428 2.6588,-0.92854 5.90972,4.67125 z m 38.40743,1.71421 c 11.78459,3.99986 21.51417,7.34259 21.61865,7.4283 0.10455,0.0856 -2.83294,5.9426 -6.52507,13.01375 -3.69215,7.08543 -8.4408,16.4279 -10.55391,20.78487 l -3.83143,7.91397 -3.95917,0.0571 -3.9592,0.0713 -9.48573,-17.14217 c -5.22468,-9.4139 -10.82095,-19.32777 -12.45804,-21.9991 l -2.96065,-4.87122 4.6674,-6.18548 c 2.56591,-3.39988 4.96931,-6.21404 5.34083,-6.25689 0.37154,-0.0428 10.32167,3.1856 22.10632,7.18542 z m 54.85942,-1.19995 12.33028,4.41413 0.2785,5.12836 c 0.19728,3.77127 0.74306,6.01405 2.07827,8.48537 l 1.81125,3.35701 -3.87791,4.42838 c -2.13631,2.42849 -8.62654,9.92817 -14.42016,16.67077 -6.20001,7.19971 -11.33183,12.4852 -12.43484,12.81376 -2.42656,0.74285 -3.83143,4.1427 -2.67037,6.4426 1.30037,2.54274 0.96367,3.95699 -1.05655,4.42839 -1.02174,0.24272 -7.57003,0.68568 -14.53631,0.99997 l -12.66703,0.54282 -0.476,-3.18557 c -0.5341,-3.45701 -2.82135,-9.5139 -3.62246,-9.55677 -0.26693,-0.0137 -1.18429,-0.74281 -2.04345,-1.61421 l -1.5442,-1.58567 4.21461,-8.62821 c 5.61946,-11.48525 14.7801,-29.19881 15.976,-30.87018 0.5573,-0.78569 1.62545,-1.19996 2.51945,-0.98567 1.60224,0.38569 2.84456,-0.84281 3.26256,-3.22845 0.23212,-1.28567 12.35351,-12.08524 13.85125,-12.34237 0.37154,-0.0713 6.23482,1.87135 13.02695,4.28554 z m -74.9223,31.81301 c 5.7936,10.47101 10.54228,19.22781 10.54228,19.47065 0,0.22847 -1.09139,1.59992 -2.41496,3.02846 -2.82136,3.04272 -4.38876,6.41402 -4.38876,9.45674 0,1.18569 -0.42959,2.35706 -0.95205,2.5999 -0.5225,0.24274 -7.32622,-0.14289 -15.12845,-0.85711 -7.80223,-0.72852 -19.23851,-1.7285 -25.41529,-2.24276 -6.16516,-0.52856 -11.48274,-1.22851 -11.79623,-1.58564 -0.31347,-0.37142 1.49776,-4.17128 4.02885,-8.48537 2.54268,-4.29983 5.24791,-9.02822 6.02581,-10.49959 0.97528,-1.87135 1.93897,-2.68559 3.19288,-2.71417 2.206,-0.0428 3.44831,-1.77134 3.18125,-4.41413 -0.16251,-1.58563 1.81126,-4.5855 9.6599,-14.67084 l 9.85729,-12.65661 1.5326,2.25706 c 0.83595,1.25708 6.26963,10.8424 12.07488,21.31341 z m 125.48584,22.39911 c -3.42509,7.55684 -6.45543,14.04228 -6.73408,14.39941 -0.91721,1.17138 -10.1011,-3.57127 -11.29698,-5.82833 -0.81272,-1.49995 -1.52097,-1.95706 -2.58911,-1.62851 l -1.47456,0.45714 0.42959,-11.87096 c 0.24372,-6.54261 0.46441,-14.24229 0.51087,-17.11359 0.0695,-4.37126 0.26693,-5.22836 1.26554,-5.22836 1.71835,-0.0137 7.82544,-3.65702 8.96327,-5.35695 0.89402,-1.31421 1.64868,-0.59997 9.05618,8.49967 l 8.08088,9.94246 z m -29.5138,-28.89884 c 1.75318,1.15708 3.95916,2.08561 4.88801,2.08561 h 1.68352 l -0.49926,18.18499 c -0.2669,10.01387 -0.54571,18.2564 -0.60375,18.34211 -0.24372,0.32856 -29.00291,1.94277 -34.58755,1.94277 -3.28576,0 -5.9794,-0.32852 -5.9794,-0.74282 0,-0.39997 0.80115,-1.38566 1.77641,-2.17135 1.43971,-1.15708 1.69513,-1.87135 1.38164,-3.81411 -0.35991,-2.22849 0.61537,-3.54273 14.03706,-19.1421 7.94157,-9.2139 14.50146,-16.75645 14.5711,-16.77074 0.0695,0 1.56745,0.94281 3.33222,2.08564 z m 50.9467,34.72715 11.0996,13.81372 -1.97376,3.25702 c -1.0914,1.79992 -1.9854,3.95699 -1.9854,4.79981 0,0.82855 -0.24372,1.51423 -0.54571,1.51423 -0.58051,0 -32.27706,-13.31375 -32.57891,-13.68517 -0.17411,-0.21421 9.38124,-22.07052 11.18083,-25.55612 l 1.05656,-2.02848 1.32361,2.02848 c 0.71984,1.11424 6.31608,8.25682 12.42318,15.85651 z m -228.88858,0.34284 c 30.12912,3.3713 27.2149,2.82845 27.2149,5.07123 0,1.59995 -2.64716,6.91402 -14.73366,29.55594 -0.0811,0.17143 -7.29138,-4.4998 -16.01084,-10.37101 -8.71943,-5.87118 -18.46063,-12.37091 -21.63027,-14.44226 -3.18126,-2.07135 -5.88651,-3.85698 -6.01422,-3.98556 -0.12774,-0.11438 0.48763,-2.15704 1.35843,-4.54268 l 1.59063,-4.34267 4.76029,0.48568 c 2.62396,0.27154 13.17786,1.42854 23.46474,2.57133 z m 59.39911,6.32834 c 10.40296,0.91424 20.41117,1.67135 22.24563,1.67135 3.29737,0 3.33219,0.0136 4.72545,3.89985 0.7779,2.15703 1.17267,4.17126 0.88241,4.48552 -0.48764,0.51426 -45.61751,31.98442 -48.94971,34.14149 -1.312,0.84281 -2.9026,0.0285 -12.93404,-6.67116 -6.28126,-4.19983 -11.49435,-7.69968 -11.57563,-7.78539 -0.0811,-0.0859 3.07675,-6.15692 7.01271,-13.48518 6.45543,-12.04239 7.32618,-13.31376 8.95167,-13.15663 2.13632,0.2142 4.24943,-1.85706 4.24943,-4.15696 0,-1.44279 0.34829,-1.55709 3.23931,-1.11425 1.77641,0.28572 11.73818,1.25709 22.15277,2.17136 z m 123.58172,11.15667 c 0,6.14262 -0.19729,13.48518 -0.44121,16.31363 -0.41797,4.97123 -0.49925,5.12836 -2.39174,5.12836 -1.06817,0 -3.37865,0.82856 -5.12022,1.8428 l -3.18126,1.82848 -13.11984,-16.67075 c -7.21009,-9.17105 -13.1314,-16.95644 -13.14301,-17.31358 -0.0111,-0.34284 1.8925,-0.6714 4.23781,-0.72856 2.33371,-0.0571 8.98649,-0.37139 14.79171,-0.68568 5.79362,-0.31426 12.29548,-0.64282 14.45501,-0.72853 l 3.91275,-0.15716 z m 12.41156,-8.28537 c 2.14795,0.88569 3.91275,1.91421 3.91275,2.2999 0,0.37142 -1.95056,4.9141 -4.33071,10.08532 -2.39176,5.17121 -5.14342,11.38526 -6.14193,13.79945 -1.32359,3.22842 -2.18275,4.38554 -3.25094,4.38554 -1.38162,0 -1.42808,-0.25699 -0.99851,-6.39976 0.23215,-3.51414 0.42959,-10.62815 0.42959,-15.81364 0,-8.85679 0.0811,-9.38534 1.312,-8.98537 0.71986,0.22847 1.86928,0.0138 2.55432,-0.48568 1.40484,-1.01424 1.21906,-1.04283 6.51343,1.11424 z m -213.86464,7.8711 c 7.34941,4.99981 16.9861,11.4567 21.38647,14.37087 4.41196,2.91416 7.89512,5.69976 7.74418,6.18544 -0.16251,0.5 -2.93745,5.8855 -6.17678,11.97097 l -5.89811,11.08527 -1.97376,-1.25711 c -1.0914,-0.69998 -3.76181,-1.27137 -5.92133,-1.28566 l -3.94757,-0.0138 -3.32059,-6.88544 c -1.82287,-3.78557 -6.38576,-13.4566 -10.13594,-21.51342 -3.75017,-8.04256 -7.40746,-15.67082 -8.13893,-16.95648 -1.05655,-1.85706 -1.16103,-2.57133 -0.49925,-3.55699 0.46443,-0.67139 1.43971,-1.21424 2.17116,-1.21424 0.73147,0 7.34943,4.08554 14.71045,9.07106 z m 157.91384,-8.3425 c 0,0.39997 -0.5689,2.37133 -1.25391,4.38551 -0.69665,2.01422 -3.03032,9.21394 -5.17827,15.99938 -2.15955,6.77115 -4.08687,12.32807 -4.29586,12.32807 -0.22047,0 -5.99102,-4.61409 -12.84118,-10.24246 -10.29849,-8.47108 -12.23741,-10.38527 -11.27375,-11.08525 2.14791,-1.5285 5.58461,-6.35689 6.0142,-8.41395 0.35993,-1.79993 0.80114,-2.04277 3.90112,-2.14277 5.12022,-0.15716 23.82468,-1.24282 24.4168,-1.41424 0.27852,-0.0856 0.51085,0.18568 0.51085,0.58571 z m 17.00934,17.67069 13.94417,17.57072 -1.83446,3.42843 c -1.01012,1.87138 -1.97376,3.59986 -2.14795,3.81415 -0.17411,0.21421 -7.10558,-1.04282 -15.41868,-2.79988 -13.95578,-2.94274 -15.15163,-3.32845 -15.69734,-5.09981 -0.37155,-1.19994 -1.35842,-2.09989 -2.6588,-2.41419 -1.39326,-0.34284 -1.86928,-0.81424 -1.45131,-1.4428 0.32509,-0.51426 2.68201,-7.61397 5.21312,-15.78508 2.54265,-8.15682 4.95764,-14.84226 5.36401,-14.84226 0.40636,0 7.01273,7.89969 14.68724,17.57072 z M 141.26352,247.63677 c 1.1146,2.18565 5.4569,11.31383 9.65989,20.28489 4.19138,8.97108 8.35953,17.71359 9.26515,19.44209 l 1.6487,3.12844 -2.99552,3.557 c -2.80972,3.32844 -4.49324,7.69969 -4.50485,11.69952 0,0.81427 -0.1741,1.47138 -0.37154,1.47138 -0.20888,0 -5.94454,-2.85704 -12.7599,-6.35689 -6.80372,-3.49986 -12.79472,-6.55687 -13.30559,-6.81401 -0.68501,-0.34284 -0.81272,-1.45708 -0.49923,-4.31411 0.24381,-2.1142 1.05654,-12.85662 1.81123,-23.88475 0.76629,-11.01384 1.47451,-20.15632 1.60225,-20.2992 0.25542,-0.31426 5.74716,-1.65706 7.29136,-1.78564 0.65019,-0.0571 1.98537,1.59996 3.15805,3.87128 z m 254.5477,2.58562 15.976,6.48545 0.20887,2.94274 0.20888,2.95701 -19.44752,9.87103 c -10.6932,5.42837 -19.52877,9.7282 -19.62167,9.55677 -0.0927,-0.17142 -0.92884,-1.72851 -1.84605,-3.44272 -0.91725,-1.69993 -2.67041,-3.77128 -3.8779,-4.57125 -1.21911,-0.79995 -2.21758,-1.57135 -2.21758,-1.69992 0,-0.257 8.66139,-19.35636 11.37824,-25.09899 0.91721,-1.95706 2.03181,-3.54273 2.46142,-3.52843 0.42959,0.0137 7.97638,2.95703 16.77711,6.52831 z m -267.31921,-2.14277 c 0,3.54272 -1.61386,29.71307 -2.4382,39.5984 l -0.42959,5.11407 -14.38535,-7.62827 c -18.379369,-9.75674 -18.077489,-8.81392 -6.24644,-20.09917 4.69064,-4.47125 11.33183,-10.92814 14.75689,-14.34228 7.37266,-7.37113 8.74269,-7.7854 8.74269,-2.64275 z m 139.25583,2.71416 c 1.35843,1.1714 1.40489,1.49996 0.60374,4.38555 -0.48764,1.71421 -1.72996,7.12828 -2.7749,12.02809 -1.76477,8.28537 -2.03181,8.94248 -3.76177,9.37104 -1.14944,0.27152 -2.39176,1.51423 -3.22771,3.21416 -1.02171,2.09994 -3.7734,4.38554 -11.48274,9.57103 -5.56143,3.74273 -10.82098,7.05687 -11.66852,7.37113 -1.55581,0.57143 -3.64569,-0.64282 -15.33742,-8.94247 l -4.63256,-3.28559 12.45799,-8.6425 c 6.85018,-4.75697 18.12396,-12.61379 25.04377,-17.45647 6.91984,-4.85693 12.73669,-8.84247 12.93407,-8.85676 0.19728,-0.0138 1.03333,0.54282 1.84605,1.24279 z m 24.16138,13.62803 c 7.32618,6.02834 12.74828,11.02814 12.74828,11.77096 0,1.38566 -10.53068,39.81267 -11.47114,41.88401 -0.53408,1.15711 -18.47225,13.94229 -28.6546,20.42775 l -4.42359,2.81418 -2.98389,-3.25699 c -1.63708,-1.78564 -3.39024,-3.24275 -3.91275,-3.24275 -0.51084,0 -0.92884,-0.44282 -0.92884,-0.98566 0,-2.22851 10.40298,-46.39813 11.28539,-47.94093 0.53409,-0.91424 1.43968,-2.47132 2.0086,-3.44272 0.83595,-1.42851 0.88241,-2.1999 0.25533,-3.88557 -0.65019,-1.77134 -0.37154,-3.79983 1.6835,-12.47091 1.34682,-5.6855 2.44981,-10.95669 2.44981,-11.69954 0,-1.12853 0.68502,-1.27138 4.59774,-0.89995 4.5397,0.44284 4.72546,0.55711 17.34605,10.92812 z m 124.84726,8.72821 c 0.96366,1.25711 2.77492,2.75704 4.01721,3.29988 1.24232,0.55711 2.18277,1.21424 2.07827,1.47137 -0.0927,0.24274 -2.89099,5.99976 -6.19996,12.78521 -4.66743,9.58532 -6.32772,12.32807 -7.43069,12.32807 -0.7779,0 -2.05506,0.71426 -2.82135,1.58563 -1.39326,1.55708 -1.63707,1.49995 -16.71906,-3.44272 l -15.3026,-5.01407 -0.0464,-5.97118 -0.058,-5.97121 8.22023,-4.04267 c 4.51646,-2.2285 13.10819,-6.55689 19.08757,-9.64247 l 10.87903,-5.5855 1.26552,2.94274 c 0.69665,1.62852 2.05506,3.98555 3.03034,5.25692 z m -215.14182,4.62841 c 10.34493,6.79971 10.53069,6.94255 9.50898,7.39969 -0.38316,0.17142 -7.10562,4.7998 -14.94267,10.2853 l -14.25763,9.98531 -0.7663,-3.75701 c -0.42956,-2.05705 -1.61385,-4.81406 -2.62397,-6.11402 l -1.84606,-2.37132 6.23483,-11.79954 c 5.84006,-11.0424 6.32768,-11.7281 7.69772,-10.84241 0.80111,0.51426 5.74717,3.77128 10.9951,7.214 z m 269.01433,33.47007 c 5.51497,6.69973 7.52358,9.64247 6.80372,9.95674 -0.5573,0.24273 -2.44977,2.25706 -4.20297,4.45697 l -3.19287,4.01411 -28.37595,-11.44238 c -15.8599,-6.39976 -28.643,-11.99951 -28.99134,-12.6852 -0.45279,-0.92856 1.07979,-4.78555 5.71237,-14.38515 l 6.33931,-13.14231 3.49473,-0.0285 c 2.78651,-0.0285 4.14494,-0.58569 6.75731,-2.75704 l 3.26251,-2.71417 12.2839,14.5994 c 6.75726,8.04253 15.81342,18.89925 20.10928,24.12761 z m -137.75807,-28.07031 9.49736,1.9285 0.0464,11.39954 -7.14042,3.3713 c -3.93596,1.85706 -13.45653,6.27119 -21.15427,9.81388 l -14.01383,6.44261 -1.72995,-1.7428 -1.74157,-1.74277 4.5281,-16.51364 4.51646,-16.49931 2.15953,0.48568 c 1.18428,0.27152 2.67041,0.14289 3.2974,-0.28569 1.16101,-0.79998 1.7067,-0.71427 21.73477,3.34273 z m -207.60663,12.22809 c 0.44121,0.54285 -0.16251,8.91393 -1.25393,17.4993 -0.3367,2.57132 -0.52246,2.757 -2.67039,2.51417 -1.97378,-0.21421 -4.09851,-2.44275 -14.64079,-15.28509 l -12.330304,-15.01368 1.033327,-2.67132 1.033327,-2.65704 14.15315,7.49969 c 7.79062,4.12841 14.38535,7.77113 14.67561,8.11397 z m 136.38807,-10.55672 c -0.1741,0.5714 -2.70525,11.58525 -5.63107,24.45616 -2.91424,12.88518 -5.49176,23.67045 -5.71237,23.97046 -0.22046,0.29986 -2.07826,0.67142 -4.1333,0.82855 l -3.72697,0.28561 -2.4382,-14.81369 -2.43817,-14.7994 1.39325,-1.71421 c 1.17266,-1.44279 1.26552,-1.97134 0.55731,-3.3713 -1.01015,-1.97134 -1.05656,-2.51419 -0.20888,-2.51419 0.3367,0 4.85321,-2.98559 10.03143,-6.64257 8.81238,-6.22832 13.02698,-8.18538 12.30713,-5.6855 z m -37.68757,8.51395 c 5.74717,3.99983 9.27676,6.94257 9.27676,7.75682 0,0.72856 0.47603,1.7428 1.06817,2.28563 0.71986,0.62853 1.96217,6.28545 3.71536,16.8136 l 2.63557,15.8422 -2.06666,2.61423 c -1.12622,1.44279 -2.46142,4.07124 -2.96068,5.8426 l -0.894,3.21416 -14.52469,4.37123 c -14.91944,4.48554 -17.58986,5.04268 -17.58986,3.64275 0,-1.61424 -2.7981,-2.75706 -4.48162,-1.82851 -1.7648,0.99992 -2.41497,-0.0428 -14.78012,-24.07048 l -5.782,-11.22811 1.63706,-2.62846 c 0.894,-1.45708 1.82285,-3.77127 2.04345,-5.15694 0.37154,-2.27135 1.96217,-3.62843 15.82506,-13.44231 8.47562,-5.99976 15.89472,-10.81385 16.49845,-10.6853 0.60376,0.12864 5.27117,3.12846 10.37975,6.65689 z m -86.81137,7.85682 c 5.15504,2.67133 11.09958,5.71404 13.2243,6.75687 3.21611,1.58566 4.01722,2.39989 4.85317,4.95693 1.24231,3.79986 3.6573,7.05687 6.62957,8.94251 2.85618,1.81421 8.61498,1.82851 11.45954,0.0138 1.18426,-0.75711 2.41496,-1.15711 2.75166,-0.89998 0.3367,0.257 3.58762,6.19976 7.21009,13.21376 3.62246,6.99971 7.81386,14.91371 9.29999,17.58501 1.48614,2.67132 2.55429,5.05696 2.36853,5.28551 -0.18569,0.22848 -5.03895,1.09996 -10.78611,1.92849 l -10.4378,1.51421 -2.55432,-2.82843 c -3.28576,-3.61417 -5.77037,-3.68559 -8.95167,-0.25699 l -2.36851,2.55703 -13.80484,-14.34226 c -7.60485,-7.88544 -15.48836,-16.11369 -17.53178,-18.28504 l -3.72697,-3.95698 0.84757,-10.39956 c 0.91723,-11.29957 1.53258,-16.65648 1.91571,-16.65648 0.13933,0 4.45842,2.1856 9.60187,4.87122 z m 207.24667,-0.88569 c 0.20888,0.81426 1.34682,2.77132 2.50786,4.3427 2.06665,2.7713 2.0899,2.89988 0.83595,4.17125 -21.99022,22.17056 -36.77031,37.14136 -39.92834,40.45553 -3.309,3.47128 -4.1914,4.02839 -5.10861,3.21412 -0.60376,-0.52852 -2.25244,-1.81419 -3.65731,-2.857 -2.91422,-2.15707 -2.86776,-1.79991 -1.91571,-18.0707 0.49925,-8.48538 0.73145,-9.7139 2.22921,-11.55667 1.1146,-1.35712 8.59172,-5.28552 22.02502,-11.5567 11.19249,-5.22836 20.85239,-9.52819 21.49096,-9.55674 0.62697,-0.0428 1.31198,0.59997 1.52097,1.41421 z m 43.42314,2.74275 c 7.19847,2.32848 14.23441,4.59983 15.63928,5.05693 1.40485,0.44285 2.54268,1.25712 2.54268,1.78567 0,0.54282 1.07978,4.38552 2.38017,8.5425 1.31195,4.17125 5.38724,18.19928 9.07934,31.18448 l 6.69926,23.61332 -2.42661,1.47137 c -3.05354,1.8428 -4.84155,5.62833 -5.08535,10.69957 l -0.1857,3.94269 -7.77902,-0.11409 c -17.9846,-0.22847 -33.41491,-1.19995 -33.6239,-2.0999 -0.37152,-1.49996 -7.53519,-40.55552 -10.83255,-58.96908 -1.68352,-9.38532 -2.91422,-17.34216 -2.75166,-17.65643 0.16251,-0.32856 1.13781,-0.79998 2.17111,-1.05711 2.76331,-0.6714 7.36107,-5.0712 8.42922,-8.04253 0.51086,-1.41421 1.32357,-2.57132 1.79961,-2.57132 0.47605,0 6.75731,1.89992 13.94419,4.21412 z m -34.12315,6.77115 c 1.27716,0.52855 2.40335,1.04282 2.51945,1.15711 0.16251,0.15716 -18.66962,68.72582 -19.92352,72.51139 -0.26693,0.79998 -0.74309,1.47134 -1.04495,1.47134 -0.60375,0 -18.68123,-9.85671 -25.48495,-13.89941 l -4.08689,-2.41422 0.22047,-3.57128 c 0.11614,-1.97132 -0.15092,-4.94264 -0.60376,-6.614 -0.75468,-2.84277 -0.69663,-3.15706 0.83595,-4.52843 1.79962,-1.61419 36.45685,-36.65566 41.37967,-41.84115 3.48314,-3.67127 3.1348,-3.54272 6.18837,-2.27135 z m 6.64117,8.24254 c 0.75469,3.89984 3.37865,18.19926 5.82846,31.77015 2.44981,13.5709 5.05054,27.67034 5.77039,31.35588 0.71984,3.6713 1.19589,6.82831 1.05656,6.9997 -0.13933,0.17143 -7.40748,0.0428 -16.15017,-0.29986 -13.2359,-0.49998 -16.13852,-0.84282 -17.38082,-1.9999 l -1.50939,-1.38566 9.90372,-35.94144 c 11.69175,-42.48399 10.50748,-38.3413 10.83259,-37.94132 0.15092,0.18568 0.88237,3.52844 1.64866,7.44255 z m -65.00696,7.9711 c -0.0812,2.74274 -0.3367,8.61394 -0.56892,13.05662 l -0.42959,8.07111 -2.4614,0.5714 c -4.41198,1.01426 -8.08088,4.47125 -10.75129,10.1139 -0.71986,1.54277 -0.92882,1.52851 -8.16214,-0.29989 -4.07528,-1.02853 -8.05767,-1.87135 -8.84719,-1.87135 -1.2539,0.0138 -1.48614,-0.6 -1.81121,-4.79981 -0.19728,-2.64277 -0.5573,-5.38552 -0.78954,-6.08549 -0.32506,-0.98566 2.39176,-3.22843 11.33182,-9.41387 6.46703,-4.45697 13.73518,-9.61393 16.17338,-11.44241 5.86328,-4.41412 6.50186,-4.21412 6.31608,2.0999 z m -152.17828,19.14209 c 13.24753,13.99944 16.31269,17.65646 17.04416,20.27063 1.02174,3.71414 3.14644,6.12831 5.35242,6.12831 1.43969,0 5.17825,4.72838 17.89171,22.64194 l 2.1247,2.99988 -12.00519,11.64241 c -6.59474,6.39974 -12.52768,12.09949 -13.17786,12.67091 -1.02173,0.91424 -1.37004,0.67138 -2.55431,-1.69992 -0.76629,-1.51425 -2.55429,-3.55702 -3.97078,-4.52841 -2.38015,-1.65706 -3.40186,-3.81412 -12.94565,-27.34176 -8.38276,-20.68488 -10.28689,-26.01322 -9.96178,-27.95601 0.30186,-1.89991 0.0232,-2.74275 -1.3352,-4.05697 -1.60225,-1.5571 -1.7648,-2.3999 -2.4382,-12.82806 -0.80113,-12.18524 -0.88241,-15.02799 -0.45282,-15.02799 0.16251,0 7.55842,7.68543 16.4288,17.08504 z m 93.27841,15.11371 c 0.59215,1.32851 0.0696,4.72833 -2.60075,16.72785 -1.84605,8.27111 -4.06362,18.81357 -4.93441,23.39908 l -1.57902,8.37108 -7.98801,-15.05653 c -4.38877,-8.27107 -10.1011,-18.99924 -12.67862,-23.82761 -4.14494,-7.74255 -4.57451,-8.89963 -3.61085,-9.77102 0.60374,-0.55715 6.95466,-2.7142 14.11831,-4.82842 7.16365,-2.09987 13.93255,-4.11412 15.05875,-4.47122 2.00865,-0.64282 2.05506,-0.58569 2.75171,3.57127 0.39475,2.31419 1.04494,4.95696 1.46289,5.88552 z m 37.03738,-0.34268 c 3.62246,0.88566 6.75729,1.59996 6.97789,1.59996 0.22047,0 0.40638,1.51422 0.40638,3.38557 0,4.21409 1.26552,7.314 4.36553,10.65668 3.28574,3.54272 8.17377,4.44268 12.63218,2.32849 0.76627,-0.35728 3.03032,4.0427 9.04452,17.65643 4.41199,9.95674 7.84869,18.65641 7.6397,19.29923 -0.31347,1.01424 -4.36552,1.09995 -27.0524,0.58567 -14.6872,-0.32841 -26.90141,-0.82852 -27.15683,-1.12852 -0.25531,-0.28561 -2.11311,-10.87099 -4.13333,-23.52761 l -3.6689,-22.98479 2.15955,-1.42853 c 2.26405,-1.48566 6.44381,-6.82826 6.44381,-8.22825 0,-0.92852 2.71683,-0.5428 12.3419,1.78567 z m -76.72191,1.17138 c 0.22046,0.69994 1.10299,1.25711 1.97376,1.25711 1.25395,0 2.58916,1.8999 6.60637,9.4139 2.7633,5.1712 8.47563,15.89935 12.71344,23.82758 4.22622,7.92826 7.31459,14.41374 6.85018,14.41374 -0.46441,0 -1.9041,-0.81427 -3.2161,-1.81425 -1.31198,-0.99992 -6.22319,-4.47123 -10.91385,-7.72826 -7.95314,-5.51405 -8.51045,-6.05689 -8.12729,-8.01393 1.13781,-5.74265 -1.96219,-12.38522 -6.66442,-14.28515 -5.16666,-2.0999 -11.00669,2.79988 -11.68013,9.78532 l -0.37152,3.82841 -6.45541,-9.02822 c -3.5528,-4.95693 -7.01273,-9.64248 -7.67452,-10.39958 -1.17265,-1.34277 -1.14942,-1.45706 0.48764,-2.77131 0.94046,-0.7571 1.96217,-2.5999 2.27567,-4.09982 l 0.56889,-2.71417 9.13743,-1.35709 c 12.17939,-1.79992 14.01381,-1.84279 14.48986,-0.31412 z m 46.85982,5.82833 c 1.38164,0.69995 3.56439,1.28566 4.85316,1.28566 2.22921,0 2.36851,0.17142 2.82136,3.55702 0.25531,1.94277 1.82282,11.95664 3.4599,22.22765 1.63707,10.27104 2.98391,19.17068 2.98391,19.77062 0,0.88569 -2.48465,1.01427 -12.75992,0.64285 -13.77002,-0.5 -15.74378,-1.12853 -15.79021,-5.07123 -0.0239,-2.01421 2.4846,-14.7851 6.51345,-33.18435 3.18128,-14.54229 2.79813,-13.44234 4.21459,-11.85668 0.6618,0.74283 2.33371,1.91422 3.70376,2.62846 z m 65.57587,6.39976 c 2.56591,1.42848 9.09098,5.02836 14.52467,7.99967 5.42208,2.97131 10.13595,5.72832 10.47265,6.12833 0.81272,0.98566 -0.40639,3.15701 -8.92843,15.98505 -3.92436,5.91405 -7.39589,10.54246 -7.72097,10.2996 -0.58051,-0.44283 -3.97078,-7.79969 -12.4232,-27.01321 l -4.55131,-10.31385 1.8809,-2.78561 c 1.03335,-1.5285 1.92735,-2.81417 1.9854,-2.84272 0.058,-0.0428 2.20598,1.09995 4.76029,2.54274 z m 59.1785,17.17072 5.53817,0.52856 0.81275,5.09977 c 0.4412,2.81418 1.68354,9.6139 2.75169,15.09939 1.06817,5.4855 1.79962,10.24246 1.64868,10.57099 -0.16251,0.31416 -1.40487,0.82858 -2.75167,1.14282 -2.5195,0.58572 -8.42921,6.88548 -8.45242,9.01396 -0.0348,2.89988 -0.99851,3.14269 -5.80524,1.51421 -35.22612,-11.91381 -43.15608,-14.84226 -43.15608,-15.92795 0,-0.42855 3.19289,-5.64263 7.09401,-11.58526 3.90111,-5.95686 7.47714,-11.58524 7.94155,-12.49948 0.66179,-1.31421 1.3468,-1.57134 3.09998,-1.2285 1.67191,0.32841 2.34533,0.0998 2.67041,-0.91425 0.35993,-1.18566 1.90413,-1.35711 11.73817,-1.35711 6.23482,0 13.81645,0.24274 16.87,0.54285 z m 50.43582,3.04272 1.59066,1.82851 -1.67191,1.68566 c -6.71083,6.77112 -28.17859,27.85602 -28.89845,28.37025 -0.476,0.34268 -1.35841,0.12864 -1.96215,-0.48568 -0.60376,-0.61427 -2.32207,-1.68564 -3.83147,-2.37132 l -2.74005,-1.25712 -2.58914,-14.2137 c -1.41648,-7.82824 -2.58914,-14.74226 -2.60075,-15.39935 -0.0111,-0.99997 3.1,-1.08568 20.55053,-0.5857 19.90032,0.57139 20.62018,0.64282 22.15273,2.42845 z m -208.53542,9.5139 c 4.96926,3.52846 10.29845,7.29974 11.84265,8.37111 1.9854,1.39995 2.91422,2.67133 3.20451,4.39981 0.22046,1.38568 0.95205,2.64277 1.71831,2.94274 0.80114,0.31416 4.11011,6.25692 8.30148,14.91368 3.83146,7.91398 10.10112,20.78489 13.92094,28.59887 3.83147,7.81397 6.88502,14.3137 6.79213,14.44228 -0.1741,0.24274 -46.10513,-22.89907 -77.90618,-39.25558 -3.5528,-1.82851 -9.13744,-4.65696 -12.41158,-6.29976 -8.02283,-3.99983 -7.96479,-4.52838 1.6487,-13.62802 4.12171,-3.8998 10.24042,-9.71388 13.59585,-12.89946 l 6.08386,-5.79976 1.93897,1.41421 c 1.06814,0.77143 3.08836,1.39995 4.48162,1.39995 2.49624,0 7.11721,-2.757 7.11721,-4.24266 0,-0.42856 0.13933,-0.7714 0.3135,-0.7714 0.18569,0 4.38873,2.88558 9.35803,6.41399 z m 48.04407,14.11373 c 0.13932,0.15717 0.96366,4.91411 1.83446,10.57099 0.87075,5.65694 2.51945,15.71366 3.65726,22.34197 1.14945,6.62832 2.0899,12.32807 2.0899,12.67092 0,0.34265 -1.30036,1.57137 -2.89101,2.72848 -1.59061,1.17137 -3.50634,3.2713 -4.24941,4.68551 -0.75469,1.41424 -1.55581,2.55706 -1.79961,2.55706 -0.60376,0.0138 -2.79815,-4.32843 -15.47675,-30.69882 -6.02586,-12.51375 -10.96028,-23.15618 -10.96028,-23.64186 0,-0.48569 0.60374,-1.17138 1.3468,-1.49996 1.27716,-0.58568 25.93777,-0.31415 26.44864,0.28561 z m 48.21821,0.88569 c 4.24945,0.27126 7.65131,0.85708 7.65131,1.31422 0,0.85713 -10.10107,15.61366 -24.32391,35.52717 l -8.45242,11.85663 -3.09998,-2.02846 c -2.15955,-1.41424 -4.1914,-2.02851 -6.72247,-2.02851 -3.20446,0 -3.6689,-0.21421 -3.98237,-1.87135 -0.62698,-3.39988 -7.15205,-42.81257 -7.15205,-43.26967 0,-0.55716 35.73701,-0.17143 46.08189,0.49997 z m 33.58908,9.84243 c 10.99508,3.8427 21.60707,7.44258 23.59247,8.01398 3.56437,1.04284 3.59921,1.08566 3.40186,3.95699 l -0.20888,2.91419 -11.90069,5.41402 c -30.05947,13.67091 -67.43354,30.38453 -67.95602,30.38453 -0.32511,0 -0.74306,-1.02853 -0.95208,-2.29993 -0.20887,-1.25709 -1.13781,-3.68554 -2.07824,-5.38547 -0.94046,-1.68566 -1.47456,-3.19988 -1.1959,-3.34275 0.58053,-0.2856 12.06329,-16.21361 24.42841,-33.88433 8.68464,-12.39952 9.96178,-13.81376 11.78464,-13.14233 0.60372,0.22846 10.08949,3.54272 21.08459,7.3711 z m 0,0"
       fill-opacity="1"
       fill-rule="evenodd"
       id="path7"
       style="stroke-width:3.2969" />
  </g>
</svg>
