<?xml version="1.0" encoding="UTF-8" standalone="no"?>
<!-- Created with Inkscape (http://www.inkscape.org/) -->

<svg
   width="512"
   height="512"
   viewBox="0 0 512 512"
   version="1.1"
   id="svg1"
   inkscape:version="1.3.1 (9b9bdc1480, 2023-11-25, custom)"
   sodipodi:docname="storage_icon.svg"
   xmlns:inkscape="http://www.inkscape.org/namespaces/inkscape"
   xmlns:sodipodi="http://sodipodi.sourceforge.net/DTD/sodipodi-0.dtd"
   xmlns="http://www.w3.org/2000/svg"
   xmlns:svg="http://www.w3.org/2000/svg">
  <sodipodi:namedview
     id="namedview1"
     pagecolor="#ffffff"
     bordercolor="#000000"
     borderopacity="0.25"
     inkscape:showpageshadow="2"
     inkscape:pageopacity="0.0"
     inkscape:pagecheckerboard="0"
     inkscape:deskcolor="#d1d1d1"
     inkscape:document-units="px"
     inkscape:zoom="2.34375"
     inkscape:cx="255.78667"
     inkscape:cy="256"
     inkscape:window-width="2560"
     inkscape:window-height="1403"
     inkscape:window-x="0"
     inkscape:window-y="0"
     inkscape:window-maximized="1"
     inkscape:current-layer="layer1" />
  <defs
     id="defs1">
    <clipPath
       id="14267140b1">
      <path
         d="M 699.13672,13.679688 H 853 V 151 H 699.13672 Z m 0,0"
         clip-rule="nonzero"
         id="path5" />
    </clipPath>
  </defs>
  <g
     inkscape:label="Layer 1"
     inkscape:groupmode="layer"
     id="layer1">
    <path
       fill="#e6e3dd"
       d="m 447.2399,288.04405 c -1.88715,-0.85125 -4.06836,0.16214 -4.85261,2.24292 l -9.8277,26.37465 c -0.78425,2.09432 0.12258,4.48589 2.0219,5.35063 1.89939,0.85122 4.06836,-0.13516 4.85261,-2.22941 l 9.8277,-26.38819 c 0.78425,-2.09432 -0.12258,-4.48587 -2.0219,-5.3506 z m 0,0"
       fill-opacity="1"
       fill-rule="nonzero"
       id="path79"
       style="stroke-width:3.29406" />
    <path
       fill="#e6e3dd"
       d="m 449.37208,339.28009 c 2.07093,0 0.83328,-0.0944 36.41892,-25.53698 1.71554,-1.24305 2.19346,-3.76972 1.06608,-5.67485 -1.12735,-1.90515 -3.44335,-2.41857 -5.14666,-1.17552 l -34.38476,24.87488 c -3.08798,2.22942 -1.6175,7.51247 2.04642,7.51247 z m 0,0"
       fill-opacity="1"
       fill-rule="nonzero"
       id="path80"
       style="stroke-width:3.29406" />
    <path
       fill="#e6e3dd"
       d="m 485.39886,352.26473 -26.33384,-2.10779 c -2.05868,-0.25657 -3.82325,1.54033 -3.97033,3.79674 -0.14704,2.25646 1.38473,4.21562 3.43112,4.39128 3.74975,0.29711 -5.07314,-0.41884 26.61573,2.10783 1.92388,0 3.55364,-1.64842 3.70071,-3.79678 0.13482,-2.25644 -1.39698,-4.21562 -3.44339,-4.39128 z m 0,0"
       fill-opacity="1"
       fill-rule="nonzero"
       id="path81"
       style="stroke-width:3.29406" />
    <g
       clip-path="url(#14267140b1)"
       id="g82"
       transform="matrix(3.137026,0,0,3.4589734,-2181.5634,-37.369686)">
      <path
         fill="#e6e3dd"
         d="M 846.71094,57.644531 829.94141,28.125 c 4.88671,-4.105469 1.91796,-11.910156 -4.28516,-11.910156 -3.73438,0 -6.76953,3.035156 -6.76953,6.773437 0,0.324219 0.10156,0.582031 0.14453,0.886719 l -34.96484,11.328125 c -2.13672,-5.445313 -9.36329,-5.855469 -12.04297,-0.769531 L 738.26953,21.75 c 0.0781,-0.394531 0.23047,-0.789062 0.23047,-1.179688 0,-3.734374 -3.03906,-6.773437 -6.77344,-6.773437 -5.99609,0 -9.00781,7.363281 -4.69531,11.5625 l -21.03906,30.628906 c -0.082,0 -0.19532,-0.03125 -0.27344,-0.03125 -3.73438,0 -6.77344,3.015625 -6.77344,6.722657 0,4.539062 4.52344,8.054687 9.07422,6.300781 l 13.33984,12.199219 c 0.22657,0.207031 0.51172,0.308593 0.79688,0.308593 0.32422,0 0.64062,-0.128906 0.875,-0.382812 0.44141,-0.484375 0.40625,-1.234375 -0.0742,-1.675781 L 710.16797,67.726562 c 1.83203,-1.597656 2.75,-4.167968 2.00781,-6.804687 l 32.29688,-10.445313 9.58593,20.421876 -0.20312,0.445312 c -0.45313,1.015625 0,2.210938 1.0664,2.742188 l 0.8086,0.367187 1.19531,2.550781 c -0.0508,0.910156 -0.0547,1.839844 0.0156,2.800782 l -2.39844,0.914062 c -0.54688,0.21875 -0.97656,0.640625 -1.1875,1.15625 -0.19922,0.492188 -0.19141,1.03125 -0.004,1.445312 l 2.73438,7.304688 c 0.16797,0.503906 0.54687,0.925781 1.04297,1.15625 0.51171,0.234375 1.11718,0.257812 1.63671,0.05078 l 2.41407,-0.910156 c 0.94531,1.269531 2.04297,2.414063 3.27734,3.425781 L 763.375,96.6875 c -0.44922,1.015625 0.004,2.246094 1.02344,2.691406 l 7.10937,3.226564 c 1.00391,0.45312 2.2461,0.004 2.69141,-1.00781 l 1.19531,-2.570316 c 1.21484,0.132812 2.51172,0.152344 3.85547,0.05859 l 0.94141,2.496096 c 0.34765,0.77735 1.10546,1.24219 1.89453,1.24219 0.60547,0 0.24218,0 8.10156,-2.871099 0.97656,-0.433594 1.49609,-1.597656 1.14453,-2.632813 l -0.91406,-2.429687 c 1.22265,-0.929687 2.33984,-1.996094 3.33203,-3.183594 l 2.57422,1.15625 c 1.05469,0.421875 2.2539,-0.02734 2.70312,-1.035156 L 802.25,84.714844 c 0.45703,-1.03125 0,-2.242188 -1.01172,-2.691406 l -2.70312,-1.242188 c 0.16406,-1.34375 0.21484,-2.660156 0.14062,-3.9375 l 2.58984,-0.953125 c 0.9961,-0.441406 1.50391,-1.578125 1.15235,-2.632813 L 801.98047,72.09375 812.19141,52.039062 839.70703,62.375 c -0.90625,2.996094 0.33594,5.878906 2.59766,7.414062 -4.17188,4.039063 15.12109,-14.632812 -40.82032,39.503908 h -19.12109 c -0.65234,0 -1.18359,0.53125 -1.18359,1.18359 0,0.65625 0.53125,1.1875 1.18359,1.1875 h 46.70703 c 1.14063,0 2.03516,0.89453 2.03516,2.03516 0,18.72265 0.0937,28.42187 -0.0195,28.91797 -0.21485,0.96093 -1.04688,1.63281 -2.01563,1.63281 h -73.23437 v -32.58594 h 16.19922 c 0.65625,0 1.1875,-0.53125 1.1875,-1.1875 0,-0.65234 -0.53125,-1.18359 -1.1875,-1.18359 h -17.7461 c -0.47656,-0.46094 -24.375,-23.617189 -22.85156,-22.140626 -0.48047,-0.441406 -1.22656,-0.40625 -1.67188,0.07031 -0.4414,0.480469 -0.41015,1.230469 0.0703,1.671875 0.47656,0.460938 22.50781,21.757811 21.10547,20.398441 h -24.28516 c -2.375,0 -4.30859,1.97656 -4.30859,4.40625 0,0.47266 -0.0508,35.6875 -0.0469,33.4414 0,2.08985 1.71875,3.78907 3.83594,3.78907 h 103.5 c 2.08984,0 3.78906,-1.69922 3.78906,-3.78907 0,-0.47656 -0.004,-4.7539 -0.004,-4.27734 0.082,-0.67969 0.0352,-9.46875 0.0547,-29.16406 0,-2.47266 -1.9375,-4.40625 -4.40625,-4.40625 h -24.23828 c 54.67188,-52.812503 35.81641,-34.59766 39.89453,-38.539066 0.46485,0.113282 0.89844,0.265625 1.44141,0.265625 3.70703,0 6.72656,-3.019531 6.72656,-6.726562 0,-3.453125 -2.62891,-6.273438 -6.18359,-6.648438 z m -121.9961,56.054689 c 0,-1.125 0.8711,-2.03516 1.94141,-2.03516 h 26.8125 V 144.25 h -26.8125 c -1.07031,0 -1.94141,-0.91016 -1.94141,-2.03516 0,-0.89453 0,-30.20312 0,-28.51562 z M 825.65625,18.582031 c 2.40625,0 4.35937,1.976563 4.35937,4.40625 0,1.570313 -0.83984,3.027344 -2.21093,3.808594 -2.64063,1.558594 -6.55078,-0.296875 -6.55078,-3.808594 0,-2.429687 1.97656,-4.40625 4.40234,-4.40625 z M 784.62891,37.507812 819.6875,26.152344 c 0.46484,0.882812 1.11719,1.636718 1.90625,2.207031 l -10.55078,20.71875 -26.57422,-9.980469 c 0.10937,-0.476562 0.16797,-0.984375 0.16797,-1.519531 0,-0.02344 -0.004,-0.04687 -0.008,-0.07031 z m -6.76563,-4.289062 c 3.33203,0 5.27734,3.589844 4.02734,6.117188 -1.46093,3.40625 -6.28515,3.574218 -7.9414,0.175781 -0.48828,-0.980469 -0.59766,-2.171875 -0.20703,-3.257813 0.53125,-1.785156 2.22656,-3.035156 4.12109,-3.035156 z m -40.4375,-9.257812 33.86328,12.726562 c -0.0703,0.472656 -0.35547,0.933594 0.0781,2.601562 l -25.64063,8.292969 -10.15234,-21.625 c 0.77734,-0.546875 1.39453,-1.207031 1.85156,-1.996093 z m -5.69922,-7.796876 c 2.9375,0 5.25,2.929688 4.08985,5.964844 -0.35938,1.039063 -1.14844,1.890625 -2.22266,2.390625 -2.86719,1.328125 -6.22656,-0.664062 -6.22656,-3.949219 0,-2.425781 1.95703,-4.40625 4.35937,-4.40625 z M 701.3125,62.679688 c 0,-2.941407 2.92187,-4.851563 5.10547,-4.269532 3.95312,0.519532 5.17969,6.207032 1.27734,8.167969 -2.68359,1.523437 -6.38281,-0.488281 -6.38281,-3.898437 z m 9.8125,-3.90625 c -0.71094,-0.988282 -1.625,-1.765626 -2.64844,-2.21875 l 20.53125,-29.894532 c 1.66406,0.734375 2.9375,0.792969 4.46094,0.386719 l 9.98828,21.269531 z m 71.76953,32.738281 c -7.37109,2.75 -15.60937,-1.003907 -18.37109,-8.359375 -2.78516,-7.355469 0.96484,-15.613282 8.35547,-18.414063 7.27734,-2.726562 15.55859,0.9375 18.36718,8.351563 2.75,7.371094 -0.99609,15.636718 -8.35156,18.421875 z M 800.85156,69.09375 799.66406,65.9375 C 799.25,64.910156 798.17187,64.398438 797,64.75 l -2.45313,0.949219 c -0.7539,-1.007813 -1.64453,-1.980469 -2.69531,-2.945313 l 1.16406,-2.574218 c 0.44532,-1 0.0156,-2.28125 -1.02734,-2.75 l -7.10937,-3.171876 c -1.03125,-0.453124 -2.23829,0.0039 -2.69141,1.015626 l -1.05078,2.304687 c -1.44141,-0.207031 -2.83985,-0.285156 -4.22266,-0.246094 L 775.96484,54.8125 c -0.3164,-1.066406 -1.45703,-1.675781 -2.63672,-1.292969 l -7.36718,2.757813 c -1.03125,0.414062 -1.53907,1.5 -1.19141,2.648437 l 0.85938,2.296875 c -1.28125,0.90625 -2.4336,1.9375 -3.4375,3.085938 l -2.3711,-1.097656 c -1.02734,-0.457032 -2.23828,0 -2.6914,1.011718 l -1.77344,3.859375 -8.61328,-18.339843 25.67968,-8.304688 c 2.84766,4.046875 8.4961,3.769531 11.04688,-0.183594 l 26.49219,9.949219 z m 22.86719,-39.695312 c 1.44922,0.445312 2.67578,0.417968 4.16797,-0.09766 l 16.24219,28.59375 c -1.34375,0.421875 -2.48047,1.273438 -3.3125,2.367188 l -27.54297,-10.34375 z m 22.44922,39.253906 c -2.39844,0 -4.40235,-1.890625 -4.40235,-4.359375 0,-2.289063 1.76172,-4.246094 4.40235,-4.355469 2.4414,0 4.35937,1.914062 4.35937,4.355469 0,2.441406 -1.91797,4.359375 -4.35937,4.359375 z m 0,0"
         fill-opacity="1"
         fill-rule="nonzero"
         id="path82" />
    </g>
    <path
       fill="#e6e3dd"
       d="m 128.96654,385.03042 c 4.19085,0 7.58522,-3.74272 7.58522,-8.36369 0,-4.621 -3.39437,-8.36369 -7.58522,-8.36369 -4.19087,0 -7.58523,3.74269 -7.58523,8.36369 0,4.62097 3.39436,8.36369 7.58523,8.36369 z m 0,0"
       fill-opacity="1"
       fill-rule="nonzero"
       id="path83"
       style="stroke-width:3.29406" />
    <path
       fill="#e6e3dd"
       d="m 128.96654,431.14556 c 4.19085,0 7.58522,-3.74272 7.58522,-8.36369 0,-4.62098 -3.39437,-8.3637 -7.58522,-8.3637 -4.19087,0 -7.58523,3.74272 -7.58523,8.3637 0,4.62097 3.39436,8.36369 7.58523,8.36369 z m 0,0"
       fill-opacity="1"
       fill-rule="nonzero"
       id="path84"
       style="stroke-width:3.29406" />
    <path
       fill="#e6e3dd"
       d="m 334.28243,381.50388 c 0,-2.25646 -1.66656,-4.09403 -3.71295,-4.09403 h -94.73574 c -2.05868,0 -3.71295,1.83757 -3.71295,4.09403 0,2.26995 1.65427,4.10755 3.71295,4.10755 h 94.73574 c 2.04639,0 3.71295,-1.8376 3.71295,-4.10755 z m 0,0"
       fill-opacity="1"
       fill-rule="nonzero"
       id="path85"
       style="stroke-width:3.29406" />
    <path
       fill="#e6e3dd"
       d="m 233.59127,427.05153 c -2.05868,0 -3.713,1.82408 -3.713,4.09403 0,2.25643 1.65432,4.09401 3.713,4.09401 h 94.73574 c 2.04639,0 3.71295,-1.83758 3.71295,-4.09401 0,-2.26995 -1.66656,-4.09403 -3.71295,-4.09403 z m 0,0"
       fill-opacity="1"
       fill-rule="nonzero"
       id="path86"
       style="stroke-width:3.29406" />
    <path
       fill="#e6e3dd"
       d="m 394.96426,422.76835 v -41.26447 c 0,-2.25646 -1.65428,-4.09403 -3.71295,-4.09403 -2.04639,0 -3.71295,1.83757 -3.71295,4.09403 v 41.26447 c 0,2.26995 1.66656,4.10752 3.71295,4.10752 2.05867,0 3.71295,-1.83757 3.71295,-4.10752 z m 0,0"
       fill-opacity="1"
       fill-rule="nonzero"
       id="path87"
       style="stroke-width:3.29406" />
  </g>
</svg>
